<svg width="537" height="503" viewBox="0 0 537 503" fill="none" xmlns="http://www.w3.org/2000/svg">
<path d="M64.7276 309.84C62.7245 328.333 62.0311 347.134 65.0358 365.55C67.5012 380.498 72.6632 396.833 79.5973 410.394C84.9904 420.951 94.8521 432.123 107.719 431.892C123.436 431.584 130.293 408.468 134.684 396.371C140.077 381.423 144.392 364.933 155.64 353.144C157.721 350.91 160.032 348.906 162.343 346.903C180.141 332.34 204.564 324.635 222.361 310.149C240.852 295.2 254.643 273.934 258.649 250.51C262.733 227.086 256.338 201.658 240.235 184.167C222.284 164.75 194.856 159.202 169.663 165.135C140.925 171.916 123.513 191.41 105.792 213.447C83.7577 240.801 68.5799 274.935 64.7276 309.84Z" stroke="#AECC53" stroke-miterlimit="10"/>
<path d="M180.68 275.475C193.007 263.609 197.63 240.339 176.982 233.712C169.662 231.323 161.419 233.018 154.793 236.794C148.09 240.57 142.774 246.349 138.074 252.513C132.065 260.526 127.057 269.31 123.282 278.634C119.429 288.111 115.346 305.14 125.824 311.998C132.45 316.313 139.846 313.231 145.933 309.455C159.955 300.748 168.969 286.724 180.68 275.475Z" stroke="#AECC53" stroke-miterlimit="10"/>
<path d="M55.7134 377.339C62.1851 396.833 71.1994 415.172 83.7577 431.43C91.5392 441.447 101.94 451.155 114.576 451.31C123.436 451.387 131.602 446.763 138.459 441.216C165.348 419.564 177.752 384.196 203.485 361.158C213.116 352.528 224.595 345.901 236.768 341.586C247.786 337.734 259.42 338.119 270.283 334.728C289.467 328.718 305.8 325.867 322.365 313.539C335.925 303.445 347.405 290.423 355.417 275.552C370.98 246.888 372.213 215.065 364.509 183.936C361.504 171.761 357.806 159.664 352.027 148.569C334.384 114.896 298.943 94.015 262.887 82.0718C203.562 62.3463 129.522 88.8525 86.4542 130.923C65.1128 151.805 51.8612 180.006 45.3124 209.132C38.7636 238.258 38.7636 268.54 40.9979 298.359C43.2321 325.02 47.3155 352.065 55.7134 377.339Z" stroke="#AECC53" stroke-miterlimit="10"/>
<path d="M39.9192 120.752C-1.91604 188.636 -9.15824 265.381 14.0322 340.97C27.6691 385.275 47.8548 431.738 88.2263 454.623C96.0848 459.092 104.714 462.559 113.805 463.407C123.59 464.331 133.143 462.174 142.003 458.09C153.252 452.928 163.499 444.606 172.128 435.591C187.537 419.487 199.864 400.3 217.353 386.354C239.311 368.786 267.047 361.466 294.552 358.615C316.047 356.38 336.464 358.615 357.035 350.601C376.836 342.896 394.325 329.412 407.345 312.691C427.608 286.57 437.239 253.129 438.009 220.074C439.55 155.349 407.962 92.3198 360.194 48.5538C346.711 36.1482 331.842 25.1297 315.431 17.0391C276.524 -1.91592 230.451 -2.99466 188.616 8.17802C127.057 24.5132 73.3566 66.5071 39.9192 120.752Z" stroke="#AECC53" stroke-miterlimit="10"/>
<path d="M290.931 388.357C277.217 387.51 263.811 392.98 252.023 400.146C237.924 408.699 225.135 420.103 217.97 434.974C210.804 449.845 210.265 468.415 219.356 482.208C228.987 496.848 247.863 503.474 265.352 502.087C282.841 500.7 299.021 492.379 313.428 482.362C330.84 470.265 351.873 451.464 344.631 427.885C338.236 407.235 312.195 389.744 290.931 388.357Z" stroke="#AECC53" stroke-miterlimit="10"/>
<path d="M268.896 420.103C259.42 425.805 254.026 437.517 255.413 448.459C256.8 459.631 265.506 469.879 276.601 471.806C292.934 474.657 315.2 455.393 311.656 437.902C308.189 420.18 283.535 411.319 268.896 420.103Z" stroke="#AECC53" stroke-miterlimit="10"/>
<path d="M422.523 419.564C428.302 420.257 434.157 419.795 439.242 418.485C462.741 412.398 484.39 399.53 497.95 379.034C512.743 356.766 516.518 323.016 509.661 297.358C508.659 293.582 507.35 289.884 505.577 286.185C502.804 280.098 498.798 272.547 493.019 268.848C471.447 254.979 464.204 306.758 461.277 317.083C456.269 334.728 441.245 351.68 426.684 362.236C421.445 366.089 415.743 369.402 410.735 373.563C401.028 381.654 393.169 394.676 400.411 406.927C404.957 414.632 413.586 418.485 422.523 419.564Z" stroke="#AECC53" stroke-miterlimit="10"/>
<path d="M383.616 390.052C396.097 372.561 411.429 360.233 427.531 346.44C440.243 335.499 447.794 319.318 451.415 303.214C454.574 289.036 456.115 274.165 462.586 261.143C468.904 248.352 480.923 238.566 495.562 237.796C506.579 237.256 515.362 247.273 520.909 256.057C533.313 275.475 537.474 301.442 535.856 324.172C533.93 351.064 523.452 376.953 508.505 399.299C487.78 430.274 444.558 461.326 406.344 444.221C390.55 437.132 371.674 424.495 376.373 404.076C377.606 398.913 380.534 394.367 383.616 390.052Z" stroke="#AECC53" stroke-miterlimit="10"/>
</svg>
