<svg width="591" height="618" viewBox="0 0 591 618" fill="none" xmlns="http://www.w3.org/2000/svg">
<path d="M315.28 97.6616C333.1 92.3286 351.461 88.2274 370.116 87.8328C385.263 87.5384 402.265 89.6435 416.861 93.9954C428.222 97.3788 441.002 105.044 443.115 117.738C445.67 133.249 424.187 144.196 413.09 150.714C399.372 158.736 383.942 165.977 374.396 179.182C372.577 181.634 371.027 184.272 369.478 186.909C358.394 207.058 355.259 232.475 344.252 252.61C332.916 273.511 314.512 290.94 292.207 299.139C269.916 307.415 243.75 305.751 223.622 293.099C201.264 278.978 190.82 253.017 192.072 227.164C193.513 197.672 209.516 177.005 227.963 155.573C250.853 128.93 281.658 107.798 315.28 97.6616Z" stroke="#AECC53" stroke-miterlimit="10"/>
<path d="M302.576 217.93C293.149 232.21 271.108 240.987 260.837 221.889C257.157 215.126 257.324 206.712 259.832 199.51C262.326 192.232 267.041 185.953 272.248 180.211C279.035 172.844 286.762 166.322 295.243 160.915C303.862 155.403 319.864 148.291 328.513 157.347C333.961 163.077 332.275 170.911 329.67 177.582C323.658 192.954 311.508 204.369 302.576 217.93Z" stroke="#AECC53" stroke-miterlimit="10"/>
<path d="M380.013 76.5216C400.359 79.34 420.032 84.8687 438.303 94.2606C449.568 100.091 461.006 108.552 463.456 120.949C465.143 129.647 462.082 138.519 457.874 146.27C441.473 176.648 408.952 195.278 390.977 224.772C384.243 235.811 379.814 248.305 377.785 261.059C376.001 272.594 378.495 283.963 377.137 295.262C374.716 315.219 374.884 331.799 365.773 350.33C358.314 365.499 347.597 379.156 334.431 389.739C309.076 410.256 278.008 417.256 245.996 415.341C233.478 414.601 220.91 413.164 208.949 409.5C172.63 398.275 145.651 367.223 127.349 333.94C97.1632 279.192 109.762 201.567 143.298 151.565C159.95 126.782 185.271 108.623 212.72 96.8858C240.169 85.1491 269.946 79.6417 299.675 76.4155C326.297 73.7638 353.634 72.8603 380.013 76.5216Z" stroke="#AECC53" stroke-miterlimit="10"/>
<path d="M124.833 107.656C183.976 54.1727 258.124 33.0937 336.67 42.15C382.717 47.5017 432.076 58.9005 461.921 94.4366C467.745 101.351 472.724 109.206 475.211 117.991C477.9 127.445 477.516 137.231 475.111 146.686C472.081 158.686 465.761 170.276 458.466 180.4C445.433 198.481 428.809 214.092 418.275 233.826C404.994 258.613 402.84 287.218 405.039 314.782C406.751 336.326 412.662 355.996 408.523 377.681C404.547 398.553 394.469 418.202 380.395 434.047C358.395 458.722 327.263 474.274 294.899 481.044C231.534 494.33 163.811 474.732 112.087 435.721C97.4367 424.719 83.8975 412.101 72.9573 397.436C47.2422 362.624 37.8022 317.516 41.18 274.347C46.0471 210.844 77.5741 150.402 124.833 107.656Z" stroke="#AECC53" stroke-miterlimit="10"/>
<path d="M433.627 305.812C430.299 292.481 433.241 278.304 438.143 265.41C443.989 249.99 452.877 235.34 466.197 225.59C479.517 215.839 497.679 211.932 512.895 218.363C529.042 225.17 538.991 242.526 540.808 259.976C542.625 277.426 537.385 294.849 530.155 310.838C521.427 330.159 506.764 354.261 482.262 351.428C460.794 348.895 438.858 326.47 433.627 305.812Z" stroke="#AECC53" stroke-miterlimit="10"/>
<path d="M460.836 278.372C464.719 268.016 475.255 260.583 486.266 259.957C497.505 259.288 509.165 265.985 513.077 276.544C518.851 292.087 503.959 317.485 486.115 317.181C468.058 316.995 454.861 294.363 460.836 278.372Z" stroke="#AECC53" stroke-miterlimit="10"/>
<path d="M488.246 429.534C489.979 435.09 490.589 440.932 490.226 446.171C488.514 470.384 479.798 494.013 462.11 511.075C442.903 529.67 410.403 539.521 383.926 537.444C380.031 537.146 376.156 536.531 372.197 535.461C365.706 533.841 357.553 531.275 352.865 526.265C335.303 507.575 384.902 491.037 394.523 486.28C410.963 478.146 424.899 460.29 432.631 444.052C435.467 438.199 437.688 431.991 440.868 426.309C447.059 415.292 458.434 405.196 471.798 410.09C480.202 413.158 485.56 420.943 488.246 429.534Z" stroke="#AECC53" stroke-miterlimit="10"/>
<path d="M452.15 396.643C437.221 412.097 427.887 429.416 417.253 447.758C408.806 462.248 394.268 472.616 379.091 479.105C365.724 484.79 351.381 489.01 339.753 497.742C328.325 506.28 320.888 519.879 322.793 534.413C324.266 545.345 335.713 552.16 345.36 556.017C366.709 564.683 393 564.051 415.057 558.326C441.15 551.541 464.702 536.529 483.956 517.768C510.646 491.755 533.319 443.606 509.549 409.141C499.706 394.899 483.847 378.636 464.623 386.971C459.771 389.122 455.833 392.828 452.15 396.643Z" stroke="#AECC53" stroke-miterlimit="10"/>
</svg>
