<svg width="307" height="402" viewBox="0 0 307 402" fill="none" xmlns="http://www.w3.org/2000/svg">
<g clip-path="url(#clip0_1506_737)">
<path d="M157.344 84.7037L132.081 106.771C130.983 107.73 129.61 108.141 128.1 108.141C128.1 108.141 128.1 108.141 127.962 108.141C127.001 108.141 126.04 107.867 125.216 107.456C125.079 107.456 124.942 107.456 124.805 107.456L121.921 110.334C121.647 110.608 121.235 110.882 120.823 110.882C120.411 110.882 119.999 110.745 119.725 110.334C119.038 109.649 119.038 108.689 119.725 108.004L122.882 104.852L122.745 104.578C122.333 103.755 122.059 102.796 122.059 101.836C122.059 100.329 122.608 98.9581 123.432 97.8616L145.537 72.6424C145.537 67.434 148.832 62.774 153.775 61.2663C163.248 58.388 171.898 67.0229 169.015 76.4801C167.367 81.4143 162.699 84.7037 157.344 84.7037ZM128.1 104.852C128.786 104.852 129.473 104.578 130.022 104.166L153.225 83.8814L152.539 83.6072C149.93 82.3737 147.733 80.3178 146.498 77.5766L146.223 76.8912L125.903 100.055C125.491 100.603 125.216 101.288 125.216 101.973C125.216 102.796 125.491 103.481 126.04 104.029C126.589 104.578 127.413 104.852 128.1 104.852Z" fill="#A9C753"/>
<path d="M181.646 199.013L176.978 351.013L150.205 369.517L200.868 368.968L218.717 261.924L249.197 353.617L227.916 370.613L276.108 368.968L261.966 198.739C265.536 200.383 233.133 210.389 226.955 208.607C226.131 208.333 225.307 208.47 224.483 208.607C212.813 210.8 201.417 207.373 190.159 203.399C187.413 202.302 184.529 200.931 181.646 199.013Z" fill="#A8C653" stroke="#A8C653" stroke-miterlimit="10"/>
<path d="M177.939 313.733L209.792 314.555L200.731 368.968L150.067 369.517L176.841 351.013L177.939 313.733Z" fill="white" stroke="white" stroke-width="1.0392" stroke-miterlimit="10" stroke-linecap="round" stroke-linejoin="round"/>
<path d="M236.291 314.966L270.341 314.555L276.108 368.968L227.916 370.613L249.197 353.617L236.291 314.966Z" fill="white" stroke="white" stroke-width="1.0392" stroke-miterlimit="10" stroke-linecap="round" stroke-linejoin="round"/>
<path d="M235.879 313.733L203.065 215.46" stroke="#3D3D3D" stroke-miterlimit="10" stroke-linecap="round" stroke-linejoin="round"/>
<path d="M226.68 207.373C210.616 208.881 192.081 207.236 178.351 196.683C177.527 195.997 179.175 173.519 179.175 169.133C179.449 151.041 179.999 132.949 182.47 114.994C184.392 101.151 185.628 87.1708 196.337 76.8912C209.106 64.6928 227.092 63.1851 240.135 75.7947C247.961 83.196 252.355 93.4756 255.376 103.892C259.632 119.243 264.163 174.068 261.966 198.876C261.829 198.876 239.586 207.785 226.68 207.373Z" stroke="white" stroke-miterlimit="10"/>
<path d="M213.225 80.4548L215.696 79.3584C219.266 77.7136 220.776 73.3277 219.129 69.7641L216.383 64.0075C214.735 60.4439 210.342 58.9363 206.772 60.581L204.3 61.6775C200.731 63.3222 199.22 67.7082 200.868 71.2717L203.614 77.0283C205.261 80.729 209.655 82.2366 213.225 80.4548Z" fill="#A3A3A2"/>
<path d="M196.886 72.3682C181.341 72.3682 168.74 59.7886 168.74 44.2707C168.74 28.7529 181.341 16.1732 196.886 16.1732C212.431 16.1732 225.032 28.7529 225.032 44.2707C225.032 59.7886 212.431 72.3682 196.886 72.3682Z" fill="#A3A3A2"/>
<path d="M213.774 64.0075C214.872 66.0634 217.069 67.7082 219.129 68.3935C222.698 69.4899 226.68 68.5305 229.563 66.2005C233.957 62.4998 235.742 56.3321 232.309 51.3979C231.348 50.0273 229.289 49.6161 228.19 50.9867C226.955 52.3573 227.916 54.8244 229.838 54.5503C237.389 53.3167 242.744 47.2861 241.508 39.4736C240.959 36.1841 237.801 32.6205 234.232 32.6205C229.701 32.6205 231.897 39.0624 236.428 35.3617C239.861 32.6205 241.783 25.6304 239.998 21.5186C237.801 16.7214 233.545 15.3508 228.74 15.8991C226.955 16.1732 225.032 16.7214 223.934 18.0921C222.561 19.5997 222.561 22.0668 225.032 21.7927C227.229 21.5186 228.328 18.0921 228.74 16.3103C229.838 11.3761 227.641 6.44187 222.561 5.07126C218.579 3.97477 214.186 4.66008 210.616 6.57893C208.831 7.53836 206.497 8.90897 206.36 11.1019C206.223 13.2949 208.694 14.3914 210.067 12.6096C211.577 10.4166 209.518 8.22366 208.694 6.03069C207.733 3.70065 205.536 2.05592 203.202 1.09649C199.77 -0.13706 195.651 0.137062 192.493 1.91886C189.609 3.70065 188.923 5.48244 187.825 8.22366C187.825 8.36072 187.687 8.49778 187.55 8.49778C187.413 8.49778 187.275 8.49778 187.275 8.36072C183.98 6.16775 181.783 6.03069 178.214 8.49778C176.291 9.8684 174.507 11.5131 173.683 13.7061C172.722 15.8991 172.722 18.5032 174.095 20.4221C175.056 21.7927 176.566 22.6151 178.214 22.7521C180.41 22.8892 182.607 21.5186 184.941 21.1074C190.296 20.285 196.337 22.478 200.456 25.9045C203.614 28.5087 204.712 32.7576 205.536 36.7324C205.811 37.9659 206.497 39.6106 207.87 39.4736C208.831 39.3365 209.38 38.24 210.067 37.5547C212.813 34.6764 217.206 37.1435 218.854 39.7477C220.364 42.3519 220.639 45.6413 219.952 48.5196C219.541 50.0273 218.991 51.3979 218.03 52.6314C215.422 55.5097 211.303 59.4845 213.774 64.0075Z" fill="white" stroke="#919191" stroke-width="0.5196" stroke-miterlimit="10" stroke-linecap="round" stroke-linejoin="round"/>
<path d="M127.001 89.0897C127.001 88.6785 127.139 88.2673 127.276 87.8561C128.237 85.9373 128.786 88.1303 129.061 89.0897C129.335 90.3232 129.885 91.2827 130.296 92.5162C130.571 93.4756 131.12 94.0239 132.081 94.4351C132.493 94.5721 133.042 94.7092 133.454 94.4351C133.866 94.1609 134.003 93.4756 133.866 93.0645C133.592 92.3792 133.042 91.6938 132.63 91.1456C131.12 88.5414 130.571 85.6632 130.846 82.6478C130.983 81.6884 130.983 80.3178 131.944 79.6325C132.768 78.9472 133.454 79.6325 133.729 80.4548C134.141 82.6478 134.827 84.8408 135.926 86.8967C136.475 87.8561 138.946 92.105 140.319 89.5009C140.731 88.6785 140.182 87.445 139.907 86.7596C139.084 84.7037 137.711 83.059 136.749 81.0031C136.063 79.7695 134.415 76.7542 136.338 75.7948C137.573 75.1095 138.809 77.0283 139.633 77.7136C140.594 78.673 141.418 79.9066 142.241 80.866C144.438 83.4702 146.36 86.2114 148.557 88.8156C149.106 89.3638 149.93 90.8715 150.891 90.5974C151.303 90.4603 151.578 90.0491 151.852 89.6379C151.99 89.6379 151.99 89.5009 152.127 89.5009C153.088 88.4044 154.324 87.582 155.422 86.7596C155.559 86.6226 155.697 86.4855 155.834 86.3485H155.971C155.971 86.3485 156.109 86.3485 156.109 86.2114C156.383 86.0743 156.52 85.9373 156.795 85.8002C157.207 85.6632 157.482 85.389 157.756 85.1149C157.756 85.1149 157.893 85.1149 157.893 84.9779C158.031 87.445 158.168 89.775 158.305 92.2421C158.443 95.3945 158.58 98.5469 158.58 101.699C158.58 102.522 158.58 103.207 158.717 104.029C159.129 105.674 160.502 106.908 160.639 108.552C160.777 110.471 158.031 111.705 156.795 112.664C155.01 114.035 152.951 115.268 150.754 115.542C148.832 115.817 146.772 115.131 144.987 114.172C143.752 113.487 142.791 112.664 141.967 111.842C141.28 111.157 140.457 110.334 139.77 109.512C138.122 107.867 136.2 106.633 134.69 104.989C134.415 104.715 134.003 104.303 133.729 104.029C132.631 102.796 131.532 101.425 130.571 99.7804C127.962 96.628 126.452 92.7903 127.001 89.0897Z" fill="#A3A3A2" stroke="#A3A3A2" stroke-width="0.5196" stroke-miterlimit="10"/>
<path d="M157.482 85.389C157.756 91.6938 158.717 97.7245 158.168 104.029" stroke="#707070" stroke-width="0.5196" stroke-miterlimit="10" stroke-linecap="round" stroke-linejoin="round"/>
<path d="M127.825 87.0338C129.473 88.6785 129.061 93.6127 131.395 94.4351C134.827 95.8057 132.356 90.0491 131.944 88.6785C131.395 87.1708 129.061 80.0436 132.081 79.9066C133.866 79.7695 135.514 87.582 136.749 88.8156C138.397 90.5974 139.77 90.7344 139.907 88.2673C140.045 86.2114 137.573 83.3331 136.749 81.5513C134.553 76.8912 135.926 73.7388 140.045 78.3989C142.104 80.5919 147.733 91.1456 151.303 90.0491" stroke="#707070" stroke-width="0.5196" stroke-miterlimit="10" stroke-linecap="round" stroke-linejoin="round"/>
<path d="M142.653 128.7L142.791 128.837L159.953 148.163C169.701 159.128 183.568 164.747 198.259 163.651C212.813 162.554 225.719 154.742 233.682 142.406L247.55 120.34C252.492 112.664 250.158 102.522 242.47 97.5875C234.781 92.6533 224.621 94.9833 219.678 102.659L205.673 124.726C203.477 128.289 199.77 130.482 195.651 130.756C191.532 131.03 187.55 129.523 184.804 126.37L167.504 106.908C161.463 100.055 151.029 99.5063 144.164 105.537C137.436 111.568 136.749 121.847 142.653 128.7Z" fill="white" stroke="#AAAAAA" stroke-width="1.0392" stroke-miterlimit="10" stroke-linecap="round" stroke-linejoin="round"/>
<path d="M49.9767 282.346H70.0223C90.8917 282.346 108.878 269.188 116.017 250.822C119.175 242.598 119.45 233.689 117.116 225.191L85.8117 112.801C78.5348 86.8967 41.7388 86.7596 34.462 112.801C21.8305 157.894 8.37521 206.414 3.02056 225.191C0.686481 233.689 0.823763 242.735 4.11893 250.822C11.1212 269.188 29.1073 282.346 49.9767 282.346Z" stroke="#A9C753" stroke-width="2" stroke-miterlimit="10" stroke-linecap="round" stroke-linejoin="round"/>
<path d="M40.2285 181.469C42.4252 190.378 50.5259 196.957 59.9995 196.957C69.4731 196.957 77.5737 190.378 79.7705 181.469" stroke="#A9C753" stroke-width="2" stroke-linecap="round" stroke-linejoin="round"/>
<path d="M45.4458 180.921C45.0339 178.042 42.4253 176.123 39.6793 176.535C36.796 176.946 34.8738 179.55 35.2857 182.291C35.6976 185.169 38.3063 187.088 41.0523 186.677C43.7983 186.403 45.7204 183.799 45.4458 180.921Z" fill="#A9C753"/>
<path d="M74.5532 180.921C74.9651 178.042 77.5737 176.123 80.3197 176.535C83.203 176.946 85.1252 179.55 84.7133 182.291C84.3014 185.169 81.6927 187.088 78.9467 186.677C76.2008 186.403 74.1413 183.799 74.5532 180.921Z" fill="#A9C753"/>
<path d="M30.0684 211.074C32.4025 225.465 45.034 236.43 59.9996 236.43C74.9651 236.43 87.5966 225.465 89.9307 211.074" stroke="#A9C753" stroke-width="2" stroke-linecap="round" stroke-linejoin="round"/>
<path d="M35.2858 210.937C35.0112 208.059 32.5398 206.003 29.6565 206.277C26.7732 206.551 24.7138 209.018 24.9884 211.896C25.2629 214.775 27.7343 216.831 30.6176 216.556C33.5009 216.145 35.5604 213.678 35.2858 210.937Z" fill="#A9C753"/>
<path d="M84.7133 210.937C84.9879 208.059 87.4593 206.003 90.3426 206.277C93.2258 206.551 95.2853 209.018 95.0107 211.896C94.7361 214.775 92.2647 216.831 89.3815 216.556C86.4982 216.145 84.4387 213.678 84.7133 210.937Z" fill="#A9C753"/>
<path d="M59.9996 155.016V354.851" stroke="#A9C753" stroke-width="2" stroke-linecap="round" stroke-linejoin="round"/>
<path d="M59.9996 160.498C57.1181 160.498 54.7822 158.167 54.7822 155.29C54.7822 152.414 57.1181 150.082 59.9996 150.082C62.881 150.082 65.2169 152.414 65.2169 155.29C65.2169 158.167 62.881 160.498 59.9996 160.498Z" fill="#A9C753"/>
<path d="M59.8622 354.44L74.2786 324.286C81.0062 310.032 101.326 310.032 108.191 324.286L136.2 382.811" stroke="#A9C753" stroke-width="2" stroke-miterlimit="10" stroke-linecap="round" stroke-linejoin="round"/>
<path d="M65.3541 364.857C68.9239 356.77 72.7682 348.82 76.7499 341.008C79.9078 334.84 82.7911 327.85 88.6949 323.738C91.5782 321.682 95.0107 320.723 98.4431 321.134C101.326 321.408 105.857 322.916 107.779 324.972" stroke="#A9C753" stroke-width="2" stroke-miterlimit="10" stroke-linecap="round" stroke-linejoin="round"/>
<path d="M71.258 376.781C75.6515 367.187 80.1824 357.455 84.576 347.861C86.3608 344.023 88.1457 340.186 90.8917 337.17C95.0107 332.647 100.777 331.551 106.406 333.47C108.054 334.018 109.564 334.977 111.075 335.8C112.173 336.485 113.409 337.033 114.507 337.718" stroke="#A9C753" stroke-width="2" stroke-miterlimit="10" stroke-linecap="round" stroke-linejoin="round"/>
<path d="M32.4025 384.73L45.5831 356.907C48.741 350.328 58.2146 350.328 61.3725 356.907L74.8278 385.141" stroke="#A9C753" stroke-width="2" stroke-miterlimit="10" stroke-linecap="round" stroke-linejoin="round"/>
<path d="M39.8166 370.202C42.9745 368.831 44.7594 370.887 45.8577 373.628C47.368 377.192 48.4664 381.03 49.0156 385.004" stroke="#A9C753" stroke-width="2" stroke-miterlimit="10" stroke-linecap="round" stroke-linejoin="round"/>
<path d="M42.8372 362.389C45.7205 362.663 48.7411 363.349 50.9379 365.131C53.2719 367.049 54.5076 369.654 55.7433 372.395C57.9401 377.192 59.725 380.619 60.2742 384.73" stroke="#A9C753" stroke-width="2" stroke-miterlimit="10" stroke-linecap="round" stroke-linejoin="round"/>
<path d="M130.708 371.298C127.688 365.679 123.157 358.415 115.88 358.552C111.761 358.689 107.917 360.608 105.033 363.486C98.9923 369.105 96.6583 376.37 93.5004 383.634" stroke="#A9C753" stroke-width="2" stroke-miterlimit="10" stroke-linecap="round" stroke-linejoin="round"/>
<path d="M32.4024 384.73H241.508" stroke="#A9C753" stroke-width="2" stroke-miterlimit="10" stroke-linecap="round" stroke-linejoin="round"/>
<path d="M262.515 383.771H305.627" stroke="#A9C753" stroke-width="2" stroke-miterlimit="10" stroke-linecap="round" stroke-linejoin="round"/>
<path d="M234.094 400.629H130.708" stroke="#A9C753" stroke-width="2" stroke-miterlimit="10" stroke-linecap="round" stroke-linejoin="round"/>
</g>
<defs>
<clipPath id="clip0_1506_737">
<rect width="307" height="402" fill="white" transform="matrix(-1 0 0 1 307 0)"/>
</clipPath>
</defs>
</svg>
