<svg width="118" height="120" viewBox="0 0 118 120" fill="none" xmlns="http://www.w3.org/2000/svg">
<path d="M15.1546 36.0313C15.5735 35.3207 16.1287 34.6906 16.8602 34.1866C21.7992 30.7966 27.2528 34.5737 31.6376 37.6037C33.4602 38.8674 35.1826 40.0553 36.669 40.642C40.2659 42.0609 42.3836 44.1276 44.2214 48.0109C45.5948 50.9246 46.2469 54.3818 46.2656 58.8851C46.2692 59.7388 46.1861 60.664 46.0951 61.6402C45.8885 63.8897 45.6743 66.2183 46.521 67.8809C47.4263 69.6614 47.9649 71.5821 48.1191 73.5879C48.3799 76.9814 47.5251 80.2739 45.6464 83.102C44.7106 84.5099 44.6729 86.2745 45.5483 87.709C46.6087 89.453 47.2271 91.3706 47.385 93.4175C48.1307 103.131 40.8336 114.934 31.769 118.68C29.8321 119.481 27.1348 119.74 25.9166 117.819C25.2883 116.825 25.356 115.624 25.4693 114.572C25.5269 114.049 25.5941 113.51 25.6622 112.96C26.0102 110.187 26.4055 107.041 25.4681 104.54C25.0486 103.419 24.4663 102.413 23.8991 101.439C22.8921 99.6983 21.8502 97.904 21.6564 95.3795C21.4985 93.3325 21.8166 91.3379 22.6021 89.4574C23.2487 87.907 22.9428 86.168 21.8031 84.9173C19.5181 82.4069 18.1701 79.2799 17.9135 75.8888C17.7592 73.883 17.9968 71.9022 18.6242 70.0064C19.0924 68.5791 18.7547 66.9884 17.732 65.8511C15.02 62.8274 13.4244 59.0812 13.1147 55.0244C12.9732 53.1764 13.3849 51.8827 13.8208 50.5197C13.9766 50.0382 14.1314 49.5394 14.2718 48.9987C14.6565 47.5054 14.4519 45.7928 14.2519 44.1385C14.1796 43.5336 14.1063 42.9115 14.0571 42.3147C13.9016 40.3583 14.0393 37.9233 15.1546 36.0313ZM44.8328 81.6761C46.2549 79.2635 46.8912 76.5213 46.6753 73.6943C46.5382 71.8767 46.0512 70.1423 45.2312 68.5289C44.1989 66.5009 44.4401 63.8431 44.6551 61.5038C44.7414 60.5638 44.8198 59.6749 44.8184 58.8836C44.7998 54.5975 44.1945 51.335 42.9148 48.6212C41.2335 45.0583 39.3984 43.2585 36.1383 41.9769C34.4968 41.3321 32.7089 40.0945 30.8144 38.7829C26.586 35.8561 21.7933 32.5355 17.6735 35.3674C15.4454 36.8985 15.346 40.3079 15.4821 42.2028C15.5228 42.7668 15.5924 43.3478 15.6664 43.9592C15.8831 45.7457 16.106 47.5973 15.6519 49.3502C15.5002 49.9288 15.3357 50.4441 15.1784 50.9471C14.7675 52.23 14.4159 53.3365 14.5379 54.9058C14.8245 58.6429 16.2984 62.0947 18.7922 64.884C20.152 66.4037 20.6051 68.5356 19.9786 70.4486C19.4132 72.1638 19.1996 73.9527 19.3367 75.7703C19.5702 78.8416 20.7907 81.6652 22.8575 83.9412C24.3507 85.584 24.7696 87.963 23.9237 90.0027C23.2278 91.6744 22.9466 93.4458 23.0838 95.2634C23.2527 97.4616 24.1654 99.0406 25.1406 100.712C25.7345 101.736 26.3477 102.793 26.8109 104.029C27.8735 106.865 27.4525 110.197 27.0844 113.136C27.0147 113.679 26.9482 114.208 26.8931 114.726C26.8028 115.569 26.7447 116.442 27.1247 117.045C27.9163 118.291 30.0689 117.823 31.2112 117.35C39.76 113.817 46.6412 102.682 45.9411 93.5238C45.804 91.7062 45.2548 90.0019 44.3119 88.4553C43.1623 86.5697 43.2153 84.1461 44.4412 82.3026C44.5778 82.0992 44.7061 81.8909 44.8328 81.6761Z" fill="#ADCB53"/>
<path d="M0.468542 19.837C0.470977 19.8329 0.473412 19.8288 0.475847 19.8246C0.686234 19.4866 1.12802 19.3796 1.46621 19.5901C13.7981 27.1935 24.1231 38.9856 29.0842 51.1283C35.4902 66.8003 37.7426 83.9539 35.5945 100.74C35.5458 101.134 35.1868 101.413 34.7882 101.361C34.3937 101.313 34.1177 100.949 34.1664 100.555C36.2802 84.0159 34.0603 67.1097 27.7499 51.6722C22.8971 39.7993 12.7889 28.263 0.706714 20.8124C0.376798 20.6068 0.271291 20.1716 0.468542 19.837Z" fill="#ADCB53"/>
<path d="M46.1608 16.7739C47.5708 14.382 51.7996 11.9985 56.9314 10.7094C60.0367 9.92925 67.8733 8.49232 73.6473 11.9906C76.1904 13.5342 78.3409 15.687 79.8627 18.2262C80.3547 19.045 80.7853 19.9112 81.1413 20.8001C81.7087 22.209 82.9878 23.2135 84.477 23.4178C86.4538 23.6924 88.3373 24.3518 90.0733 25.3751C93.0078 27.1049 95.2169 29.6875 96.4681 32.8465C97.0887 34.4202 98.5137 35.4607 100.19 35.564C102.227 35.6901 104.156 36.2817 105.925 37.3245C109.281 39.3029 112.688 44.0775 114.758 47.8867C115.793 49.788 119.032 56.2065 117.364 59.0363C114.552 63.8077 98.4745 62.8696 92.8286 59.5415C91.0596 58.4987 89.6078 57.0974 88.5113 55.3767C87.609 53.9597 86.0086 53.2167 84.3311 53.4358C80.9614 53.8709 77.632 53.1886 74.6975 51.4588C72.9616 50.4355 71.4766 49.1093 70.275 47.5103C69.3727 46.3104 67.8703 45.6752 66.3563 45.8627C62.3247 46.3529 58.3434 45.5202 54.8343 43.4517C45.8505 38.1615 42.2134 23.4704 46.1608 16.7739ZM78.6312 18.9643C77.2287 16.629 75.2497 14.6386 72.9043 13.2226C69.2195 10.9892 63.3814 10.576 57.2823 12.1076C52.575 13.2906 48.6062 15.4599 47.3984 17.509C43.8016 23.6106 47.4177 37.4209 55.5641 42.223C58.7963 44.1283 62.4661 44.8944 66.1788 44.4444C68.2023 44.1955 70.2125 45.0464 71.4241 46.6569C72.5093 48.1037 73.8567 49.3043 75.4232 50.2277C78.0767 51.7919 81.092 52.4115 84.1387 52.0143C86.3389 51.7303 88.529 52.7485 89.7212 54.6092C90.6976 56.1367 91.9861 57.3805 93.5567 58.3063C99.5043 61.8123 114.057 61.8126 116.122 58.3095C117.861 55.3599 111.123 42.0642 105.192 38.568C103.621 37.6421 101.905 37.1147 100.1 37.0025C97.8964 36.8669 95.9409 35.4414 95.1263 33.3748C93.9985 30.5168 91.9962 28.1786 89.3427 26.6144C87.7721 25.6886 86.0692 25.0911 84.2819 24.8447C82.2837 24.5686 80.5699 23.2244 79.8094 21.3399C79.4853 20.5198 79.0865 19.7225 78.6312 18.9643Z" fill="#ADCB53"/>
<path d="M19.4206 1.30091C19.6227 0.958027 20.0628 0.844484 20.4059 1.04671L103.743 50.172C104.086 50.3742 104.2 50.8142 103.997 51.1571C103.795 51.5 103.355 51.6135 103.012 51.4113L19.6753 2.28603C19.3323 2.08381 19.2185 1.64379 19.4206 1.30091Z" fill="#ADCB53"/>
</svg>
