<svg width="119" height="120" viewBox="0 0 119 120" fill="none" xmlns="http://www.w3.org/2000/svg">
<path d="M103.517 36.0313C103.099 35.3207 102.543 34.6906 101.812 34.1866C96.8729 30.7966 91.4192 34.5737 87.0345 37.6037C85.2119 38.8674 83.4895 40.0553 82.0031 40.642C78.4062 42.0609 76.2884 44.1276 74.4507 48.0109C73.0773 50.9246 72.4252 54.3818 72.4065 58.8851C72.4029 59.7388 72.486 60.664 72.577 61.6402C72.7836 63.8897 72.9978 66.2183 72.1511 67.8809C71.2458 69.6614 70.7072 71.5821 70.5529 73.5879C70.2921 76.9814 71.147 80.2739 73.0257 83.102C73.9614 84.5099 73.9992 86.2745 73.1238 87.709C72.0634 89.453 71.445 91.3706 71.2871 93.4175C70.5414 103.131 77.8385 114.934 86.9031 118.68C88.84 119.481 91.5373 119.74 92.7555 117.819C93.3838 116.825 93.3161 115.624 93.2027 114.572C93.1452 114.049 93.0779 113.51 93.0099 112.96C92.6619 110.187 92.2666 107.041 93.2039 104.54C93.6234 103.419 94.2057 102.413 94.773 101.439C95.7799 99.6983 96.8219 97.904 97.0157 95.3795C97.1736 93.3325 96.8555 91.3379 96.07 89.4574C95.4234 87.907 95.7293 86.168 96.8689 84.9173C99.154 82.4069 100.502 79.2799 100.759 75.8888C100.913 73.883 100.675 71.9022 100.048 70.0064C99.5796 68.5791 99.9173 66.9884 100.94 65.8511C103.652 62.8274 105.248 59.0812 105.557 55.0244C105.699 53.1764 105.287 51.8827 104.851 50.5197C104.696 50.0382 104.541 49.5394 104.4 48.9987C104.016 47.5054 104.22 45.7928 104.42 44.1385C104.492 43.5336 104.566 42.9115 104.615 42.3147C104.77 40.3583 104.633 37.9233 103.517 36.0313ZM73.8393 81.6761C72.4172 79.2635 71.7809 76.5213 71.9968 73.6943C72.1339 71.8767 72.6209 70.1423 73.4409 68.5289C74.4732 66.5009 74.232 63.8431 74.017 61.5038C73.9307 60.5638 73.8523 59.6749 73.8536 58.8836C73.8723 54.5975 74.4776 51.335 75.7572 48.6212C77.4386 45.0583 79.2737 43.2585 82.5338 41.9769C84.1753 41.3321 85.9632 40.0945 87.8577 38.7829C92.0861 35.8561 96.8788 32.5355 100.999 35.3674C103.227 36.8985 103.326 40.3079 103.19 42.2028C103.149 42.7668 103.08 43.3478 103.006 43.9592C102.789 45.7457 102.566 47.5973 103.02 49.3502C103.172 49.9288 103.336 50.4441 103.494 50.9471C103.905 52.23 104.256 53.3365 104.134 54.9058C103.848 58.6429 102.374 62.0947 99.8799 64.884C98.5201 66.4037 98.067 68.5356 98.6934 70.4486C99.2589 72.1638 99.4725 73.9527 99.3354 75.7703C99.1019 78.8416 97.8814 81.6652 95.8146 83.9412C94.3214 85.584 93.9025 87.963 94.7484 90.0027C95.4442 91.6744 95.7254 93.4458 95.5883 95.2634C95.4194 97.4616 94.5067 99.0406 93.5315 100.712C92.9376 101.736 92.3244 102.793 91.8612 104.029C90.7986 106.865 91.2195 110.197 91.5877 113.136C91.6574 113.679 91.7239 114.208 91.779 114.726C91.8693 115.569 91.9273 116.442 91.5474 117.045C90.7558 118.291 88.6032 117.823 87.4609 117.35C78.9121 113.817 72.0308 102.682 72.731 93.5238C72.8681 91.7062 73.4173 90.0019 74.3602 88.4553C75.5098 86.5697 75.4568 84.1461 74.2309 82.3026C74.0943 82.0992 73.9659 81.8909 73.8393 81.6761Z" fill="#ADCB53"/>
<path d="M118.204 19.837C118.201 19.8329 118.199 19.8288 118.196 19.8246C117.986 19.4866 117.544 19.3796 117.206 19.5901C104.874 27.1935 94.549 38.9856 89.5879 51.1283C83.1819 66.8003 80.9295 83.9539 83.0776 100.74C83.1263 101.134 83.4852 101.413 83.8839 101.361C84.2783 101.313 84.5544 100.949 84.5057 100.555C82.3918 84.0159 84.6118 67.1097 90.9222 51.6722C95.775 39.7993 105.883 28.263 117.965 20.8124C118.295 20.6068 118.401 20.1716 118.204 19.837Z" fill="#ADCB53"/>
<path d="M72.5112 16.7739C71.1013 14.382 66.8725 11.9985 61.7407 10.7094C58.6354 9.92925 50.7988 8.49232 45.0248 11.9906C42.4817 13.5342 40.3312 15.687 38.8094 18.2262C38.3174 19.045 37.8868 19.9112 37.5308 20.8001C36.9634 22.209 35.6842 23.2135 34.1951 23.4178C32.2183 23.6924 30.3347 24.3518 28.5988 25.3751C25.6643 27.1049 23.4551 29.6875 22.204 32.8465C21.5834 34.4202 20.1584 35.4607 18.4816 35.564C16.4452 35.6901 14.5161 36.2817 12.7471 37.3245C9.39093 39.3029 5.98446 44.0775 3.91362 47.8867C2.87905 49.788 -0.360353 56.2065 1.30775 59.0363C4.12039 63.8077 20.1976 62.8696 25.8435 59.5415C27.6125 58.4987 29.0643 57.0974 30.1608 55.3767C31.0631 53.9597 32.6635 53.2167 34.341 53.4358C37.7107 53.8709 41.04 53.1886 43.9746 51.4588C45.7105 50.4355 47.1955 49.1093 48.3971 47.5103C49.2994 46.3104 50.8018 45.6752 52.3158 45.8627C56.3474 46.3529 60.3287 45.5202 63.8378 43.4517C72.8216 38.1615 76.4587 23.4704 72.5112 16.7739ZM40.0409 18.9643C41.4434 16.629 43.4223 14.6386 45.7678 13.2226C49.4526 10.9892 55.2907 10.576 61.3897 12.1076C66.097 13.2906 70.0659 15.4599 71.2737 17.509C74.8705 23.6106 71.2544 37.4209 63.1079 42.223C59.8758 44.1283 56.206 44.8944 52.4933 44.4444C50.4697 44.1955 48.4596 45.0464 47.248 46.6569C46.1628 48.1037 44.8154 49.3043 43.2489 50.2277C40.5954 51.7919 37.5801 52.4115 34.5334 52.0143C32.3332 51.7303 30.1431 52.7485 28.9509 54.6092C27.9744 56.1367 26.686 57.3805 25.1154 58.3063C19.1678 61.8123 4.61517 61.8126 2.55013 58.3095C0.811406 55.3599 7.54896 42.0642 13.4801 38.568C15.0507 37.6421 16.767 37.1147 18.5721 37.0025C20.7757 36.8669 22.7312 35.4414 23.5458 33.3748C24.6736 30.5168 26.6759 28.1786 29.3294 26.6144C30.9 25.6886 32.6029 25.0911 34.3902 24.8447C36.3884 24.5686 38.1022 23.2244 38.8626 21.3399C39.1868 20.5198 39.5856 19.7225 40.0409 18.9643Z" fill="#ADCB53"/>
<path d="M99.2515 1.30091C99.0494 0.958027 98.6093 0.844484 98.2662 1.04671L14.9293 50.172C14.5862 50.3742 14.4725 50.8142 14.6746 51.1571C14.8767 51.5 15.3168 51.6135 15.6598 51.4113L98.9968 2.28603C99.3398 2.08381 99.4536 1.64379 99.2515 1.30091Z" fill="#ADCB53"/>
</svg>
