<svg width="444" height="603" viewBox="0 0 444 603" fill="none" xmlns="http://www.w3.org/2000/svg">
<path d="M333.547 535.977C334.473 535.977 335.226 535.06 335.226 533.932V46.4208C335.226 45.2927 334.473 44.3751 333.547 44.3751C332.622 44.3751 331.869 45.2927 331.869 46.4208V533.932C331.869 535.06 332.617 535.977 333.547 535.977Z" fill="#1A3C5B"/>
<path d="M362.339 89.465H405.426C414.983 89.465 422.805 97.2902 422.805 106.852C422.805 107.006 422.786 107.155 422.781 107.308C422.79 107.462 422.805 107.61 422.805 107.764V129.589C422.805 134.104 419.625 138.139 415.166 138.835C409.545 139.713 404.654 135.332 404.654 129.867V128.798C404.654 126.283 402.616 124.249 400.108 124.249C397.595 124.249 395.562 126.288 395.562 128.798V144.151C395.562 149.145 391.476 153.228 386.484 153.228C381.492 153.228 377.411 149.14 377.411 144.151V128.798C377.411 126.283 375.373 124.249 372.865 124.249H362.344C352.787 124.249 344.965 116.424 344.965 106.862C344.961 97.2903 352.782 89.465 362.339 89.465Z" fill="#1A3C5B"/>
<path d="M383.535 74.0784H426.621C435.733 74.0784 443.247 81.1888 443.933 90.1319C443.971 90.4294 444 90.7269 444 91.0339V91.4657V119.615C444 123.021 441.569 126.068 438.198 126.514C434.112 127.056 430.592 123.851 430.592 119.864V112.653C430.592 110.503 428.813 108.843 426.665 108.848C426.65 108.848 426.636 108.848 426.621 108.848H383.535C373.977 108.848 366.156 101.023 366.156 91.4609C366.156 81.9037 373.977 74.0784 383.535 74.0784Z" fill="#ADCB53"/>
<path d="M333.548 176.689H341.211C360.939 176.689 376.989 160.631 376.989 140.893V125.559C376.989 124.633 376.236 123.88 375.311 123.88C374.385 123.88 373.632 124.633 373.632 125.559V140.893C373.632 158.779 359.088 173.331 341.211 173.331H333.548C332.622 173.331 331.869 174.084 331.869 175.01C331.869 175.936 332.617 176.689 333.548 176.689Z" fill="#1A3C5B"/>
<path d="M370.726 164.33H378.389C390.445 164.33 410.619 164.33 413.803 139.012C413.918 138.091 413.266 137.251 412.345 137.136C411.425 137.021 410.586 137.674 410.47 138.595C409.243 148.368 405.248 154.711 398.266 157.992C392.401 160.746 385.515 160.977 378.389 160.977H370.726C369.8 160.977 369.048 161.73 369.048 162.656C369.048 163.582 369.796 164.33 370.726 164.33Z" fill="#1A3C5B"/>
<path d="M291.079 128.889H298.742C299.668 128.889 300.421 128.135 300.421 127.21C300.421 126.284 299.668 125.53 298.742 125.53H291.079C283.953 125.53 277.067 125.3 271.202 122.546C264.22 119.264 260.226 112.922 258.998 103.148C258.883 102.227 258.044 101.575 257.123 101.69C256.202 101.805 255.55 102.645 255.665 103.566C258.849 128.889 279.024 128.889 291.079 128.889Z" fill="#1A3C5B"/>
<path d="M333.523 107.155C334.176 107.155 334.799 106.771 335.067 106.133C335.432 105.279 335.034 104.295 334.18 103.93C322.129 98.8064 314.342 87.0805 314.342 74.0496V58.7158C314.342 57.7898 313.589 57.0365 312.663 57.0365C311.738 57.0365 310.985 57.7898 310.985 58.7158V74.0496C310.985 88.4287 319.573 101.373 332.866 107.02C333.082 107.111 333.303 107.155 333.523 107.155Z" fill="#1A3C5B"/>
<path d="M325.884 141.713H333.547C334.473 141.713 335.226 140.96 335.226 140.034C335.226 139.108 334.473 138.355 333.547 138.355H325.884C308.007 138.355 293.462 123.803 293.462 105.917V90.583C293.462 89.657 292.709 88.9037 291.784 88.9037C290.858 88.9037 290.105 89.657 290.105 90.583V105.917C290.101 125.655 306.151 141.713 325.884 141.713Z" fill="#1A3C5B"/>
<path d="M267.979 70.4417H246.438C236.881 70.4417 229.059 78.2669 229.059 87.829C229.059 87.9825 229.078 88.1313 229.083 88.2848C229.074 88.4383 229.059 88.587 229.059 88.7406V110.566C229.059 115.081 232.239 119.116 236.698 119.811C242.319 120.689 247.21 116.309 247.21 110.844V109.774C247.21 107.26 249.248 105.226 251.756 105.226C254.269 105.226 267.979 105.226 267.979 105.226C277.536 105.226 285.358 97.4006 285.358 87.8386C285.362 78.2669 277.541 70.4417 267.979 70.4417Z" fill="#1A3C5B"/>
<path d="M378.49 79.7494H401.426C405.699 79.7494 409.19 76.2518 409.19 71.9817V69.0887C409.19 64.8138 405.694 61.321 401.426 61.321H378.49C374.217 61.321 370.726 64.8186 370.726 69.0887V71.9817C370.721 76.2566 374.217 79.7494 378.49 79.7494Z" fill="#ADCB53"/>
<path d="M284.71 58.7158H335.724C341.593 58.7158 346.394 53.9131 346.394 48.0406V44.068C346.394 38.1955 341.593 33.3929 335.724 33.3929H284.71C278.84 33.3929 274.04 38.1955 274.04 44.068V48.0406C274.04 53.9131 278.845 58.7158 284.71 58.7158Z" fill="#1A3C5B"/>
<path d="M289.879 9.49489H298.046V7.69571C298.046 3.46403 301.508 0 305.738 0H346.734C350.963 0 354.426 3.46403 354.426 7.69571V9.49489H360.142C369.45 9.49489 377.065 17.1138 377.065 26.4264V32.726C377.065 42.0385 369.45 49.6575 360.142 49.6575H289.879C280.571 49.6575 272.956 42.0385 272.956 32.726V26.4264C272.961 17.1138 280.576 9.49489 289.879 9.49489Z" fill="#ADCB53"/>
<path d="M242.98 96.8201C242.98 88.0977 250.111 80.9633 258.829 80.9633H288.969C297.687 80.9633 304.817 88.0977 304.817 96.8201C304.817 105.543 297.687 112.677 288.969 112.677H258.829C258.772 112.677 258.709 112.677 258.652 112.677C257.041 112.658 255.616 113.56 254.84 114.97C253.617 117.192 251.099 118.612 248.318 118.185C245.196 117.705 242.976 114.874 242.976 111.717V99.9147C242.976 99.4973 243.019 99.0895 243.096 98.6912C243.033 98.0771 242.98 97.4534 242.98 96.8201Z" fill="#ADCB53"/>
<path d="M412.072 26.2441C415.237 26.2441 417.817 23.6677 417.817 20.4963C417.817 17.3297 415.242 14.7485 412.072 14.7485C408.902 14.7485 406.327 17.3249 406.327 20.4963C406.327 23.6677 408.902 26.2441 412.072 26.2441ZM412.072 18.0878C413.4 18.0878 414.479 19.1673 414.479 20.4963C414.479 21.8253 413.4 22.9048 412.072 22.9048C410.744 22.9048 409.665 21.8253 409.665 20.4963C409.66 19.1673 410.744 18.0878 412.072 18.0878Z" fill="#ADCB53"/>
<path d="M244.233 40.8966C250.568 40.8966 255.718 35.739 255.718 29.4059C255.718 23.0727 250.563 17.9151 244.233 17.9151C237.903 17.9151 232.748 23.0727 232.748 29.4059C232.748 35.739 237.903 40.8966 244.233 40.8966ZM244.233 24.584C246.889 24.584 249.052 26.7479 249.052 29.4059C249.052 32.0639 246.889 34.2277 244.233 34.2277C241.576 34.2277 239.413 32.0639 239.413 29.4059C239.418 26.7479 241.576 24.584 244.233 24.584Z" fill="#ADCB53"/>
<path d="M197.314 497.679C198.139 497.679 198.964 497.52 199.77 497.146C205.198 494.613 204.714 487.997 204.33 482.681C204.167 480.469 204.018 478.382 204.268 476.803C204.872 472.984 204.167 470.11 201.755 466.555C199.942 463.892 197.295 461.575 193.425 459.272C192.692 458.835 191.852 458.437 190.965 458.02C188.922 457.055 186.808 456.058 185.805 454.484C184.731 452.8 183.35 451.36 181.7 450.209C178.91 448.261 175.639 447.325 172.249 447.508C170.561 447.599 169.021 446.735 168.23 445.253C167.266 443.454 165.928 441.947 164.245 440.772C156.256 435.197 142.383 435.489 134.552 441.395C132.878 442.657 131.286 444.85 132.322 446.874C132.859 447.92 133.928 448.472 134.892 448.909C135.372 449.125 135.871 449.341 136.379 449.561C138.944 450.67 141.855 451.927 143.534 454.004C144.287 454.935 144.857 455.947 145.409 456.931C146.397 458.682 147.413 460.491 149.49 461.94C151.173 463.115 153.053 463.854 155.071 464.132C156.735 464.363 158.078 465.509 158.577 467.126C159.579 470.369 161.588 473.119 164.379 475.062C166.029 476.213 167.856 477.014 169.808 477.437C171.275 477.758 172.474 478.857 172.934 480.315C174.162 484.187 176.579 487.464 179.917 489.791C181.437 490.851 182.76 491.154 184.156 491.47C184.65 491.581 185.158 491.701 185.695 491.854C187.177 492.281 188.548 493.327 189.872 494.339C190.356 494.709 190.855 495.088 191.344 495.433C192.951 496.561 195.118 497.679 197.314 497.679ZM173.064 448.933C175.864 448.933 178.55 449.777 180.876 451.399C182.372 452.44 183.619 453.74 184.592 455.266C185.815 457.185 188.227 458.327 190.351 459.33C191.205 459.733 192.011 460.116 192.692 460.519C196.374 462.712 198.878 464.89 200.566 467.371C202.781 470.629 203.4 473.123 202.848 476.583C202.57 478.324 202.728 480.493 202.896 482.791C203.27 487.92 203.697 493.735 199.165 495.846C196.715 496.988 193.727 495.342 192.164 494.263C191.699 493.941 191.234 493.586 190.745 493.212C189.316 492.118 187.834 490.986 186.093 490.487C185.518 490.324 184.99 490.204 184.477 490.084C183.163 489.786 182.031 489.527 180.741 488.625C177.668 486.481 175.442 483.458 174.306 479.893C173.687 477.95 172.081 476.477 170.115 476.045C168.35 475.661 166.7 474.937 165.204 473.896C162.677 472.135 160.864 469.65 159.953 466.714C159.296 464.593 157.46 463.024 155.273 462.717C153.479 462.467 151.811 461.81 150.314 460.769C148.507 459.507 147.61 457.919 146.665 456.23C146.085 455.199 145.485 454.134 144.656 453.107C142.752 450.751 139.669 449.422 136.95 448.247C136.446 448.031 135.957 447.82 135.482 447.604C134.71 447.254 133.928 446.86 133.602 446.227C132.931 444.912 134.427 443.295 135.415 442.552C142.8 436.981 155.887 436.708 163.42 441.962C164.916 443.003 166.106 444.341 166.959 445.939C168 447.887 170.115 449.072 172.325 448.952C172.57 448.938 172.815 448.933 173.064 448.933Z" fill="#ADCB53"/>
<path d="M203.807 518.554C203.812 518.554 203.817 518.554 203.822 518.554C204.22 518.544 204.536 518.218 204.527 517.82C204.239 503.335 199.324 488.452 191.382 478.012C181.135 464.535 167.501 453.884 151.95 447.21C151.585 447.052 151.163 447.22 151.005 447.589C150.847 447.954 151.019 448.376 151.384 448.535C166.705 455.112 180.142 465.61 190.236 478.886C198 489.095 202.805 503.661 203.088 517.853C203.098 518.242 203.419 518.554 203.807 518.554Z" fill="#ADCB53"/>
<path d="M229.649 480.747C232.426 480.747 236.627 478.315 240.343 474.548C242.592 472.269 247.81 466.248 247.728 459.497C247.69 456.523 246.927 453.577 245.513 450.977C245.057 450.137 244.53 449.326 243.944 448.568C243.019 447.364 242.803 445.752 243.383 444.365C244.151 442.523 244.539 440.565 244.539 438.55C244.539 435.144 243.436 431.929 241.35 429.247C240.31 427.913 240.137 426.157 240.899 424.66C241.825 422.842 242.295 420.88 242.295 418.826C242.295 414.93 239.912 409.571 237.682 405.853C236.569 403.996 232.685 397.946 229.4 397.946C223.861 397.946 216.505 412.272 216.505 418.826C216.505 420.88 216.975 422.842 217.901 424.66C218.663 426.157 218.49 427.913 217.45 429.247C215.364 431.929 214.261 435.144 214.261 438.55C214.261 440.565 214.649 442.518 215.417 444.365C215.992 445.752 215.776 447.369 214.846 448.578C212.376 451.802 211.072 455.654 211.072 459.728C211.067 470.153 221.876 480.747 229.649 480.747ZM244.251 451.663C245.551 454.057 246.261 456.772 246.289 459.512C246.342 463.82 243.733 469.06 239.317 473.536C235.907 476.99 232.023 479.308 229.645 479.308C222.562 479.308 212.501 469.179 212.501 459.723C212.501 455.971 213.705 452.421 215.978 449.451C217.22 447.834 217.507 445.67 216.735 443.809C216.04 442.139 215.69 440.369 215.69 438.55C215.69 435.47 216.687 432.558 218.577 430.135C219.939 428.384 220.174 425.98 219.176 424.008C218.356 422.391 217.939 420.649 217.939 418.826C217.939 411.922 225.329 399.386 229.395 399.386C232.819 399.386 240.851 411.941 240.851 418.826C240.851 420.649 240.434 422.396 239.614 424.008C238.612 425.975 238.847 428.384 240.214 430.135C242.103 432.558 243.1 435.47 243.1 438.55C243.1 440.373 242.75 442.144 242.055 443.809C241.278 445.67 241.566 447.829 242.803 449.441C243.345 450.137 243.829 450.885 244.251 451.663Z" fill="#ADCB53"/>
<path d="M229.4 511.64C229.798 511.64 230.119 511.319 230.119 510.921V414.182C230.119 413.784 229.798 413.462 229.4 413.462C229.002 413.462 228.68 413.784 228.68 414.182V510.921C228.68 511.319 229.002 511.64 229.4 511.64Z" fill="#ADCB53"/>
<path d="M154.404 550.627C155.071 551.486 156.15 552.1 157.219 552.57C160.231 553.885 163.544 554.489 166.829 555.051C178.453 557.042 190.744 558.568 201.893 554.993C204.819 554.053 210.233 552.004 210.18 548.847C210.117 545.417 207.667 541.08 206.329 537.927C204.459 533.523 202.296 529.205 199.726 525.098C195.923 519.024 189.617 509.966 180.769 509.966C171.955 509.966 165.664 518.962 161.866 525.016C159.324 529.066 157.181 533.321 155.325 537.664C153.973 540.825 151.93 547.427 154.404 550.627Z" fill="#C8D3DD"/>
<path d="M263.39 552.95C263.817 553.501 264.512 553.9 265.203 554.202C267.14 555.046 269.279 555.44 271.394 555.799C278.879 557.081 286.792 558.064 293.975 555.761C295.86 555.157 299.346 553.837 299.313 551.803C299.274 549.596 297.692 546.799 296.834 544.769C295.63 541.934 294.239 539.151 292.58 536.507C290.13 532.592 286.068 526.763 280.371 526.763C274.693 526.763 270.641 532.559 268.195 536.455C266.56 539.065 265.179 541.804 263.985 544.601C263.112 546.636 261.798 550.887 263.39 552.95Z" fill="#C8D3DD"/>
<path d="M374.562 433.939C398.453 433.939 417.894 414.494 417.894 390.586V354.108C417.894 348.692 413.506 344.302 408.092 344.302C402.678 344.302 398.29 348.692 398.29 354.108V390.586C398.29 403.68 387.644 414.326 374.562 414.326C369.148 414.326 364.76 418.716 364.76 424.133C364.76 429.549 369.148 433.939 374.562 433.939Z" fill="#ADCB53"/>
<path d="M374.562 504.827C379.976 504.827 384.364 500.437 384.364 495.021V308.193C384.364 302.776 379.976 298.386 374.562 298.386C369.148 298.386 364.76 302.776 364.76 308.193V495.021C364.76 500.437 369.148 504.827 374.562 504.827Z" fill="#ADCB53"/>
<path d="M374.562 424.756C393.394 424.756 408.71 409.427 408.71 390.591V358.546C408.71 358.206 408.432 357.927 408.092 357.927C407.751 357.927 407.473 358.206 407.473 358.546V390.591C407.473 408.746 392.708 423.519 374.562 423.519C374.222 423.519 373.944 423.797 373.944 424.137C373.944 424.478 374.217 424.756 374.562 424.756Z" fill="#11283C"/>
<path d="M412.758 358.777C412.758 356.195 410.667 354.104 408.088 354.104C405.508 354.104 403.422 356.195 403.422 358.777C403.422 361.358 405.512 363.445 408.088 363.445C410.667 363.45 412.758 361.358 412.758 358.777Z" fill="#11283C"/>
<path d="M374.562 478.204C374.902 478.204 375.18 477.926 375.18 477.585V312.631C375.18 312.291 374.902 312.012 374.562 312.012C374.221 312.012 373.943 312.291 373.943 312.631V477.585C373.938 477.926 374.216 478.204 374.562 478.204Z" fill="#11283C"/>
<path d="M370.025 313.953C369.432 311.441 370.987 308.924 373.497 308.331C376.008 307.738 378.523 309.293 379.116 311.805C379.709 314.317 378.154 316.834 375.644 317.427C373.134 318.02 370.618 316.465 370.025 313.953Z" fill="#11283C"/>
<path d="M347.454 542.035C349.986 533.49 352.792 525.069 355.861 516.808C361.356 502.011 367.384 478.631 381.382 473.128C394.977 467.783 405.1 486.034 410.552 498.221C416.94 512.499 422.493 527.363 427.145 542.668C430.199 552.719 434.117 574.334 434.865 584.822" fill="#11283C"/>
<path d="M434.864 585.613C434.884 585.613 434.903 585.613 434.922 585.613C435.358 585.579 435.689 585.2 435.66 584.764C434.893 574.065 430.908 552.307 427.906 542.433C423.264 527.161 417.668 512.178 411.276 497.894C401.838 476.798 391.682 468.22 381.088 472.384C368.812 477.211 362.588 495.14 357.591 509.544C356.733 512.019 355.917 514.361 355.112 516.529C352.047 524.786 349.213 533.288 346.686 541.809C346.561 542.231 346.801 542.673 347.223 542.797C347.645 542.922 348.086 542.682 348.211 542.26C350.724 533.773 353.548 525.304 356.603 517.081C357.413 514.898 358.229 512.547 359.092 510.062C363.983 495.966 370.073 478.42 381.669 473.862C391.327 470.062 400.798 478.367 409.823 498.542C416.186 512.763 421.758 527.689 426.381 542.893C429.359 552.686 433.311 574.261 434.073 584.874C434.102 585.292 434.452 585.613 434.864 585.613Z" fill="#C8D3DD"/>
<path d="M396.832 585.853C397.274 585.853 397.628 585.498 397.628 585.057V507.001C397.628 506.559 397.274 506.204 396.832 506.204C396.391 506.204 396.036 506.559 396.036 507.001V585.057C396.036 585.498 396.391 585.853 396.832 585.853Z" fill="#C8D3DD"/>
<path d="M392.052 507.241C392.052 504.597 394.196 502.452 396.833 502.452C399.471 502.452 401.614 504.597 401.614 507.241C401.614 509.884 399.471 512.024 396.833 512.024C394.196 512.024 392.052 509.884 392.052 507.241Z" fill="#C8D3DD"/>
<path d="M374.212 586.333C374.654 586.333 375.008 585.978 375.008 585.536V539.228C375.008 538.786 374.654 538.431 374.212 538.431C373.771 538.431 373.416 538.786 373.416 539.228V585.536C373.416 585.978 373.776 586.333 374.212 586.333Z" fill="#C8D3DD"/>
<path d="M369.431 539.463C369.431 536.819 371.575 534.675 374.212 534.675C376.854 534.675 378.998 536.819 378.998 539.463C378.998 542.106 376.854 544.246 374.212 544.246C371.57 544.251 369.431 542.106 369.431 539.463Z" fill="#C8D3DD"/>
<path d="M385.697 585.853C386.139 585.853 386.494 585.498 386.494 585.057V523.87C386.494 523.429 386.139 523.073 385.697 523.073C385.256 523.073 384.901 523.429 384.901 523.87V585.057C384.906 585.498 385.261 585.853 385.697 585.853Z" fill="#C8D3DD"/>
<path d="M380.916 524.11C380.916 521.466 383.06 519.322 385.697 519.322C388.335 519.322 390.483 521.466 390.483 524.11C390.483 526.754 388.339 528.893 385.697 528.893C383.055 528.893 380.916 526.754 380.916 524.11Z" fill="#C8D3DD"/>
<path d="M184.266 568.595C185.292 563.423 188.045 557.56 189.378 553.688C191.91 546.314 194.715 539.05 197.784 531.916C203.28 519.149 209.307 498.969 223.305 494.219C236.9 489.604 247.023 505.36 252.476 515.877C257.482 525.53 261.966 535.5 265.913 545.709C265.352 545.633 264.766 545.642 264.186 545.748C253.267 547.787 244.079 556.015 237.572 564.599C231.726 572.304 227.357 581.808 227.679 591.577C212.496 591.514 189.546 588.693 184.414 575.485C183.671 573.585 183.753 571.176 184.266 568.595Z" fill="#1A3C5B"/>
<path d="M294.905 510.388C311.507 510.388 325.016 496.873 325.016 480.262C325.016 474.361 321.174 460.894 302.866 430.231C301.173 427.4 298.2 425.706 294.905 425.706C291.611 425.706 288.638 427.395 286.945 430.231C268.636 460.894 264.795 474.361 264.795 480.262C264.795 496.873 278.303 510.388 294.905 510.388ZM294.905 427.299C297.634 427.299 300.099 428.7 301.499 431.046C309.689 444.759 323.428 469.391 323.428 480.262C323.428 495.999 310.634 508.8 294.905 508.8C279.176 508.8 266.382 495.999 266.382 480.262C266.382 469.395 280.121 444.763 288.311 431.046C289.712 428.7 292.177 427.299 294.905 427.299Z" fill="#C8D3DD"/>
<path d="M294.901 473.349C300.785 473.349 305.892 469.156 307.048 463.379C307.134 462.947 306.856 462.53 306.424 462.443C305.993 462.357 305.576 462.635 305.489 463.067C304.482 468.105 300.032 471.761 294.901 471.761C289.775 471.761 285.32 468.105 284.313 463.067C284.226 462.635 283.809 462.357 283.378 462.443C282.946 462.53 282.668 462.947 282.754 463.379C283.91 469.156 289.017 473.349 294.901 473.349Z" fill="#C8D3DD"/>
<path d="M285.938 463.086C285.799 461.772 284.624 460.817 283.31 460.956C281.996 461.095 281.042 462.271 281.181 463.585C281.32 464.9 282.495 465.855 283.809 465.716C285.123 465.581 286.077 464.401 285.938 463.086Z" fill="#C8D3DD"/>
<path d="M303.864 463.086C304.003 461.772 305.178 460.817 306.492 460.956C307.806 461.095 308.76 462.271 308.621 463.585C308.482 464.9 307.307 465.855 305.993 465.716C304.68 465.581 303.725 464.401 303.864 463.086Z" fill="#C8D3DD"/>
<path d="M294.902 494.819C303.903 494.819 311.585 488.088 312.769 479.159C312.827 478.722 312.52 478.324 312.088 478.267C311.652 478.209 311.254 478.516 311.197 478.948C310.113 487.09 303.107 493.226 294.902 493.226C286.697 493.226 279.691 487.09 278.607 478.948C278.549 478.511 278.151 478.204 277.715 478.267C277.279 478.324 276.972 478.722 277.034 479.159C278.218 488.083 285.901 494.819 294.902 494.819Z" fill="#C8D3DD"/>
<path d="M280.242 478.981C280.141 477.662 278.99 476.678 277.671 476.784C276.352 476.885 275.369 478.036 275.475 479.356C275.576 480.675 276.726 481.659 278.045 481.553C279.359 481.452 280.342 480.301 280.242 478.981Z" fill="#C8D3DD"/>
<path d="M309.561 478.981C309.661 477.662 310.812 476.678 312.131 476.784C313.45 476.885 314.433 478.036 314.327 479.356C314.227 480.675 313.076 481.659 311.757 481.553C310.443 481.452 309.46 480.301 309.561 478.981Z" fill="#C8D3DD"/>
<path d="M294.896 543.445C295.337 543.445 295.692 543.09 295.692 542.649V450.348C295.692 449.907 295.337 449.552 294.896 449.552C294.455 449.552 294.1 449.907 294.1 450.348V542.649C294.1 543.09 294.455 543.445 294.896 543.445Z" fill="#C8D3DD"/>
<path d="M297.289 450.468C297.289 449.149 296.22 448.074 294.896 448.074C293.577 448.074 292.503 449.144 292.503 450.468C292.503 451.787 293.573 452.862 294.896 452.862C296.215 452.862 297.289 451.787 297.289 450.468Z" fill="#C8D3DD"/>
<path d="M295.648 537.841C298.645 530.836 301.59 525.631 308.088 520.022C310.332 518.084 312.634 516.112 315.501 514.893C320.474 512.782 326.07 513.876 330.036 516.889C337.651 522.67 342.149 530.899 345.578 538.868C347.904 544.27 353.155 553.396 351.534 559.858C345.406 552.369 335.757 547.01 326.205 551.28C320.278 553.928 313.914 559.297 311.085 565.621C310.859 565.86 310.658 566.12 310.5 566.412C309.828 567.636 309.21 568.893 308.644 570.169C299.844 569.037 290.791 566.527 287.741 561.715C287.055 560.636 286.681 559.503 286.551 558.333C285.784 551.486 293.279 543.378 295.648 537.841Z" fill="#1A3C5B"/>
<path d="M304.655 570.86C305.024 570.86 305.34 570.577 305.369 570.202C306.012 562.646 303.768 554.931 299.058 548.483C297.754 546.698 295.083 544.788 291.836 545.259C291.443 545.316 291.17 545.681 291.227 546.074C291.285 546.468 291.649 546.741 292.043 546.684C294.656 546.3 296.829 547.873 297.898 549.332C302.406 555.502 304.549 562.867 303.94 570.082C303.907 570.481 304.199 570.826 304.597 570.86C304.616 570.86 304.635 570.86 304.655 570.86Z" fill="#11283C"/>
<path d="M316.494 574.612C316.887 574.612 317.208 574.29 317.213 573.897C317.299 560.904 312.811 548.967 304.242 539.367C303.244 538.249 301.46 537.112 299.902 536.608C298.53 536.167 297.005 536.215 295.37 536.757C294.991 536.882 294.79 537.29 294.914 537.669C295.039 538.048 295.447 538.249 295.826 538.124C297.183 537.673 298.372 537.625 299.456 537.976C300.77 538.403 302.328 539.386 303.163 540.322C311.492 549.653 315.851 561.259 315.77 573.887C315.775 574.285 316.096 574.612 316.494 574.612Z" fill="#11283C"/>
<path d="M327.902 573.758C327.916 573.758 327.935 573.758 327.95 573.758C328.348 573.734 328.645 573.388 328.621 572.995C327.648 558.093 321.534 544.078 310.945 532.468C308.634 529.934 304.486 527.185 300.4 527.785C300.007 527.842 299.734 528.207 299.791 528.6C299.849 528.994 300.213 529.267 300.606 529.21C303.906 528.73 307.646 530.99 309.881 533.441C320.248 544.808 326.233 558.52 327.187 573.091C327.211 573.465 327.528 573.758 327.902 573.758Z" fill="#11283C"/>
<path d="M263.769 420.175C261.168 420.175 259.06 418.065 259.06 415.463C259.06 412.861 261.168 410.752 263.769 410.752C266.37 410.752 268.478 412.861 268.478 415.463C268.478 418.065 266.37 420.175 263.769 420.175Z" fill="#C8D3DD"/>
<path d="M263.769 398.723C259.251 398.723 255.588 395.059 255.588 390.538C255.588 386.018 259.251 382.353 263.769 382.353C268.287 382.353 271.95 386.018 271.95 390.538C271.95 395.059 268.287 398.723 263.769 398.723Z" fill="#C8D3DD"/>
<path d="M3.67265 601.201H152.691C154.165 601.201 155.363 600.846 155.363 600.41C155.363 599.973 154.165 599.618 152.691 599.618H3.67265C2.19867 599.618 1 599.973 1 600.41C1 600.846 2.19867 601.201 3.67265 601.201Z" fill="#ADCB53"/>
<path d="M210.679 602.161C211.115 602.161 211.47 601.806 211.47 601.369V550.464C211.47 550.028 211.115 549.673 210.679 549.673C210.243 549.673 209.888 550.028 209.888 550.464V601.369C209.888 601.806 210.243 602.161 210.679 602.161Z" fill="#ADCB53"/>
<path d="M207.701 550.613C207.701 548.967 209.034 547.634 210.679 547.634C212.324 547.634 213.657 548.967 213.657 550.613C213.657 552.259 212.324 553.593 210.679 553.593C209.034 553.593 207.701 552.264 207.701 550.613Z" fill="#ADCB53"/>
<path d="M244.727 602.161C245.163 602.161 245.518 601.806 245.518 601.369V580.211C245.518 579.774 245.163 579.419 244.727 579.419C244.29 579.419 243.936 579.774 243.936 580.211V601.369C243.936 601.806 244.29 602.161 244.727 602.161Z" fill="#ADCB53"/>
<path d="M241.749 580.36C241.749 578.714 243.082 577.38 244.727 577.38C246.372 577.38 247.705 578.714 247.705 580.36C247.705 582.005 246.372 583.339 244.727 583.339C243.082 583.339 241.749 582.01 241.749 580.36Z" fill="#ADCB53"/>
<path d="M195.333 602.641C195.769 602.641 196.124 602.286 196.124 601.849V571.143C196.124 570.706 195.769 570.351 195.333 570.351C194.896 570.351 194.542 570.706 194.542 571.143V601.849C194.542 602.286 194.896 602.641 195.333 602.641Z" fill="#ADCB53"/>
<path d="M236.573 599.762C237.009 599.762 237.364 599.407 237.364 598.97V568.264C237.364 567.828 237.009 567.473 236.573 567.473C236.137 567.473 235.782 567.828 235.782 568.264V598.97C235.782 599.407 236.137 599.762 236.573 599.762Z" fill="#ADCB53"/>
<path d="M225.194 554.912C224.997 554.734 224.81 554.542 224.633 554.331C223.818 553.338 223.875 551.856 224.801 550.925L226.695 549.03C232.066 543.656 240.861 543.656 246.232 549.03L248.126 550.925C249.051 551.851 249.109 553.333 248.294 554.331C248.121 554.542 247.953 554.763 247.8 554.984C246.515 556.817 244.448 557.623 242.827 559.167C240.678 561.216 239.753 564.483 237.053 565.952C233.73 567.76 231.836 565.242 230.301 562.425C229.304 560.597 228.527 558.645 227.342 556.927C226.762 556.078 225.928 555.579 225.194 554.912Z" fill="white"/>
<path d="M235.969 569.747C238.29 569.104 240.707 568.806 243.114 568.859C245.373 568.907 247.555 569.545 249.794 569.502C250.005 569.497 250.221 569.502 250.432 569.516C251.429 569.574 252.336 568.859 252.494 567.852L252.815 565.793C253.731 559.954 249.708 554.427 243.872 553.511L241.815 553.189C240.808 553.031 239.849 553.674 239.599 554.643C239.546 554.85 239.484 555.051 239.417 555.253C238.621 557.575 237.719 559.858 237.043 562.219C236.357 564.623 236.127 567.012 235.911 569.488" fill="#C8D3DD"/>
<path d="M236.075 569.742C235.192 569.775 234.099 569.094 233.226 568.878C232.114 568.605 230.968 568.446 229.821 568.413C227.903 568.351 225.971 568.619 224.148 569.219C222.777 569.67 220.739 569.732 220.442 567.852L220.12 565.793C219.204 559.954 223.228 554.427 229.064 553.511L231.121 553.189C232.128 553.031 233.087 553.674 233.336 554.643C233.389 554.849 233.452 555.051 233.519 555.253L236.468 563.85C236.77 564.747 237.072 565.63 237.187 566.566C237.302 567.501 237.226 568.494 236.799 569.339C236.717 569.502 236.621 569.66 236.477 569.771C236.334 569.881 236.242 569.809 236.075 569.742Z" fill="#C8D3DD"/>
<path d="M233.456 569.464C233.456 567.875 234.746 568.024 236.334 568.024C237.921 568.024 239.211 567.875 239.211 569.464C239.211 571.052 237.921 573.782 236.334 573.782C234.746 573.782 233.456 571.052 233.456 569.464Z" fill="#ADCB53"/>
<path d="M135.391 601.201C135.828 601.201 136.183 600.846 136.183 600.41V570.183C136.183 569.747 135.828 569.392 135.391 569.392C134.955 569.392 134.6 569.747 134.6 570.183V600.41C134.6 600.846 134.955 601.201 135.391 601.201Z" fill="#ADCB53"/>
<path d="M134.02 568.744C135.584 568.13 137.238 567.746 138.912 567.602C140.485 567.468 142.043 567.751 143.592 567.559C143.741 567.54 143.885 567.53 144.033 567.521C144.729 567.487 145.304 566.926 145.342 566.216L145.414 564.762C145.621 560.645 142.427 557.109 138.312 556.898L136.859 556.826C136.15 556.788 135.531 557.306 135.43 557.997C135.406 558.146 135.382 558.29 135.349 558.433C134.965 560.103 134.51 561.754 134.212 563.438C133.915 565.155 133.925 566.83 133.958 568.562" fill="white"/>
<path d="M134.897 568.384C134.284 568.336 133.584 567.775 132.994 567.554C132.246 567.276 131.464 567.074 130.673 566.954C129.349 566.753 127.992 566.782 126.678 567.05C125.69 567.252 124.276 567.127 124.223 565.798L124.165 564.344C124.007 560.228 127.244 556.725 131.358 556.567L132.811 556.51C133.521 556.481 134.13 557.004 134.226 557.695C134.245 557.843 134.274 557.987 134.303 558.131L135.646 564.325C135.78 564.973 135.919 565.606 135.924 566.268C135.928 566.93 135.794 567.607 135.43 568.159C135.363 568.264 135.281 568.365 135.171 568.432C135.065 568.499 135.008 568.447 134.897 568.384Z" fill="white"/>
<path d="M132.515 567.545C132.515 565.957 133.804 566.105 135.392 566.105C136.979 566.105 138.269 565.957 138.269 567.545C138.269 569.133 136.979 571.863 135.392 571.863C133.804 571.863 132.515 569.133 132.515 567.545Z" fill="#ADCB53"/>
<path d="M193.813 577.25C195.377 576.636 197.031 576.253 198.705 576.109C200.278 575.974 201.836 576.257 203.385 576.065C203.534 576.046 203.678 576.037 203.826 576.027C204.522 575.993 205.097 575.432 205.135 574.722L205.207 573.268C205.414 569.152 202.22 565.616 198.105 565.405L196.652 565.333C195.943 565.299 195.324 565.812 195.223 566.503C195.199 566.652 195.175 566.796 195.142 566.94C194.758 568.61 194.303 570.26 194.005 571.944C193.703 573.662 193.717 575.336 193.751 577.068" fill="white"/>
<path d="M194.686 576.891C194.072 576.843 193.372 576.281 192.782 576.061C192.034 575.782 191.253 575.581 190.461 575.461C189.138 575.259 187.781 575.288 186.467 575.557C185.479 575.758 184.064 575.634 184.011 574.305L183.954 572.851C183.796 568.734 187.033 565.232 191.147 565.074L192.6 565.016C193.31 564.987 193.919 565.51 194.015 566.201C194.034 566.35 194.063 566.494 194.091 566.638L195.434 572.832C195.568 573.479 195.708 574.113 195.712 574.775C195.717 575.437 195.583 576.113 195.218 576.665C195.151 576.771 195.07 576.871 194.959 576.939C194.854 577.006 194.796 576.953 194.686 576.891Z" fill="white"/>
<path d="M192.308 576.051C192.308 574.463 193.597 574.612 195.185 574.612C196.772 574.612 198.062 574.463 198.062 576.051C198.062 577.639 196.772 580.369 195.185 580.369C193.593 580.369 192.308 577.639 192.308 576.051Z" fill="#ADCB53"/>
<path d="M297.058 601.417C297.452 601.417 297.787 601.129 297.845 600.731C298.833 593.376 300.909 586.155 304.007 579.28C308.615 569.056 314.955 560.684 322.848 554.403C330.665 548.18 339.69 548.756 347.607 555.977C356.315 563.922 363.456 580.043 366.712 599.109C366.784 599.541 367.191 599.829 367.628 599.757C368.059 599.685 368.347 599.273 368.275 598.841C364.966 579.443 357.639 562.982 348.676 554.806C340.126 547.005 330.353 546.405 321.865 553.165C313.775 559.604 307.282 568.173 302.568 578.627C299.403 585.647 297.288 593.011 296.277 600.52C296.219 600.952 296.521 601.355 296.958 601.412C296.991 601.412 297.025 601.417 297.058 601.417Z" fill="#ADCB53"/>
<path d="M313.722 601.907C314.139 601.907 314.489 601.58 314.513 601.158C314.796 595.876 314.331 590.588 313.128 585.436C312.495 582.734 311.133 579.27 308.207 578.1C305.042 576.833 302.496 579.174 301.163 581.789C300.966 582.178 301.12 582.658 301.508 582.854C301.897 583.051 302.376 582.898 302.573 582.509C303.062 581.545 304.879 578.474 307.613 579.573C310.025 580.537 311.133 583.891 311.579 585.8C312.749 590.804 313.199 595.943 312.926 601.076C312.902 601.513 313.238 601.887 313.674 601.911C313.698 601.907 313.708 601.907 313.722 601.907Z" fill="#ADCB53"/>
<path d="M323.476 601.12C323.889 601.12 324.234 600.803 324.267 600.386C324.737 594.12 324.454 587.801 323.428 581.607C323.03 579.189 322.493 576.632 321.27 574.314C319.899 571.704 317.842 569.848 315.482 569.09C312.365 568.082 307.57 569.737 305.81 572.424C305.57 572.789 305.671 573.283 306.04 573.523C306.404 573.763 306.898 573.662 307.138 573.292C308.514 571.196 312.552 569.809 314.998 570.596C316.93 571.22 318.71 572.841 319.87 575.048C320.983 577.164 321.486 579.573 321.865 581.861C322.867 587.935 323.145 594.125 322.685 600.266C322.651 600.702 322.977 601.081 323.419 601.115C323.438 601.115 323.457 601.12 323.476 601.12Z" fill="#ADCB53"/>
<path d="M336.438 601.101C336.87 601.101 337.22 600.755 337.23 600.323C337.402 592.762 336.424 585.877 334.055 578.004L333.791 577.116C332.007 571.143 329.312 562.113 323.548 558.961C318.892 556.414 315.2 560.065 312.754 562.483C312.442 562.79 312.442 563.294 312.749 563.606C313.056 563.917 313.559 563.917 313.871 563.61C316.768 560.741 319.439 558.52 322.786 560.353C327.975 563.193 330.559 571.843 332.266 577.572L332.53 578.46C334.846 586.165 335.805 592.896 335.638 600.29C335.628 600.726 335.973 601.091 336.41 601.101C336.429 601.101 336.434 601.101 336.438 601.101Z" fill="#ADCB53"/>
<path d="M173.754 602.641H296.996C297.433 602.641 297.788 602.286 297.788 601.849C297.788 601.412 297.433 601.057 296.996 601.057H173.754C173.318 601.057 172.963 601.412 172.963 601.849C172.963 602.286 173.318 602.641 173.754 602.641Z" fill="#ADCB53"/>
<path d="M396.741 584.577H443.736V585.536H396.741V584.577Z" fill="#C8D3DD"/>
<path d="M406.092 591.054H430.069V592.013H406.092V591.054Z" fill="#C8D3DD"/>
<path d="M1.77216 600.634C2.16539 600.634 2.50108 600.346 2.55862 599.947C3.54648 592.592 5.62289 585.372 8.72074 578.496C13.3291 568.272 19.6687 559.9 27.5619 553.62C35.3785 547.397 44.4035 547.973 52.3207 555.193C61.0292 563.139 68.1696 579.259 71.4257 598.326C71.4976 598.758 71.9052 599.045 72.3416 598.973C72.7732 598.902 73.0609 598.489 72.989 598.057C69.6801 578.66 62.3527 562.198 53.3901 554.023C44.8399 546.221 35.0668 545.622 26.5789 552.382C18.489 558.821 11.996 567.389 7.28211 577.844C4.11713 584.863 2.00236 592.228 0.990524 599.736C0.932976 600.168 1.23508 600.571 1.67146 600.629C1.70503 600.629 1.73859 600.634 1.77216 600.634Z" fill="#ADCB53"/>
<path d="M18.436 601.123C18.8532 601.123 19.2033 600.797 19.2273 600.375C19.5102 595.092 19.0451 589.805 17.8414 584.652C17.2084 581.951 15.8465 578.487 12.9213 577.316C9.75634 576.05 7.20998 578.391 5.87686 581.006C5.68024 581.394 5.83368 581.874 6.22211 582.071C6.61054 582.268 7.09008 582.114 7.2867 581.725C7.77583 580.761 9.5933 577.69 12.3267 578.789C14.7388 579.753 15.8465 583.107 16.2925 585.017C17.4626 590.021 17.9134 595.159 17.64 600.293C17.616 600.73 17.9517 601.104 18.3881 601.128C18.4121 601.123 18.4217 601.123 18.436 601.123Z" fill="#ADCB53"/>
<path d="M28.19 600.336C28.6025 600.336 28.9477 600.02 28.9813 599.602C29.4512 593.336 29.1683 587.017 28.1421 580.823C27.7441 578.405 27.207 575.848 25.9842 573.531C24.6127 570.921 22.5554 569.064 20.1961 568.306C17.0791 567.298 12.2836 568.954 10.5237 571.64C10.2839 572.005 10.3847 572.499 10.7539 572.739C11.1184 572.979 11.6123 572.878 11.8521 572.509C13.2283 570.412 17.2661 569.026 19.7117 569.812C21.6443 570.436 23.4234 572.058 24.5839 574.265C25.6964 576.381 26.1999 578.789 26.5788 581.078C27.581 587.152 27.8592 593.341 27.3988 599.482C27.3652 599.919 27.6913 600.298 28.1325 600.331C28.1517 600.331 28.1709 600.336 28.19 600.336Z" fill="#ADCB53"/>
<path d="M41.1523 600.317C41.5839 600.317 41.934 599.972 41.9436 599.54C42.1162 591.978 41.1379 585.093 38.769 577.22L38.5052 576.333C36.7213 570.359 34.0263 561.33 28.2622 558.178C23.6059 555.63 19.9134 559.281 17.4677 561.699C17.156 562.006 17.156 562.51 17.4629 562.822C17.7698 563.134 18.2734 563.134 18.5851 562.827C21.4815 559.958 24.1525 557.736 27.4997 559.569C32.6884 562.409 35.2731 571.06 36.9803 576.788L37.2441 577.676C39.5602 585.381 40.5193 592.113 40.3515 599.506C40.3419 599.943 40.6872 600.307 41.1235 600.317C41.1427 600.317 41.1475 600.317 41.1523 600.317Z" fill="#ADCB53"/>
</svg>
