<svg width="455" height="520" viewBox="0 0 455 520" fill="none" xmlns="http://www.w3.org/2000/svg">
<path d="M110.453 419C109.527 419 108.774 418.517 108.774 417.924V161.451C108.774 160.858 109.527 160.375 110.453 160.375C111.378 160.375 112.131 160.858 112.131 161.451V417.924C112.131 418.517 111.383 419 110.453 419Z" fill="#1A3C5B"/>
<path d="M81.6608 205.465H38.5739C29.0166 205.465 21.1953 213.29 21.1953 222.852C21.1953 223.006 21.2145 223.155 21.2193 223.308C21.2097 223.462 21.1953 223.61 21.1953 223.764V245.589C21.1953 250.104 24.3747 254.139 28.8344 254.835C34.4547 255.713 39.346 251.332 39.346 245.867V244.798C39.346 242.283 41.384 240.249 43.892 240.249C46.4048 240.249 48.4381 242.288 48.4381 244.798V260.151C48.4381 265.145 52.5238 269.228 57.5158 269.228C62.5079 269.228 66.5888 265.14 66.5888 260.151V244.798C66.5888 242.283 68.6268 240.249 71.1348 240.249H81.656C91.2133 240.249 99.0346 232.424 99.0346 222.862C99.0394 213.29 91.218 205.465 81.6608 205.465Z" fill="#1A3C5B"/>
<path d="M60.4655 190.078H17.3786C8.26731 190.078 0.752881 197.189 0.0671359 206.132C0.0287725 206.429 0 206.727 0 207.034V207.466V235.615C0 239.021 2.43128 242.068 5.80246 242.514C9.88816 243.056 13.408 239.851 13.408 235.864V228.653C13.408 226.503 15.1871 224.843 17.3354 224.848C17.3498 224.848 17.3642 224.848 17.3786 224.848H60.4655C70.0227 224.848 77.8441 217.023 77.8441 207.461C77.8441 197.904 70.0227 190.078 60.4655 190.078Z" fill="#ADCB53"/>
<path d="M110.452 292.689H102.789C83.061 292.689 67.0107 276.631 67.0107 256.893V241.559C67.0107 240.633 67.7636 239.88 68.6891 239.88C69.6147 239.88 70.3675 240.633 70.3675 241.559V256.893C70.3675 274.779 84.9121 289.331 102.789 289.331H110.452C111.378 289.331 112.131 290.084 112.131 291.01C112.131 291.936 111.383 292.689 110.452 292.689Z" fill="#1A3C5B"/>
<path d="M73.274 280.33H65.611C53.5553 280.33 33.3809 280.33 30.1968 255.012C30.0817 254.091 30.7338 253.251 31.6546 253.136C32.5753 253.021 33.4145 253.674 33.5296 254.595C34.7572 264.368 38.7518 270.711 45.7339 273.992C51.5987 276.746 58.485 276.977 65.611 276.977H73.274C74.1995 276.977 74.9524 277.73 74.9524 278.656C74.9524 279.582 74.2043 280.33 73.274 280.33Z" fill="#1A3C5B"/>
<path d="M152.921 244.889H145.258C144.332 244.889 143.579 244.136 143.579 243.21C143.579 242.284 144.332 241.53 145.258 241.53H152.921C160.047 241.53 166.933 241.3 172.798 238.546C179.78 235.264 183.774 228.922 185.002 219.148C185.117 218.227 185.956 217.575 186.877 217.69C187.798 217.805 188.45 218.645 188.335 219.566C185.151 244.889 164.976 244.889 152.921 244.889Z" fill="#1A3C5B"/>
<path d="M110.477 223.155C109.824 223.155 109.201 222.771 108.933 222.133C108.568 221.279 108.966 220.295 109.82 219.93C121.871 214.806 129.658 203.08 129.658 190.05V174.716C129.658 173.79 130.411 173.036 131.337 173.036C132.262 173.036 133.015 173.79 133.015 174.716V190.05C133.015 204.429 124.427 217.373 111.134 223.02C110.918 223.111 110.697 223.155 110.477 223.155Z" fill="#1A3C5B"/>
<path d="M118.116 257.713H110.453C109.527 257.713 108.774 256.96 108.774 256.034C108.774 255.108 109.527 254.355 110.453 254.355H118.116C135.993 254.355 150.538 239.803 150.538 221.917V206.583C150.538 205.657 151.291 204.904 152.216 204.904C153.142 204.904 153.895 205.657 153.895 206.583V221.917C153.899 241.655 137.849 257.713 118.116 257.713Z" fill="#1A3C5B"/>
<path d="M176.021 186.442H197.562C207.119 186.442 214.941 194.267 214.941 203.829C214.941 203.982 214.922 204.131 214.917 204.285C214.926 204.438 214.941 204.587 214.941 204.741V226.566C214.941 231.081 211.761 235.116 207.302 235.811C201.681 236.689 196.79 232.309 196.79 226.844V225.774C196.79 223.26 194.752 221.226 192.244 221.226C189.731 221.226 176.021 221.226 176.021 221.226C166.464 221.226 158.642 213.401 158.642 203.839C158.638 194.267 166.459 186.442 176.021 186.442Z" fill="#1A3C5B"/>
<path d="M65.5103 195.749H42.5738C38.3011 195.749 34.8101 192.252 34.8101 187.982V185.089C34.8101 180.814 38.3059 177.321 42.5738 177.321H65.5103C69.7831 177.321 73.2741 180.819 73.2741 185.089V187.982C73.2789 192.257 69.7831 195.749 65.5103 195.749Z" fill="#ADCB53"/>
<path d="M159.29 174.716H108.276C102.407 174.716 97.6064 169.913 97.6064 164.041V160.068C97.6064 154.195 102.407 149.393 108.276 149.393H159.29C165.16 149.393 169.96 154.195 169.96 160.068V164.041C169.96 169.913 165.155 174.716 159.29 174.716Z" fill="#1A3C5B"/>
<path d="M154.121 125.495H145.954V123.696C145.954 119.464 142.492 116 138.262 116H97.2661C93.0365 116 89.5742 119.464 89.5742 123.696V125.495H83.8581C74.5502 125.495 66.9351 133.114 66.9351 142.426V148.726C66.9351 158.039 74.5502 165.657 83.8581 165.657H154.121C163.429 165.657 171.044 158.039 171.044 148.726V142.426C171.039 133.114 163.424 125.495 154.121 125.495Z" fill="#ADCB53"/>
<path d="M201.02 212.82C201.02 204.098 193.889 196.963 185.171 196.963H155.031C146.313 196.963 139.183 204.098 139.183 212.82C139.183 221.543 146.313 228.677 155.031 228.677H185.171C185.228 228.677 185.291 228.677 185.348 228.677C186.959 228.658 188.384 229.56 189.161 230.97C190.383 233.192 192.901 234.612 195.682 234.185C198.804 233.705 201.024 230.874 201.024 227.717V215.915C201.024 215.497 200.981 215.089 200.904 214.691C200.967 214.077 201.02 213.453 201.02 212.82Z" fill="#ADCB53"/>
<path d="M31.928 142.244C28.763 142.244 26.1831 139.668 26.1831 136.496C26.1831 133.33 28.7582 130.749 31.928 130.749C35.0978 130.749 37.6729 133.325 37.6729 136.496C37.6729 139.668 35.0978 142.244 31.928 142.244ZM31.928 134.088C30.5997 134.088 29.5207 135.167 29.5207 136.496C29.5207 137.825 30.5997 138.905 31.928 138.905C33.2564 138.905 34.3353 137.825 34.3353 136.496C34.3401 135.167 33.2564 134.088 31.928 134.088Z" fill="#ADCB53"/>
<path d="M199.767 156.897C193.432 156.897 188.282 151.739 188.282 145.406C188.282 139.073 193.437 133.915 199.767 133.915C206.097 133.915 211.252 139.073 211.252 145.406C211.252 151.739 206.097 156.897 199.767 156.897ZM199.767 140.584C197.111 140.584 194.948 142.748 194.948 145.406C194.948 148.064 197.111 150.228 199.767 150.228C202.424 150.228 204.587 148.064 204.587 145.406C204.582 142.748 202.424 140.584 199.767 140.584Z" fill="#ADCB53"/>
<path d="M246.686 401.679C245.861 401.679 245.036 401.52 244.23 401.146C238.802 398.613 239.286 391.997 239.67 386.681C239.833 384.469 239.982 382.382 239.732 380.803C239.128 376.984 239.833 374.11 242.245 370.555C244.058 367.892 246.705 365.575 250.575 363.272C251.308 362.835 252.148 362.437 253.035 362.02C255.078 361.055 257.192 360.058 258.195 358.484C259.269 356.8 260.65 355.36 262.3 354.209C265.09 352.261 268.361 351.325 271.751 351.508C273.439 351.599 274.979 350.735 275.77 349.253C276.734 347.454 278.072 345.947 279.755 344.772C287.744 339.197 301.617 339.489 309.448 345.395C311.122 346.657 312.714 348.85 311.678 350.874C311.141 351.92 310.072 352.472 309.108 352.909C308.628 353.125 308.129 353.341 307.621 353.561C305.056 354.67 302.145 355.927 300.466 358.004C299.713 358.935 299.143 359.947 298.591 360.931C297.603 362.682 296.587 364.491 294.51 365.94C292.827 367.115 290.947 367.854 288.929 368.132C287.265 368.363 285.922 369.509 285.423 371.126C284.421 374.369 282.412 377.119 279.621 379.062C277.971 380.213 276.144 381.014 274.192 381.437C272.725 381.758 271.526 382.857 271.066 384.315C269.838 388.187 267.421 391.464 264.083 393.791C262.563 394.851 261.24 395.154 259.844 395.47C259.35 395.581 258.842 395.701 258.305 395.854C256.823 396.281 255.452 397.327 254.128 398.339C253.644 398.709 253.145 399.088 252.656 399.433C251.049 400.561 248.882 401.679 246.686 401.679ZM270.936 352.933C268.136 352.933 265.45 353.777 263.124 355.399C261.628 356.44 260.381 357.74 259.408 359.266C258.185 361.185 255.773 362.327 253.649 363.33C252.795 363.733 251.989 364.116 251.308 364.519C247.626 366.712 245.122 368.89 243.434 371.371C241.219 374.629 240.6 377.123 241.152 380.583C241.43 382.324 241.272 384.493 241.104 386.791C240.73 391.92 240.303 397.735 244.835 399.846C247.285 400.988 250.273 399.342 251.836 398.263C252.301 397.941 252.766 397.586 253.255 397.212C254.684 396.118 256.166 394.986 257.907 394.487C258.482 394.324 259.01 394.204 259.523 394.084C260.837 393.786 261.969 393.527 263.259 392.625C266.332 390.481 268.558 387.458 269.694 383.893C270.313 381.95 271.919 380.477 273.885 380.045C275.65 379.661 277.3 378.937 278.796 377.896C281.323 376.135 283.136 373.65 284.047 370.714C284.704 368.593 286.54 367.024 288.727 366.717C290.521 366.467 292.189 365.81 293.686 364.769C295.493 363.507 296.39 361.919 297.335 360.23C297.915 359.199 298.515 358.134 299.344 357.107C301.248 354.751 304.331 353.422 307.05 352.247C307.554 352.031 308.043 351.82 308.518 351.604C309.29 351.254 310.072 350.86 310.398 350.227C311.069 348.912 309.573 347.295 308.585 346.552C301.2 340.981 288.113 340.708 280.58 345.962C279.084 347.003 277.894 348.341 277.041 349.939C276 351.887 273.885 353.072 271.675 352.952C271.43 352.938 271.185 352.933 270.936 352.933Z" fill="#ADCB53"/>
<path d="M240.193 422.554C240.188 422.554 240.183 422.554 240.178 422.554C239.78 422.544 239.464 422.218 239.473 421.82C239.761 407.335 244.676 392.452 252.618 382.012C262.865 368.535 276.499 357.884 292.05 351.21C292.415 351.052 292.837 351.22 292.995 351.589C293.153 351.954 292.981 352.376 292.616 352.535C277.295 359.112 263.858 369.61 253.764 382.886C246 393.095 241.195 407.661 240.912 421.853C240.902 422.242 240.581 422.554 240.193 422.554Z" fill="#ADCB53"/>
<path d="M214.351 384.747C211.574 384.747 207.373 382.315 203.657 378.548C201.408 376.269 196.19 370.248 196.272 363.497C196.31 360.523 197.073 357.577 198.487 354.977C198.943 354.137 199.47 353.326 200.056 352.568C200.981 351.364 201.197 349.752 200.617 348.365C199.849 346.523 199.461 344.565 199.461 342.55C199.461 339.144 200.564 335.929 202.65 333.247C203.69 331.913 203.863 330.157 203.101 328.66C202.175 326.842 201.705 324.88 201.705 322.826C201.705 318.93 204.088 313.571 206.318 309.853C207.431 307.996 211.315 301.946 214.6 301.946C220.139 301.946 227.495 316.272 227.495 322.826C227.495 324.88 227.025 326.842 226.099 328.66C225.337 330.157 225.51 331.913 226.55 333.247C228.636 335.929 229.739 339.144 229.739 342.55C229.739 344.565 229.351 346.518 228.583 348.365C228.008 349.752 228.224 351.369 229.154 352.578C231.624 355.802 232.928 359.654 232.928 363.728C232.933 374.153 222.124 384.747 214.351 384.747ZM199.749 355.663C198.449 358.057 197.739 360.772 197.711 363.512C197.658 367.82 200.267 373.06 204.683 377.536C208.093 380.99 211.977 383.308 214.355 383.308C221.438 383.308 231.499 373.179 231.499 363.723C231.499 359.971 230.295 356.421 228.022 353.451C226.78 351.834 226.493 349.67 227.265 347.809C227.96 346.139 228.31 344.369 228.31 342.55C228.31 339.47 227.313 336.558 225.423 334.135C224.061 332.384 223.826 329.98 224.824 328.008C225.644 326.391 226.061 324.649 226.061 322.826C226.061 315.922 218.671 303.386 214.605 303.386C211.181 303.386 203.149 315.941 203.149 322.826C203.149 324.649 203.566 326.396 204.386 328.008C205.388 329.975 205.153 332.384 203.786 334.135C201.897 336.558 200.9 339.47 200.9 342.55C200.9 344.373 201.25 346.144 201.945 347.809C202.722 349.67 202.434 351.829 201.197 353.441C200.655 354.137 200.171 354.885 199.749 355.663Z" fill="#ADCB53"/>
<path d="M214.6 415.64C214.202 415.64 213.881 415.319 213.881 414.921V318.182C213.881 317.784 214.202 317.462 214.6 317.462C214.998 317.462 215.32 317.784 215.32 318.182V414.921C215.32 415.319 214.998 415.64 214.6 415.64Z" fill="#ADCB53"/>
<path d="M289.596 454.627C288.929 455.486 287.85 456.1 286.781 456.57C283.769 457.885 280.456 458.489 277.171 459.051C265.547 461.042 253.256 462.568 242.107 458.993C239.181 458.053 233.767 456.004 233.82 452.847C233.883 449.417 236.333 445.08 237.671 441.927C239.541 437.523 241.704 433.205 244.274 429.098C248.077 423.024 254.383 413.966 263.231 413.966C272.045 413.966 278.336 422.962 282.134 429.016C284.676 433.066 286.819 437.321 288.675 441.664C290.027 444.825 292.07 451.427 289.596 454.627Z" fill="#C8D3DD"/>
<path d="M180.61 456.95C180.183 457.501 179.488 457.9 178.797 458.202C176.86 459.046 174.721 459.44 172.606 459.8C165.121 461.081 157.208 462.064 150.025 459.761C148.14 459.157 144.654 457.837 144.687 455.803C144.726 453.596 146.308 450.799 147.166 448.769C148.37 445.934 149.761 443.151 151.42 440.507C153.87 436.592 157.932 430.763 163.629 430.763C169.307 430.763 173.359 436.559 175.805 440.455C177.44 443.065 178.821 445.804 180.015 448.601C180.888 450.636 182.202 454.887 180.61 456.95Z" fill="#C8D3DD"/>
<path d="M69.4379 337.939C45.5471 337.939 26.1064 318.494 26.1064 294.586V258.108C26.1064 252.692 30.4943 248.302 35.9083 248.302C41.3223 248.302 45.7101 252.692 45.7101 258.108V294.586C45.7101 307.68 56.356 318.326 69.4379 318.326C74.8519 318.326 79.2397 322.716 79.2397 328.133C79.2397 333.549 74.8519 337.939 69.4379 337.939Z" fill="#ADCB53"/>
<path d="M69.4381 408.827C64.024 408.827 59.6362 404.437 59.6362 399.021V212.193C59.6362 206.776 64.024 202.386 69.4381 202.386C74.8521 202.386 79.2399 206.776 79.2399 212.193V399.021C79.2399 404.437 74.8521 408.827 69.4381 408.827Z" fill="#ADCB53"/>
<path d="M69.4379 328.756C50.6063 328.756 35.2897 313.427 35.2897 294.591V262.546C35.2897 262.206 35.5678 261.927 35.9083 261.927C36.2488 261.927 36.5269 262.206 36.5269 262.546V294.591C36.5269 312.746 51.292 327.519 69.4379 327.519C69.7783 327.519 70.0565 327.797 70.0565 328.137C70.0565 328.478 69.7831 328.756 69.4379 328.756Z" fill="#11283C"/>
<path d="M31.2418 262.777C31.2418 260.195 33.3326 258.104 35.9126 258.104C38.4925 258.104 40.5785 260.195 40.5785 262.777C40.5785 265.358 38.4877 267.445 35.9126 267.445C33.3326 267.45 31.2418 265.358 31.2418 262.777Z" fill="#11283C"/>
<path d="M69.4383 382.204C69.0978 382.204 68.8197 381.926 68.8197 381.585V216.631C68.8197 216.291 69.0978 216.012 69.4383 216.012C69.7788 216.012 70.0569 216.291 70.0569 216.631V381.585C70.0617 381.926 69.7836 382.204 69.4383 382.204Z" fill="#11283C"/>
<path d="M73.9749 217.953C74.5677 215.441 73.0131 212.924 70.5027 212.331C67.9922 211.738 65.4766 213.293 64.8838 215.805C64.291 218.317 65.8455 220.834 68.356 221.427C70.8664 222.02 73.3821 220.465 73.9749 217.953Z" fill="#11283C"/>
<path d="M96.5457 446.035C94.0137 437.49 91.2084 429.069 88.1393 420.808C82.6438 406.011 76.6159 382.631 62.6181 377.128C49.0231 371.783 38.8999 390.034 33.4476 402.221C27.0601 416.499 21.507 431.363 16.8554 446.668C13.8007 456.719 9.88285 478.334 9.13477 488.822" fill="#11283C"/>
<path d="M9.13567 489.613C9.11649 489.613 9.09731 489.613 9.07813 489.613C8.64175 489.579 8.31086 489.2 8.33963 488.764C9.1069 478.065 13.0919 456.307 16.0938 446.433C20.7358 431.161 26.3321 416.178 32.7244 401.894C42.1617 380.798 52.3184 372.22 62.9115 376.384C75.1878 381.211 81.4123 399.14 86.4091 413.544C87.2675 416.019 88.0827 418.361 88.8883 420.529C91.9526 428.786 94.7867 437.288 97.3139 445.809C97.4386 446.231 97.1988 446.673 96.7768 446.797C96.3548 446.922 95.9136 446.682 95.7889 446.26C93.2761 437.773 90.4516 429.304 87.3969 421.081C86.5865 418.898 85.7713 416.547 84.9081 414.062C80.0168 399.966 73.9266 382.42 62.3313 377.862C52.6733 374.062 43.2023 382.367 34.1774 402.542C27.8138 416.763 22.2416 431.689 17.6188 446.893C14.6408 456.686 10.6894 478.261 9.92692 488.874C9.89815 489.292 9.54808 489.613 9.13567 489.613Z" fill="#C8D3DD"/>
<path d="M47.1676 489.853C46.7264 489.853 46.3716 489.498 46.3716 489.057V411.001C46.3716 410.559 46.7264 410.204 47.1676 410.204C47.6088 410.204 47.9637 410.559 47.9637 411.001V489.057C47.9637 489.498 47.6088 489.853 47.1676 489.853Z" fill="#C8D3DD"/>
<path d="M51.9478 411.241C51.9478 408.597 49.8043 406.452 47.1668 406.452C44.5293 406.452 42.3857 408.597 42.3857 411.241C42.3857 413.884 44.5293 416.024 47.1668 416.024C49.8043 416.024 51.9478 413.884 51.9478 411.241Z" fill="#C8D3DD"/>
<path d="M69.7876 490.333C69.3464 490.333 68.9916 489.978 68.9916 489.536V443.228C68.9916 442.786 69.3464 442.431 69.7876 442.431C70.2288 442.431 70.5837 442.786 70.5837 443.228V489.536C70.5837 489.978 70.224 490.333 69.7876 490.333Z" fill="#C8D3DD"/>
<path d="M74.5688 443.463C74.5688 440.819 72.4253 438.675 69.7878 438.675C67.1455 438.675 65.002 440.819 65.002 443.463C65.002 446.106 67.1455 448.246 69.7878 448.246C72.4301 448.251 74.5688 446.106 74.5688 443.463Z" fill="#C8D3DD"/>
<path d="M58.3025 489.853C57.8613 489.853 57.5065 489.498 57.5065 489.057V427.87C57.5065 427.429 57.8613 427.073 58.3025 427.073C58.7437 427.073 59.0986 427.429 59.0986 427.87V489.057C59.0938 489.498 58.7389 489.853 58.3025 489.853Z" fill="#C8D3DD"/>
<path d="M63.084 428.11C63.084 425.466 60.9404 423.322 58.3029 423.322C55.6654 423.322 53.5171 425.466 53.5171 428.11C53.5171 430.754 55.6606 432.893 58.3029 432.893C60.9452 432.893 63.084 430.754 63.084 428.11Z" fill="#C8D3DD"/>
<path d="M259.734 472.595C258.708 467.423 255.955 461.56 254.622 457.688C252.09 450.314 249.285 443.05 246.216 435.916C240.72 423.149 234.693 402.969 220.695 398.219C207.1 393.604 196.977 409.36 191.524 419.877C186.518 429.53 182.034 439.5 178.087 449.709C178.648 449.633 179.234 449.642 179.814 449.748C190.733 451.787 199.921 460.015 206.428 468.598C212.274 476.304 216.643 485.808 216.321 495.577C231.504 495.514 254.454 492.693 259.586 479.485C260.329 477.585 260.247 475.176 259.734 472.595Z" fill="#1A3C5B"/>
<path d="M149.095 414.388C132.493 414.388 118.984 400.873 118.984 384.262C118.984 378.361 122.826 364.894 141.134 334.231C142.827 331.4 145.8 329.706 149.095 329.706C152.389 329.706 155.362 331.395 157.055 334.231C175.364 364.894 179.205 378.361 179.205 384.262C179.205 400.873 165.697 414.388 149.095 414.388ZM149.095 331.299C146.366 331.299 143.901 332.7 142.501 335.046C134.311 348.759 120.572 373.391 120.572 384.262C120.572 399.999 133.366 412.8 149.095 412.8C164.824 412.8 177.618 399.999 177.618 384.262C177.618 373.395 163.879 348.763 155.689 335.046C154.288 332.7 151.823 331.299 149.095 331.299Z" fill="#C8D3DD"/>
<path d="M149.099 377.349C143.215 377.349 138.108 373.156 136.952 367.379C136.866 366.947 137.144 366.53 137.576 366.443C138.007 366.357 138.424 366.635 138.511 367.067C139.518 372.105 143.968 375.761 149.099 375.761C154.225 375.761 158.68 372.105 159.687 367.067C159.774 366.635 160.191 366.357 160.622 366.443C161.054 366.53 161.332 366.947 161.246 367.379C160.09 373.156 154.983 377.349 149.099 377.349Z" fill="#C8D3DD"/>
<path d="M158.062 367.086C158.201 365.772 159.376 364.817 160.69 364.956C162.004 365.095 162.958 366.271 162.819 367.585C162.68 368.9 161.505 369.855 160.191 369.716C158.877 369.581 157.923 368.401 158.062 367.086Z" fill="#C8D3DD"/>
<path d="M140.136 367.086C139.997 365.772 138.822 364.817 137.508 364.956C136.194 365.095 135.24 366.271 135.379 367.585C135.518 368.9 136.693 369.855 138.007 369.716C139.321 369.581 140.275 368.401 140.136 367.086Z" fill="#C8D3DD"/>
<path d="M149.098 398.819C140.097 398.819 132.415 392.088 131.231 383.159C131.173 382.722 131.48 382.324 131.912 382.267C132.348 382.209 132.746 382.516 132.803 382.948C133.887 391.09 140.893 397.226 149.098 397.226C157.303 397.226 164.309 391.09 165.393 382.948C165.451 382.511 165.849 382.204 166.285 382.267C166.721 382.324 167.028 382.722 166.966 383.159C165.782 392.083 158.099 398.819 149.098 398.819Z" fill="#C8D3DD"/>
<path d="M163.759 382.981C163.859 381.662 165.01 380.678 166.329 380.784C167.648 380.885 168.631 382.036 168.525 383.356C168.424 384.675 167.274 385.659 165.955 385.553C164.641 385.452 163.658 384.301 163.759 382.981Z" fill="#C8D3DD"/>
<path d="M134.439 382.981C134.339 381.662 133.188 380.678 131.869 380.784C130.55 380.885 129.567 382.036 129.673 383.356C129.773 384.675 130.924 385.659 132.243 385.553C133.557 385.452 134.54 384.301 134.439 382.981Z" fill="#C8D3DD"/>
<path d="M149.104 447.445C148.663 447.445 148.308 447.09 148.308 446.649V354.348C148.308 353.907 148.663 353.552 149.104 353.552C149.545 353.552 149.9 353.907 149.9 354.348V446.649C149.9 447.09 149.545 447.445 149.104 447.445Z" fill="#C8D3DD"/>
<path d="M146.711 354.468C146.711 353.149 147.78 352.074 149.104 352.074C150.423 352.074 151.497 353.144 151.497 354.468C151.497 355.787 150.427 356.862 149.104 356.862C147.785 356.862 146.711 355.787 146.711 354.468Z" fill="#C8D3DD"/>
<path d="M148.352 441.841C145.355 434.836 142.41 429.631 135.912 424.022C133.668 422.084 131.366 420.112 128.499 418.893C123.526 416.782 117.93 417.876 113.964 420.889C106.349 426.67 101.851 434.899 98.4218 442.868C96.096 448.27 90.845 457.396 92.4659 463.858C98.5944 456.369 108.243 451.01 117.795 455.28C123.722 457.928 130.086 463.297 132.915 469.621C133.141 469.86 133.342 470.12 133.5 470.412C134.172 471.636 134.79 472.893 135.356 474.169C144.156 473.037 153.209 470.527 156.259 465.715C156.945 464.636 157.319 463.503 157.449 462.333C158.216 455.486 150.721 447.378 148.352 441.841Z" fill="#1A3C5B"/>
<path d="M139.345 474.86C138.976 474.86 138.66 474.577 138.631 474.202C137.988 466.646 140.232 458.931 144.942 452.483C146.246 450.698 148.917 448.788 152.164 449.259C152.557 449.316 152.83 449.681 152.773 450.074C152.715 450.468 152.351 450.741 151.957 450.684C149.344 450.3 147.171 451.873 146.102 453.332C141.594 459.502 139.451 466.867 140.06 474.082C140.093 474.481 139.801 474.826 139.403 474.86C139.384 474.86 139.365 474.86 139.345 474.86Z" fill="#11283C"/>
<path d="M127.506 478.612C127.113 478.612 126.792 478.29 126.787 477.897C126.701 464.904 131.189 452.967 139.758 443.367C140.756 442.249 142.54 441.112 144.098 440.608C145.47 440.167 146.995 440.215 148.63 440.757C149.009 440.882 149.21 441.29 149.086 441.669C148.961 442.048 148.553 442.249 148.174 442.124C146.817 441.673 145.628 441.625 144.544 441.976C143.23 442.403 141.672 443.386 140.837 444.322C132.508 453.653 128.149 465.259 128.23 477.887C128.225 478.285 127.904 478.612 127.506 478.612Z" fill="#11283C"/>
<path d="M116.098 477.758C116.084 477.758 116.065 477.758 116.05 477.758C115.652 477.734 115.355 477.388 115.379 476.995C116.352 462.093 122.466 448.078 133.055 436.468C135.366 433.934 139.514 431.185 143.6 431.785C143.993 431.842 144.266 432.207 144.209 432.6C144.151 432.994 143.787 433.267 143.394 433.21C140.094 432.73 136.354 434.99 134.119 437.441C123.752 448.808 117.767 462.52 116.813 477.091C116.789 477.465 116.472 477.758 116.098 477.758Z" fill="#11283C"/>
<path d="M180.231 324.175C182.832 324.175 184.94 322.065 184.94 319.463C184.94 316.861 182.832 314.752 180.231 314.752C177.63 314.752 175.522 316.861 175.522 319.463C175.522 322.065 177.63 324.175 180.231 324.175Z" fill="#C8D3DD"/>
<path d="M180.231 302.723C184.749 302.723 188.412 299.059 188.412 294.538C188.412 290.018 184.749 286.353 180.231 286.353C175.713 286.353 172.05 290.018 172.05 294.538C172.05 299.059 175.713 302.723 180.231 302.723Z" fill="#C8D3DD"/>
<path d="M233.321 506.161C232.885 506.161 232.53 505.806 232.53 505.369V454.464C232.53 454.028 232.885 453.673 233.321 453.673C233.757 453.673 234.112 454.028 234.112 454.464V505.369C234.112 505.806 233.757 506.161 233.321 506.161Z" fill="#ADCB53"/>
<path d="M236.299 454.613C236.299 452.967 234.966 451.634 233.321 451.634C231.676 451.634 230.343 452.967 230.343 454.613C230.343 456.259 231.676 457.593 233.321 457.593C234.966 457.593 236.299 456.264 236.299 454.613Z" fill="#ADCB53"/>
<path d="M199.273 506.161C198.837 506.161 198.482 505.806 198.482 505.369V484.211C198.482 483.774 198.837 483.419 199.273 483.419C199.71 483.419 200.064 483.774 200.064 484.211V505.369C200.064 505.806 199.71 506.161 199.273 506.161Z" fill="#ADCB53"/>
<path d="M202.251 484.36C202.251 482.714 200.918 481.38 199.273 481.38C197.628 481.38 196.295 482.714 196.295 484.36C196.295 486.005 197.628 487.339 199.273 487.339C200.918 487.339 202.251 486.01 202.251 484.36Z" fill="#ADCB53"/>
<path d="M248.667 506.641C248.231 506.641 247.876 506.286 247.876 505.849V475.143C247.876 474.706 248.231 474.351 248.667 474.351C249.104 474.351 249.458 474.706 249.458 475.143V505.849C249.458 506.286 249.104 506.641 248.667 506.641Z" fill="#ADCB53"/>
<path d="M207.427 503.762C206.991 503.762 206.636 503.407 206.636 502.97V472.264C206.636 471.828 206.991 471.473 207.427 471.473C207.863 471.473 208.218 471.828 208.218 472.264V502.97C208.218 503.407 207.863 503.762 207.427 503.762Z" fill="#ADCB53"/>
<path d="M218.806 458.912C219.003 458.734 219.19 458.542 219.367 458.331C220.182 457.338 220.125 455.856 219.199 454.925L217.305 453.03C211.934 447.656 203.139 447.656 197.768 453.03L195.874 454.925C194.949 455.851 194.891 457.333 195.706 458.331C195.879 458.542 196.047 458.763 196.2 458.984C197.485 460.817 199.552 461.623 201.173 463.167C203.322 465.216 204.247 468.483 206.947 469.952C210.27 471.76 212.164 469.242 213.699 466.425C214.696 464.597 215.473 462.645 216.658 460.927C217.238 460.078 218.072 459.579 218.806 458.912Z" fill="white"/>
<path d="M208.031 473.747C205.71 473.104 203.293 472.806 200.886 472.859C198.627 472.907 196.445 473.545 194.206 473.502C193.995 473.497 193.779 473.502 193.568 473.516C192.571 473.574 191.664 472.859 191.506 471.852L191.185 469.793C190.269 463.954 194.292 458.427 200.128 457.511L202.185 457.189C203.192 457.031 204.151 457.674 204.401 458.643C204.454 458.85 204.516 459.051 204.583 459.253C205.379 461.575 206.281 463.858 206.957 466.219C207.643 468.623 207.873 471.012 208.089 473.488" fill="#C8D3DD"/>
<path d="M207.925 473.742C208.808 473.775 209.901 473.094 210.774 472.878C211.886 472.605 213.032 472.446 214.179 472.413C216.097 472.351 218.029 472.619 219.852 473.219C221.223 473.67 223.261 473.732 223.558 471.852L223.88 469.793C224.796 463.954 220.772 458.427 214.936 457.511L212.879 457.189C211.872 457.031 210.913 457.674 210.664 458.643C210.611 458.849 210.548 459.051 210.481 459.253L207.532 467.85C207.23 468.747 206.928 469.63 206.813 470.566C206.698 471.501 206.774 472.494 207.201 473.339C207.283 473.502 207.379 473.66 207.523 473.771C207.666 473.881 207.758 473.809 207.925 473.742Z" fill="#C8D3DD"/>
<path d="M210.544 473.464C210.544 471.875 209.254 472.024 207.666 472.024C206.079 472.024 204.789 471.875 204.789 473.464C204.789 475.052 206.079 477.782 207.666 477.782C209.254 477.782 210.544 475.052 210.544 473.464Z" fill="#ADCB53"/>
<path d="M250.187 481.25C248.623 480.636 246.969 480.253 245.295 480.109C243.722 479.974 242.164 480.257 240.615 480.065C240.466 480.046 240.322 480.037 240.174 480.027C239.478 479.993 238.903 479.432 238.865 478.722L238.793 477.268C238.586 473.152 241.78 469.616 245.895 469.405L247.348 469.333C248.057 469.299 248.676 469.812 248.777 470.503C248.801 470.652 248.825 470.796 248.858 470.94C249.242 472.61 249.697 474.26 249.995 475.944C250.297 477.662 250.283 479.336 250.249 481.068" fill="white"/>
<path d="M249.314 480.891C249.928 480.843 250.628 480.281 251.218 480.061C251.966 479.782 252.747 479.581 253.539 479.461C254.862 479.259 256.219 479.288 257.533 479.557C258.521 479.758 259.936 479.634 259.989 478.305L260.046 476.851C260.204 472.734 256.967 469.232 252.853 469.074L251.4 469.016C250.69 468.987 250.081 469.51 249.985 470.201C249.966 470.35 249.937 470.494 249.909 470.638L248.566 476.832C248.432 477.479 248.293 478.113 248.288 478.775C248.283 479.437 248.417 480.113 248.782 480.665C248.849 480.771 248.93 480.871 249.041 480.939C249.146 481.006 249.204 480.953 249.314 480.891Z" fill="white"/>
<path d="M251.692 480.051C251.692 478.463 250.403 478.612 248.815 478.612C247.228 478.612 245.938 478.463 245.938 480.051C245.938 481.639 247.228 484.369 248.815 484.369C250.407 484.369 251.692 481.639 251.692 480.051Z" fill="#ADCB53"/>
<path d="M146.942 505.417C146.548 505.417 146.213 505.129 146.155 504.731C145.167 497.376 143.091 490.155 139.993 483.28C135.385 473.056 129.045 464.684 121.152 458.403C113.335 452.18 104.31 452.756 96.3932 459.977C87.6847 467.922 80.5443 484.043 77.2882 503.109C77.2163 503.541 76.8086 503.829 76.3723 503.757C75.9407 503.685 75.653 503.273 75.7249 502.841C79.0337 483.443 86.3611 466.982 95.3238 458.806C103.874 451.005 113.647 450.405 122.135 457.165C130.225 463.604 136.718 472.173 141.432 482.627C144.597 489.647 146.712 497.011 147.723 504.52C147.781 504.952 147.479 505.355 147.042 505.412C147.009 505.412 146.975 505.417 146.942 505.417Z" fill="#ADCB53"/>
<path d="M130.278 505.907C129.861 505.907 129.511 505.58 129.487 505.158C129.204 499.876 129.669 494.588 130.872 489.436C131.505 486.734 132.867 483.27 135.793 482.1C138.958 480.833 141.504 483.174 142.837 485.789C143.034 486.178 142.88 486.658 142.492 486.854C142.103 487.051 141.624 486.898 141.427 486.509C140.938 485.545 139.121 482.474 136.387 483.573C133.975 484.537 132.867 487.891 132.421 489.8C131.251 494.804 130.801 499.943 131.074 505.076C131.098 505.513 130.762 505.887 130.326 505.911C130.302 505.907 130.292 505.907 130.278 505.907Z" fill="#ADCB53"/>
<path d="M120.524 505.12C120.111 505.12 119.766 504.803 119.733 504.386C119.263 498.12 119.545 491.801 120.572 485.607C120.97 483.189 121.507 480.632 122.73 478.314C124.101 475.704 126.158 473.848 128.518 473.09C131.635 472.082 136.43 473.737 138.19 476.424C138.43 476.789 138.329 477.283 137.96 477.523C137.595 477.763 137.102 477.662 136.862 477.292C135.485 475.196 131.448 473.809 129.002 474.596C127.07 475.22 125.29 476.841 124.13 479.048C123.017 481.164 122.514 483.573 122.135 485.861C121.133 491.935 120.855 498.125 121.315 504.266C121.349 504.702 121.022 505.081 120.581 505.115C120.562 505.115 120.543 505.12 120.524 505.12Z" fill="#ADCB53"/>
<path d="M107.562 505.101C107.13 505.101 106.78 504.755 106.77 504.323C106.598 496.762 107.576 489.877 109.945 482.004L110.209 481.116C111.993 475.143 114.688 466.113 120.452 462.961C125.108 460.414 128.8 464.065 131.246 466.483C131.558 466.79 131.558 467.294 131.251 467.606C130.944 467.917 130.441 467.917 130.129 467.61C127.232 464.741 124.561 462.52 121.214 464.353C116.025 467.193 113.441 475.843 111.734 481.572L111.47 482.46C109.154 490.165 108.195 496.896 108.362 504.29C108.372 504.726 108.027 505.091 107.59 505.101C107.571 505.101 107.566 505.101 107.562 505.101Z" fill="#ADCB53"/>
<path d="M270.246 506.641H147.004C146.567 506.641 146.212 506.286 146.212 505.849C146.212 505.412 146.567 505.057 147.004 505.057H270.246C270.682 505.057 271.037 505.412 271.037 505.849C271.037 506.286 270.682 506.641 270.246 506.641Z" fill="#ADCB53"/>
<path d="M47.2593 488.577H0.26416V489.536H47.2593V488.577Z" fill="#C8D3DD"/>
<path d="M37.9083 495.054H13.9312V496.013H37.9083V495.054Z" fill="#C8D3DD"/>
<path d="M416.451 103.374H444.572C445.022 100.85 445.272 98.2544 445.272 95.5964C445.272 93.6053 444.975 91.2832 444.428 88.7355H416.451C413.425 88.7355 410.965 86.2695 410.965 83.2468C410.965 80.2194 413.43 77.7581 416.451 77.7581H441.2C439.57 73.1714 437.522 68.22 435.235 63.12H416.451C413.425 63.12 410.965 60.6539 410.965 57.6312C410.965 54.6038 413.43 52.1425 416.451 52.1425H430.061C427.634 47.2008 425.083 42.259 422.551 37.5044H416.442C413.416 37.5044 410.956 35.0383 410.956 32.0157C410.956 28.9882 413.421 26.5269 416.442 26.5269H416.562C408.237 11.5673 401.346 0.43158 401.346 0.43158C401.346 0.43158 394.455 11.5673 386.13 26.5174H386.25C389.276 26.5174 391.736 28.9834 391.736 32.0061C391.736 35.0335 389.271 37.4948 386.25 37.4948H380.14C379.042 39.5578 377.944 41.6593 376.851 43.7703C377.925 43.8375 378.989 44.2741 379.81 45.0274C379.91 45.1185 380.001 45.2145 380.088 45.3152C380.116 45.344 380.145 45.368 380.174 45.392C380.908 46.1261 381.641 46.8601 382.38 47.599C383.545 48.7649 405.969 134.248 407.522 139.079C422.374 136.978 434.842 127.44 441.033 114.351H416.451C413.425 114.351 410.965 111.885 410.965 108.862C410.965 105.84 413.43 103.374 416.451 103.374Z" fill="#ADCB53"/>
<path d="M399.467 431.66C398.541 431.66 397.788 430.907 397.788 429.981V231.831C397.788 230.905 398.541 230.151 399.467 230.151C400.392 230.151 401.145 230.905 401.145 231.831V429.981C401.145 430.907 400.397 431.66 399.467 431.66Z" fill="#1A3C5B"/>
<path d="M368.45 245.596H346.53C335.011 245.596 323.929 242.088 314.473 235.458C305.237 228.981 298.216 220.023 294.183 209.559C290.659 200.448 290.232 189.994 292.975 180.115L327.305 56.5373C331.17 42.6188 342.996 33.6229 357.43 33.6229H357.435C371.864 33.6229 383.685 42.6093 387.56 56.5229C397.069 90.6691 407.087 126.605 414.28 152.407L421.996 180.091C424.758 189.994 424.331 200.472 420.802 209.598C416.759 220.052 409.738 228.995 400.502 235.467C391.041 242.098 379.959 245.596 368.45 245.596ZM357.435 37.7011H357.43C344.876 37.7059 334.589 45.5263 331.228 57.636L296.897 181.214C294.385 190.253 294.768 199.8 297.981 208.096C305.697 228.093 325.21 241.522 346.535 241.522H368.455C389.77 241.522 409.283 228.103 417.008 208.129C420.226 199.82 420.605 190.248 418.078 181.19L410.362 153.506C403.169 127.703 393.151 91.7678 383.642 57.6216C380.271 45.5215 369.984 37.7011 357.435 37.7011Z" fill="#1A3C5B"/>
<path d="M357.497 151.294C348.098 151.294 339.5 145.738 335.591 137.136C335.208 136.292 335.582 135.298 336.426 134.915C337.27 134.531 338.262 134.905 338.646 135.749C342.012 143.152 349.412 147.941 357.497 147.941C365.582 147.941 372.981 143.152 376.348 135.749C376.731 134.905 377.729 134.531 378.568 134.915C379.412 135.298 379.786 136.296 379.402 137.136C375.494 145.734 366.891 151.294 357.497 151.294Z" fill="#1A3C5B"/>
<path d="M371.7 134.857C372.731 131.527 376.265 129.661 379.593 130.693C382.921 131.724 384.787 135.26 383.756 138.59C382.725 141.919 379.19 143.786 375.862 142.754C372.534 141.723 370.669 138.187 371.7 134.857Z" fill="#1A3C5B"/>
<path d="M343.292 134.857C342.261 131.527 338.727 129.661 335.399 130.693C332.071 131.724 330.205 135.26 331.236 138.59C332.267 141.919 335.801 143.786 339.129 142.754C342.457 141.723 344.323 138.187 343.292 134.857Z" fill="#1A3C5B"/>
<path d="M357.497 194.811C342.118 194.811 328.331 184.476 323.972 169.68C323.708 168.792 324.217 167.857 325.109 167.593C325.996 167.329 326.931 167.837 327.195 168.73C331.136 182.106 343.595 191.447 357.497 191.447C371.399 191.447 383.862 182.106 387.799 168.725C388.063 167.837 388.993 167.329 389.885 167.588C390.772 167.852 391.281 168.783 391.022 169.675C386.663 184.476 372.876 194.811 357.497 194.811Z" fill="#1A3C5B"/>
<path d="M383.134 168.25C383.829 164.834 387.162 162.627 390.576 163.323C393.99 164.018 396.196 167.353 395.501 170.769C394.806 174.185 391.473 176.392 388.058 175.696C384.644 175 382.438 171.666 383.134 168.25Z" fill="#1A3C5B"/>
<path d="M331.86 168.25C331.164 164.834 327.832 162.627 324.417 163.323C321.003 164.018 318.797 167.353 319.492 170.769C320.188 174.185 323.521 176.392 326.935 175.696C330.349 175 332.555 171.666 331.86 168.25Z" fill="#1A3C5B"/>
<path d="M357.497 441.496C356.571 441.496 355.818 440.742 355.818 439.816V101.67C355.818 100.744 356.571 99.9912 357.497 99.9912C358.422 99.9912 359.175 100.744 359.175 101.67V439.816C359.175 440.742 358.422 441.496 357.497 441.496Z" fill="#1A3C5B"/>
<path d="M357.497 107.538C354.361 107.538 351.81 104.986 351.81 101.848C351.81 98.7102 354.361 96.1577 357.497 96.1577C360.633 96.1577 363.184 98.7102 363.184 101.848C363.184 104.986 360.633 107.538 357.497 107.538ZM357.497 100.231C356.605 100.231 355.881 100.956 355.881 101.848C355.881 102.74 356.605 103.465 357.497 103.465C358.389 103.465 359.113 102.74 359.113 101.848C359.113 100.956 358.389 100.231 357.497 100.231Z" fill="#1A3C5B"/>
<path d="M383.459 508.703C383.028 508.703 382.673 508.358 382.663 507.926C382.227 487.564 386.461 464.871 394.594 444.024C397.304 437.072 401.303 428.287 408.199 422.016C412.73 417.895 421.861 412.987 428.44 416.345C440.558 422.535 445.239 439.217 447.703 451.23C450.691 465.787 453.707 481.346 454.873 497.385C454.906 497.822 454.575 498.206 454.139 498.235C453.707 498.268 453.319 497.937 453.29 497.501C452.134 481.557 449.128 466.06 446.15 451.552C443.752 439.859 439.23 423.643 427.721 417.766C421.856 414.772 413.474 419.373 409.268 423.197C402.617 429.242 398.723 437.816 396.076 444.605C388.02 465.259 383.824 487.737 384.255 507.893C384.265 508.334 383.915 508.694 383.478 508.703C383.469 508.703 383.464 508.703 383.459 508.703Z" fill="#C8D3DD"/>
<path d="M383.727 398.094C361.026 398.094 342.554 379.613 342.554 356.9V322.073C342.554 316.925 346.721 312.755 351.867 312.755C357.012 312.755 361.179 316.925 361.179 322.073V356.9C361.179 369.341 371.293 379.46 383.727 379.46C396.162 379.46 406.275 369.341 406.275 356.9V322.236C406.275 317.088 410.443 312.919 415.588 312.919C420.734 312.919 424.901 317.088 424.901 322.236V356.9C424.901 379.618 406.429 398.094 383.727 398.094Z" fill="#ADCB53"/>
<path d="M383.728 515.176C378.582 515.176 374.415 511.006 374.415 505.858V278.609C374.415 273.461 378.582 269.292 383.728 269.292C388.873 269.292 393.041 273.461 393.041 278.609V505.858C393.041 511.006 388.868 515.176 383.728 515.176Z" fill="#ADCB53"/>
<path d="M383.728 389.401C365.817 389.401 351.249 374.82 351.249 356.905V326.516C351.249 326.175 351.527 325.897 351.867 325.897C352.208 325.897 352.486 326.175 352.486 326.516V356.905C352.486 374.139 366.498 388.163 383.728 388.163C400.958 388.163 414.97 374.144 414.97 356.905V326.679C414.97 326.338 415.248 326.06 415.589 326.06C415.929 326.06 416.207 326.338 416.207 326.679V356.905C416.207 374.82 401.639 389.401 383.728 389.401Z" fill="#11283C"/>
<path d="M410.918 326.909C410.918 324.328 413.008 322.236 415.588 322.236C418.168 322.236 420.254 324.328 420.254 326.909C420.254 329.49 418.163 331.577 415.588 331.577C413.008 331.582 410.918 329.49 410.918 326.909Z" fill="#11283C"/>
<path d="M356.533 326.746C356.533 324.165 354.442 322.073 351.862 322.073C349.282 322.073 347.192 324.165 347.192 326.746C347.192 329.327 349.282 331.414 351.862 331.414C354.442 331.414 356.533 329.322 356.533 326.746Z" fill="#11283C"/>
<path d="M383.728 506.482C383.388 506.482 383.109 506.204 383.109 505.863V283.052C383.109 282.712 383.388 282.433 383.728 282.433C384.069 282.433 384.347 282.712 384.347 283.052V505.863C384.347 506.204 384.069 506.482 383.728 506.482Z" fill="#11283C"/>
<path d="M388.059 285.054C389.046 282.669 387.914 279.935 385.531 278.948C383.148 277.96 380.415 279.092 379.428 281.477C378.441 283.861 379.573 286.595 381.956 287.583C384.339 288.57 387.072 287.438 388.059 285.054Z" fill="#11283C"/>
<path d="M419.41 509.462C418.969 509.462 418.614 509.107 418.614 508.665V436.631C418.614 436.189 418.969 435.834 419.41 435.834C419.852 435.834 420.206 436.189 420.206 436.631V508.665C420.206 509.107 419.852 509.462 419.41 509.462Z" fill="#C8D3DD"/>
<path d="M424.196 436.87C424.196 434.227 422.053 432.082 419.415 432.082C416.773 432.082 414.63 434.227 414.63 436.87C414.63 439.514 416.773 441.654 419.415 441.654C422.053 441.654 424.196 439.509 424.196 436.87Z" fill="#C8D3DD"/>
<path d="M408.42 507.931C407.979 507.931 407.624 507.576 407.624 507.135V458.288C407.624 457.846 407.979 457.491 408.42 457.491C408.861 457.491 409.216 457.846 409.216 458.288V507.135C409.211 507.576 408.856 507.931 408.42 507.931Z" fill="#C8D3DD"/>
<path d="M413.201 458.528C413.201 455.884 411.057 453.74 408.415 453.74C405.773 453.74 403.634 455.884 403.634 458.528C403.634 461.171 405.777 463.311 408.415 463.311C411.052 463.311 413.201 461.171 413.201 458.528Z" fill="#C8D3DD"/>
<path d="M431.519 509.462C431.078 509.462 430.723 509.107 430.723 508.665V450.611C430.723 450.17 431.078 449.815 431.519 449.815C431.96 449.815 432.315 450.17 432.315 450.611V508.665C432.315 509.107 431.96 509.462 431.519 509.462Z" fill="#C8D3DD"/>
<path d="M436.304 450.851C436.304 448.208 434.161 446.063 431.523 446.063C428.886 446.063 426.742 448.208 426.742 450.851C426.742 453.495 428.886 455.635 431.523 455.635C434.161 455.635 436.304 453.495 436.304 450.851Z" fill="#C8D3DD"/>
<path d="M312.578 412.061C312.142 412.061 311.787 411.706 311.787 411.269V327.907C311.787 327.47 312.142 327.115 312.578 327.115C313.014 327.115 313.369 327.47 313.369 327.907V411.269C313.369 411.706 313.014 412.061 312.578 412.061Z" fill="#ADCB53"/>
<path d="M317.345 328.142C317.345 325.508 315.211 323.373 312.579 323.373C309.946 323.373 307.812 325.508 307.812 328.142C307.812 330.776 309.946 332.911 312.579 332.911C315.211 332.916 317.345 330.776 317.345 328.142Z" fill="#ADCB53"/>
<path d="M327.559 425.015C327.123 425.015 326.768 424.66 326.768 424.223V341.888C326.768 341.451 327.123 341.096 327.559 341.096C327.995 341.096 328.35 341.451 328.35 341.888V424.223C328.355 424.66 328 425.015 327.559 425.015Z" fill="#ADCB53"/>
<path d="M332.33 342.128C332.33 339.494 330.196 337.359 327.564 337.359C324.931 337.359 322.797 339.494 322.797 342.128C322.797 344.762 324.931 346.897 327.564 346.897C330.196 346.897 332.33 344.762 332.33 342.128Z" fill="#ADCB53"/>
<path d="M359.678 487.248C358.432 488.86 356.408 490.011 354.404 490.884C348.759 493.346 342.544 494.483 336.387 495.538C314.597 499.266 291.56 502.13 270.656 495.428C265.17 493.667 255.018 489.824 255.124 483.908C255.239 477.479 259.833 469.342 262.341 463.436C265.847 455.184 269.899 447.09 274.718 439.389C281.844 427.999 293.67 411.025 310.252 411.025C326.772 411.025 338.569 427.889 345.69 439.236C350.457 446.826 354.471 454.81 357.952 462.947C360.489 468.872 364.32 481.25 359.678 487.248Z" fill="#1A3C5B"/>
<path d="M321.68 501.651C320.759 491.954 329.679 480.468 332.498 472.624C336.066 462.697 339.567 455.328 347.302 447.378C349.973 444.633 352.711 441.841 356.125 440.114C362.038 437.125 368.699 438.67 373.418 442.94C382.476 451.134 387.828 462.788 391.913 474.082C395.141 483.002 403.092 499.084 397.332 508.008C392.11 517.148 375.623 518.789 366.483 519.403C355.31 520.151 329.18 517.872 323.094 506.449C322.284 504.918 321.838 503.311 321.68 501.651Z" fill="#11283C"/>
<path d="M400.243 510.536C399.807 510.536 399.452 510.181 399.452 509.745C399.438 497.217 395.237 485.592 391.17 474.351C387.593 464.463 382.284 452.027 372.89 443.525C368.08 439.173 361.794 438.137 356.49 440.819C353.157 442.503 350.472 445.262 347.877 447.929C340.157 455.86 335.251 466.305 330.503 476.405C330.053 477.364 329.607 478.314 329.156 479.264C324.989 488.068 321.968 497.606 320.423 506.852C320.351 507.283 319.944 507.576 319.512 507.504C319.081 507.432 318.788 507.024 318.86 506.592C320.428 497.208 323.493 487.526 327.722 478.588C328.168 477.642 328.619 476.692 329.065 475.733C333.865 465.513 338.833 454.949 346.736 446.826C349.297 444.197 352.198 441.212 355.771 439.409C361.674 436.424 368.641 437.552 373.95 442.354C383.608 451.086 389.022 463.757 392.657 473.814C396.767 485.185 401.02 496.939 401.034 509.745C401.034 510.181 400.68 510.536 400.243 510.536Z" fill="#ADCB53"/>
<path d="M342.253 507.926C341.874 507.926 341.538 507.653 341.471 507.269C340.157 499.765 337.927 493.178 335.189 488.711C333.908 486.624 331.314 484.379 328.221 484.916C327.746 484.997 327.329 485.127 326.946 485.305C326.547 485.492 326.078 485.319 325.891 484.921C325.704 484.522 325.876 484.052 326.274 483.865C326.778 483.63 327.344 483.457 327.948 483.352C331.823 482.675 334.997 485.367 336.541 487.876C339.385 492.506 341.691 499.295 343.034 506.991C343.111 507.423 342.823 507.835 342.392 507.907C342.344 507.926 342.296 507.926 342.253 507.926Z" fill="#ADCB53"/>
<path d="M355.584 507.538C355.219 507.538 354.888 507.283 354.807 506.909C352.423 495.644 347.676 485.209 340.689 475.891C339.725 474.605 338.569 473.185 337.016 472.586C335.735 472.091 334.335 472.159 332.738 472.792C332.331 472.955 331.87 472.753 331.707 472.346C331.544 471.938 331.746 471.477 332.153 471.314C334.114 470.537 335.941 470.465 337.586 471.103C339.442 471.818 340.785 473.368 341.96 474.936C349.086 484.441 353.929 495.087 356.36 506.578C356.451 507.005 356.178 507.427 355.751 507.518C355.689 507.533 355.636 507.538 355.584 507.538Z" fill="#ADCB53"/>
<path d="M368.622 506.65C368.257 506.65 367.931 506.396 367.85 506.026C364.685 491.546 358.321 477.767 349.435 466.171C346.769 462.688 342.319 459.478 338.411 460.154C337.979 460.231 337.567 459.938 337.495 459.507C337.418 459.075 337.711 458.667 338.142 458.59C343.019 457.746 347.954 461.627 350.697 465.206C359.717 476.985 366.186 490.98 369.399 505.69C369.495 506.117 369.221 506.54 368.794 506.636C368.732 506.645 368.675 506.65 368.622 506.65Z" fill="#ADCB53"/>
<path d="M310.871 294.989C313.027 294.989 314.774 293.241 314.774 291.084C314.774 288.927 313.027 287.178 310.871 287.178C308.715 287.178 306.967 288.927 306.967 291.084C306.967 293.241 308.715 294.989 310.871 294.989Z" fill="#ADCB53"/>
<path d="M310.871 277.204C314.616 277.204 317.651 274.166 317.651 270.42C317.651 266.673 314.616 263.635 310.871 263.635C307.126 263.635 304.09 266.673 304.09 270.42C304.09 274.166 307.126 277.204 310.871 277.204Z" fill="#ADCB53"/>
<path d="M319.805 507.538H275.687C275.251 507.538 274.896 507.183 274.896 506.746C274.896 506.309 275.251 505.954 275.687 505.954H319.805C320.242 505.954 320.596 506.309 320.596 506.746C320.596 507.183 320.242 507.538 319.805 507.538Z" fill="#ADCB53"/>
<path d="M282.88 506.098C282.443 506.098 282.089 505.743 282.089 505.307V474.601C282.089 474.164 282.443 473.809 282.88 473.809C283.316 473.809 283.671 474.164 283.671 474.601V505.307C283.671 505.743 283.316 506.098 282.88 506.098Z" fill="#ADCB53"/>
<path d="M294.258 461.248C294.455 461.071 294.642 460.879 294.819 460.668C295.634 459.674 295.577 458.192 294.651 457.261L292.757 455.366C287.386 449.992 278.592 449.992 273.221 455.366L271.326 457.261C270.401 458.187 270.343 459.67 271.159 460.668C271.331 460.879 271.499 461.099 271.653 461.32C272.938 463.153 275.005 463.959 276.625 465.504C278.774 467.552 279.699 470.82 282.399 472.288C285.722 474.097 287.617 471.578 289.151 468.762C290.148 466.934 290.925 464.981 292.11 463.263C292.69 462.414 293.524 461.915 294.258 461.248Z" fill="white"/>
<path d="M283.483 476.083C281.162 475.44 278.745 475.143 276.338 475.195C274.079 475.243 271.897 475.882 269.658 475.838C269.447 475.834 269.231 475.838 269.02 475.853C268.023 475.91 267.116 475.195 266.958 474.188L266.637 472.13C265.721 466.291 269.744 460.764 275.58 459.847L277.638 459.526C278.645 459.367 279.604 460.01 279.853 460.98C279.906 461.186 279.968 461.387 280.035 461.589C280.831 463.911 281.733 466.195 282.409 468.555C283.095 470.959 283.325 473.348 283.541 475.824" fill="#C8D3DD"/>
<path d="M283.378 476.078C284.26 476.112 285.353 475.431 286.226 475.215C287.339 474.941 288.485 474.783 289.631 474.749C291.549 474.687 293.482 474.956 295.304 475.555C296.675 476.006 298.713 476.069 299.011 474.188L299.332 472.13C300.248 466.291 296.225 460.764 290.389 459.847L288.331 459.526C287.324 459.367 286.365 460.01 286.116 460.98C286.063 461.186 286.001 461.387 285.934 461.589L282.984 470.187C282.682 471.084 282.38 471.967 282.265 472.902C282.15 473.843 282.227 474.831 282.653 475.675C282.735 475.838 282.831 475.997 282.975 476.107C283.119 476.213 283.21 476.145 283.378 476.078Z" fill="#C8D3DD"/>
<path d="M285.996 475.8C285.996 474.212 284.706 474.361 283.119 474.361C281.532 474.361 280.242 474.212 280.242 475.8C280.242 477.388 281.532 480.118 283.119 480.118C284.706 480.118 285.996 477.388 285.996 475.8Z" fill="#ADCB53"/>
<path d="M288.037 64.6957C290.439 65.2714 292.845 65.847 295.258 66.411C292.192 68.134 289.13 69.8686 286.057 71.5954" fill="#ADCB53"/>
<path d="M279.018 68.3156C279.018 78.8158 270.504 87.3341 260.009 87.3341C249.514 87.3341 241 78.8158 241 68.3156C241 67.9138 279.018 67.9138 279.018 68.3156Z" fill="#1A3C5B"/>
<path d="M278.481 72.99C271.029 79.5343 259.692 78.8041 253.144 71.352C246.595 63.8999 247.332 52.5537 254.781 46.0017C255.067 45.7506 278.767 72.7428 278.481 72.99Z" fill="#AECC53"/>
<path d="M278.262 76.5751C283.884 76.5751 288.44 72.0165 288.44 66.3917C288.44 60.7669 283.88 56.2083 278.262 56.2083C272.64 56.2083 268.083 60.7669 268.083 66.3917C268.08 72.0165 272.64 76.5751 278.262 76.5751Z" fill="#11283C"/>
<path d="M278.262 77.4443C272.168 77.4443 267.214 72.4878 267.214 66.3917C267.214 60.2956 272.168 55.3391 278.262 55.3391C284.355 55.3391 289.309 60.2956 289.309 66.3917C289.309 72.4878 284.351 77.4443 278.262 77.4443ZM278.262 57.0737C273.126 57.0737 268.948 61.2537 268.948 66.3917C268.948 71.5298 273.126 75.7098 278.262 75.7098C283.397 75.7098 287.575 71.5298 287.575 66.3917C287.575 61.2537 283.393 57.0737 278.262 57.0737Z" fill="#ADCB53"/>
<path d="M231.368 435.664H210V436.485H231.368V435.664Z" fill="#11283C"/>
<path d="M397.656 423.948C404.801 426.337 411.52 430.564 416.828 436.403C417.552 437.19 417.5 438.418 416.708 439.138C415.922 439.853 414.704 439.795 413.989 439.008C410.033 432.843 404.427 427.556 397.656 423.948Z" fill="#CCCBCB"/>
<path d="M419.428 432.694C423.633 434.729 427.58 437.435 430.999 440.779C434.428 444.113 437.319 448.057 439.578 452.375C440.072 453.315 439.707 454.481 438.768 454.971C437.828 455.465 436.662 455.1 436.173 454.16C433.099 445.466 427.23 437.804 419.428 432.694Z" fill="#CCCBCB"/>
<path d="M393.993 420.877C402.365 419.232 411.381 420.129 419.624 423.43C420.617 423.818 421.106 424.946 420.708 425.939C420.286 427.028 418.948 427.479 417.946 426.884C410.911 422.744 402.519 420.508 393.993 420.877Z" fill="#CCCBCB"/>
</svg>
