<svg width="444" height="603" viewBox="0 0 444 603" fill="none" xmlns="http://www.w3.org/2000/svg">
<path d="M110.453 535.977C109.527 535.977 108.774 535.06 108.774 533.932V46.4208C108.774 45.2927 109.527 44.3751 110.453 44.3751C111.378 44.3751 112.131 45.2927 112.131 46.4208V533.932C112.131 535.06 111.383 535.977 110.453 535.977Z" fill="#1A3C5B"/>
<path d="M81.6608 89.465H38.5739C29.0166 89.465 21.1953 97.2902 21.1953 106.852C21.1953 107.006 21.2145 107.155 21.2193 107.308C21.2097 107.462 21.1953 107.61 21.1953 107.764V129.589C21.1953 134.104 24.3747 138.139 28.8344 138.835C34.4547 139.713 39.346 135.332 39.346 129.867V128.798C39.346 126.283 41.384 124.249 43.892 124.249C46.4048 124.249 48.4381 126.288 48.4381 128.798V144.151C48.4381 149.145 52.5238 153.228 57.5158 153.228C62.5079 153.228 66.5888 149.14 66.5888 144.151V128.798C66.5888 126.283 68.6268 124.249 71.1348 124.249H81.656C91.2132 124.249 99.0346 116.424 99.0346 106.862C99.0394 97.2903 91.218 89.465 81.6608 89.465Z" fill="#1A3C5B"/>
<path d="M60.4655 74.0784H17.3786C8.26731 74.0784 0.752881 81.1888 0.0671359 90.1319C0.0287725 90.4294 0 90.7269 0 91.0339V91.4657V119.615C0 123.021 2.43128 126.068 5.80246 126.514C9.88816 127.056 13.408 123.851 13.408 119.864V112.653C13.408 110.503 15.1871 108.843 17.3354 108.848C17.3498 108.848 17.3642 108.848 17.3786 108.848H60.4655C70.0227 108.848 77.8441 101.023 77.8441 91.4609C77.8441 81.9037 70.0227 74.0784 60.4655 74.0784Z" fill="#ADCB53"/>
<path d="M110.452 176.689H102.789C83.061 176.689 67.0107 160.631 67.0107 140.893V125.559C67.0107 124.633 67.7636 123.88 68.6891 123.88C69.6147 123.88 70.3675 124.633 70.3675 125.559V140.893C70.3675 158.779 84.9121 173.331 102.789 173.331H110.452C111.378 173.331 112.131 174.084 112.131 175.01C112.131 175.936 111.383 176.689 110.452 176.689Z" fill="#1A3C5B"/>
<path d="M73.274 164.33H65.611C53.5553 164.33 33.3809 164.33 30.1968 139.012C30.0817 138.091 30.7338 137.251 31.6546 137.136C32.5753 137.021 33.4145 137.674 33.5296 138.595C34.7572 148.368 38.7518 154.711 45.7339 157.992C51.5987 160.746 58.485 160.977 65.611 160.977H73.274C74.1995 160.977 74.9524 161.73 74.9524 162.656C74.9524 163.582 74.2043 164.33 73.274 164.33Z" fill="#1A3C5B"/>
<path d="M152.921 128.889H145.258C144.332 128.889 143.579 128.135 143.579 127.21C143.579 126.284 144.332 125.53 145.258 125.53H152.921C160.047 125.53 166.933 125.3 172.798 122.546C179.78 119.264 183.774 112.922 185.002 103.148C185.117 102.227 185.956 101.575 186.877 101.69C187.798 101.805 188.45 102.645 188.335 103.566C185.151 128.889 164.976 128.889 152.921 128.889Z" fill="#1A3C5B"/>
<path d="M110.477 107.155C109.824 107.155 109.201 106.771 108.933 106.133C108.568 105.279 108.966 104.295 109.82 103.93C121.871 98.8064 129.658 87.0805 129.658 74.0496V58.7158C129.658 57.7898 130.411 57.0365 131.337 57.0365C132.262 57.0365 133.015 57.7898 133.015 58.7158V74.0496C133.015 88.4287 124.427 101.373 111.134 107.02C110.918 107.111 110.697 107.155 110.477 107.155Z" fill="#1A3C5B"/>
<path d="M118.116 141.713H110.453C109.527 141.713 108.774 140.96 108.774 140.034C108.774 139.108 109.527 138.355 110.453 138.355H118.116C135.993 138.355 150.538 123.803 150.538 105.917V90.583C150.538 89.657 151.291 88.9037 152.216 88.9037C153.142 88.9037 153.895 89.657 153.895 90.583V105.917C153.899 125.655 137.849 141.713 118.116 141.713Z" fill="#1A3C5B"/>
<path d="M176.021 70.4417H197.562C207.119 70.4417 214.941 78.2669 214.941 87.829C214.941 87.9825 214.922 88.1313 214.917 88.2848C214.926 88.4383 214.941 88.587 214.941 88.7406V110.566C214.941 115.081 211.761 119.116 207.302 119.811C201.681 120.689 196.79 116.309 196.79 110.844V109.774C196.79 107.26 194.752 105.226 192.244 105.226C189.731 105.226 176.021 105.226 176.021 105.226C166.464 105.226 158.642 97.4006 158.642 87.8386C158.638 78.2669 166.459 70.4417 176.021 70.4417Z" fill="#1A3C5B"/>
<path d="M65.5103 79.7494H42.5738C38.3011 79.7494 34.8101 76.2518 34.8101 71.9817V69.0887C34.8101 64.8138 38.3059 61.321 42.5738 61.321H65.5103C69.7831 61.321 73.2741 64.8186 73.2741 69.0887V71.9817C73.2789 76.2566 69.7831 79.7494 65.5103 79.7494Z" fill="#ADCB53"/>
<path d="M159.29 58.7158H108.276C102.407 58.7158 97.6064 53.9131 97.6064 48.0406V44.068C97.6064 38.1955 102.407 33.3929 108.276 33.3929H159.29C165.16 33.3929 169.96 38.1955 169.96 44.068V48.0406C169.96 53.9131 165.155 58.7158 159.29 58.7158Z" fill="#1A3C5B"/>
<path d="M154.121 9.49489H145.954V7.69571C145.954 3.46403 142.492 0 138.262 0H97.2661C93.0365 0 89.5742 3.46403 89.5742 7.69571V9.49489H83.8581C74.5502 9.49489 66.9351 17.1138 66.9351 26.4264V32.726C66.9351 42.0385 74.5502 49.6575 83.8581 49.6575H154.121C163.429 49.6575 171.044 42.0385 171.044 32.726V26.4264C171.039 17.1138 163.424 9.49489 154.121 9.49489Z" fill="#ADCB53"/>
<path d="M201.02 96.8201C201.02 88.0977 193.889 80.9633 185.171 80.9633H155.031C146.313 80.9633 139.183 88.0977 139.183 96.8201C139.183 105.543 146.313 112.677 155.031 112.677H185.171C185.228 112.677 185.291 112.677 185.348 112.677C186.959 112.658 188.384 113.56 189.16 114.97C190.383 117.192 192.901 118.612 195.682 118.185C198.804 117.705 201.024 114.874 201.024 111.717V99.9147C201.024 99.4973 200.981 99.0895 200.904 98.6912C200.967 98.0771 201.02 97.4534 201.02 96.8201Z" fill="#ADCB53"/>
<path d="M31.928 26.2441C28.763 26.2441 26.1831 23.6677 26.1831 20.4963C26.1831 17.3297 28.7582 14.7485 31.928 14.7485C35.0978 14.7485 37.6729 17.3249 37.6729 20.4963C37.6729 23.6677 35.0978 26.2441 31.928 26.2441ZM31.928 18.0878C30.5997 18.0878 29.5207 19.1673 29.5207 20.4963C29.5207 21.8253 30.5997 22.9048 31.928 22.9048C33.2564 22.9048 34.3353 21.8253 34.3353 20.4963C34.3401 19.1673 33.2564 18.0878 31.928 18.0878Z" fill="#ADCB53"/>
<path d="M199.767 40.8966C193.432 40.8966 188.282 35.739 188.282 29.4059C188.282 23.0727 193.437 17.9151 199.767 17.9151C206.097 17.9151 211.252 23.0727 211.252 29.4059C211.252 35.739 206.097 40.8966 199.767 40.8966ZM199.767 24.584C197.111 24.584 194.948 26.7479 194.948 29.4059C194.948 32.0639 197.111 34.2277 199.767 34.2277C202.424 34.2277 204.587 32.0639 204.587 29.4059C204.582 26.7479 202.424 24.584 199.767 24.584Z" fill="#ADCB53"/>
<path d="M246.686 497.679C245.861 497.679 245.036 497.52 244.23 497.146C238.802 494.613 239.286 487.997 239.67 482.681C239.833 480.469 239.982 478.382 239.732 476.803C239.128 472.984 239.833 470.11 242.245 466.555C244.058 463.892 246.705 461.575 250.575 459.272C251.308 458.835 252.148 458.437 253.035 458.02C255.078 457.055 257.192 456.058 258.195 454.484C259.269 452.8 260.65 451.36 262.3 450.209C265.09 448.261 268.361 447.325 271.751 447.508C273.439 447.599 274.979 446.735 275.77 445.253C276.734 443.454 278.072 441.947 279.755 440.772C287.744 435.197 301.617 435.489 309.448 441.395C311.122 442.657 312.714 444.85 311.678 446.874C311.141 447.92 310.072 448.472 309.108 448.909C308.628 449.125 308.129 449.341 307.621 449.561C305.056 450.67 302.145 451.927 300.466 454.004C299.713 454.935 299.143 455.947 298.591 456.931C297.603 458.682 296.587 460.491 294.51 461.94C292.827 463.115 290.947 463.854 288.929 464.132C287.265 464.363 285.922 465.509 285.423 467.126C284.421 470.369 282.412 473.119 279.621 475.062C277.971 476.213 276.144 477.014 274.192 477.437C272.725 477.758 271.526 478.857 271.066 480.315C269.838 484.187 267.421 487.464 264.083 489.791C262.563 490.851 261.24 491.154 259.844 491.47C259.35 491.581 258.842 491.701 258.305 491.854C256.823 492.281 255.452 493.327 254.128 494.339C253.644 494.709 253.145 495.088 252.656 495.433C251.049 496.561 248.882 497.679 246.686 497.679ZM270.936 448.933C268.136 448.933 265.45 449.777 263.124 451.399C261.628 452.44 260.381 453.74 259.408 455.266C258.185 457.185 255.773 458.327 253.649 459.33C252.795 459.733 251.989 460.116 251.308 460.519C247.626 462.712 245.122 464.89 243.434 467.371C241.219 470.629 240.6 473.123 241.152 476.583C241.43 478.324 241.272 480.493 241.104 482.791C240.73 487.92 240.303 493.735 244.835 495.846C247.285 496.988 250.273 495.342 251.836 494.263C252.301 493.941 252.766 493.586 253.255 493.212C254.684 492.118 256.166 490.986 257.907 490.487C258.482 490.324 259.01 490.204 259.523 490.084C260.837 489.786 261.969 489.527 263.259 488.625C266.332 486.481 268.558 483.458 269.694 479.893C270.313 477.95 271.919 476.477 273.885 476.045C275.65 475.661 277.3 474.937 278.796 473.896C281.323 472.135 283.136 469.65 284.047 466.714C284.704 464.593 286.54 463.024 288.727 462.717C290.521 462.467 292.189 461.81 293.686 460.769C295.493 459.507 296.39 457.919 297.335 456.23C297.915 455.199 298.515 454.134 299.344 453.107C301.248 450.751 304.331 449.422 307.05 448.247C307.554 448.031 308.043 447.82 308.518 447.604C309.29 447.254 310.072 446.86 310.398 446.227C311.069 444.912 309.573 443.295 308.585 442.552C301.2 436.981 288.113 436.708 280.58 441.962C279.084 443.003 277.894 444.341 277.041 445.939C276 447.887 273.885 449.072 271.675 448.952C271.43 448.938 271.185 448.933 270.936 448.933Z" fill="#ADCB53"/>
<path d="M240.193 518.554C240.188 518.554 240.183 518.554 240.178 518.554C239.78 518.544 239.464 518.218 239.473 517.82C239.761 503.335 244.676 488.452 252.618 478.012C262.865 464.535 276.499 453.884 292.05 447.21C292.415 447.052 292.837 447.22 292.995 447.589C293.153 447.954 292.981 448.376 292.616 448.535C277.295 455.112 263.858 465.61 253.764 478.886C246 489.095 241.195 503.661 240.912 517.853C240.902 518.242 240.581 518.554 240.193 518.554Z" fill="#ADCB53"/>
<path d="M214.351 480.747C211.574 480.747 207.373 478.315 203.657 474.548C201.408 472.269 196.19 466.248 196.272 459.497C196.31 456.523 197.073 453.577 198.487 450.977C198.943 450.137 199.47 449.326 200.056 448.568C200.981 447.364 201.197 445.752 200.617 444.365C199.849 442.523 199.461 440.565 199.461 438.55C199.461 435.144 200.564 431.929 202.65 429.247C203.69 427.913 203.863 426.157 203.101 424.66C202.175 422.842 201.705 420.88 201.705 418.826C201.705 414.93 204.088 409.571 206.318 405.853C207.431 403.996 211.315 397.946 214.6 397.946C220.139 397.946 227.495 412.272 227.495 418.826C227.495 420.88 227.025 422.842 226.099 424.66C225.337 426.157 225.51 427.913 226.55 429.247C228.636 431.929 229.739 435.144 229.739 438.55C229.739 440.565 229.351 442.518 228.583 444.365C228.008 445.752 228.224 447.369 229.154 448.578C231.624 451.802 232.928 455.654 232.928 459.728C232.933 470.153 222.124 480.747 214.351 480.747ZM199.749 451.663C198.449 454.057 197.739 456.772 197.711 459.512C197.658 463.82 200.267 469.06 204.683 473.536C208.093 476.99 211.977 479.308 214.355 479.308C221.438 479.308 231.499 469.179 231.499 459.723C231.499 455.971 230.295 452.421 228.022 449.451C226.78 447.834 226.493 445.67 227.265 443.809C227.96 442.139 228.31 440.369 228.31 438.55C228.31 435.47 227.313 432.558 225.423 430.135C224.061 428.384 223.826 425.98 224.824 424.008C225.644 422.391 226.061 420.649 226.061 418.826C226.061 411.922 218.671 399.386 214.605 399.386C211.181 399.386 203.149 411.941 203.149 418.826C203.149 420.649 203.566 422.396 204.386 424.008C205.388 425.975 205.153 428.384 203.786 430.135C201.897 432.558 200.9 435.47 200.9 438.55C200.9 440.373 201.25 442.144 201.945 443.809C202.722 445.67 202.434 447.829 201.197 449.441C200.655 450.137 200.171 450.885 199.749 451.663Z" fill="#ADCB53"/>
<path d="M214.6 511.64C214.202 511.64 213.881 511.319 213.881 510.921V414.182C213.881 413.784 214.202 413.462 214.6 413.462C214.998 413.462 215.32 413.784 215.32 414.182V510.921C215.32 511.319 214.998 511.64 214.6 511.64Z" fill="#ADCB53"/>
<path d="M289.596 550.627C288.929 551.486 287.85 552.1 286.781 552.57C283.769 553.885 280.456 554.489 277.171 555.051C265.547 557.042 253.256 558.568 242.107 554.993C239.181 554.053 233.767 552.004 233.82 548.847C233.883 545.417 236.333 541.08 237.671 537.927C239.541 533.523 241.704 529.205 244.274 525.098C248.077 519.024 254.383 509.966 263.231 509.966C272.045 509.966 278.336 518.962 282.134 525.016C284.676 529.066 286.819 533.321 288.675 537.664C290.027 540.825 292.07 547.427 289.596 550.627Z" fill="#C8D3DD"/>
<path d="M180.61 552.95C180.183 553.501 179.488 553.9 178.797 554.202C176.86 555.046 174.721 555.44 172.606 555.799C165.121 557.081 157.208 558.064 150.025 555.761C148.14 555.157 144.654 553.837 144.687 551.803C144.726 549.596 146.308 546.799 147.166 544.769C148.37 541.934 149.761 539.151 151.42 536.507C153.87 532.592 157.932 526.763 163.629 526.763C169.307 526.763 173.359 532.559 175.805 536.455C177.44 539.065 178.821 541.804 180.015 544.601C180.888 546.636 182.202 550.887 180.61 552.95Z" fill="#C8D3DD"/>
<path d="M69.4379 433.939C45.5471 433.939 26.1064 414.494 26.1064 390.586V354.108C26.1064 348.692 30.4943 344.302 35.9083 344.302C41.3223 344.302 45.7101 348.692 45.7101 354.108V390.586C45.7101 403.68 56.356 414.326 69.4379 414.326C74.8519 414.326 79.2397 418.716 79.2397 424.133C79.2397 429.549 74.8519 433.939 69.4379 433.939Z" fill="#ADCB53"/>
<path d="M69.4381 504.827C64.0241 504.827 59.6363 500.437 59.6363 495.021V308.193C59.6363 302.776 64.0241 298.386 69.4381 298.386C74.8522 298.386 79.24 302.776 79.24 308.193V495.021C79.24 500.437 74.8522 504.827 69.4381 504.827Z" fill="#ADCB53"/>
<path d="M69.4378 424.756C50.6062 424.756 35.2896 409.427 35.2896 390.591V358.546C35.2896 358.206 35.5677 357.927 35.9082 357.927C36.2487 357.927 36.5268 358.206 36.5268 358.546V390.591C36.5268 408.746 51.2919 423.519 69.4378 423.519C69.7783 423.519 70.0564 423.797 70.0564 424.137C70.0564 424.478 69.7831 424.756 69.4378 424.756Z" fill="#11283C"/>
<path d="M31.2418 358.777C31.2418 356.195 33.3326 354.104 35.9125 354.104C38.4924 354.104 40.5784 356.195 40.5784 358.777C40.5784 361.358 38.4876 363.445 35.9125 363.445C33.3326 363.45 31.2418 361.358 31.2418 358.777Z" fill="#11283C"/>
<path d="M69.4383 478.204C69.0978 478.204 68.8197 477.926 68.8197 477.585V312.631C68.8197 312.291 69.0978 312.012 69.4383 312.012C69.7788 312.012 70.0569 312.291 70.0569 312.631V477.585C70.0617 477.926 69.7836 478.204 69.4383 478.204Z" fill="#11283C"/>
<path d="M73.9749 313.953C74.5677 311.441 73.0131 308.924 70.5027 308.331C67.9922 307.738 65.4766 309.293 64.8838 311.805C64.291 314.317 65.8455 316.834 68.356 317.427C70.8664 318.02 73.3821 316.465 73.9749 313.953Z" fill="#11283C"/>
<path d="M96.5457 542.035C94.0137 533.49 91.2084 525.069 88.1393 516.808C82.6438 502.011 76.6159 478.631 62.6181 473.128C49.0231 467.783 38.8999 486.034 33.4476 498.221C27.0601 512.499 21.507 527.363 16.8554 542.668C13.8007 552.719 9.88285 574.334 9.13477 584.822" fill="#11283C"/>
<path d="M9.13567 585.613C9.11649 585.613 9.09731 585.613 9.07813 585.613C8.64175 585.579 8.31086 585.2 8.33963 584.764C9.1069 574.065 13.0919 552.307 16.0938 542.433C20.7358 527.161 26.3321 512.178 32.7243 497.894C42.1617 476.798 52.3184 468.22 62.9115 472.384C75.1878 477.211 81.4123 495.14 86.4091 509.544C87.2675 512.019 88.0827 514.361 88.8883 516.529C91.9526 524.786 94.7867 533.288 97.3139 541.809C97.4386 542.231 97.1988 542.673 96.7768 542.797C96.3548 542.922 95.9136 542.682 95.7889 542.26C93.2761 533.773 90.4516 525.304 87.3969 517.081C86.5865 514.898 85.7713 512.547 84.9081 510.062C80.0168 495.966 73.9266 478.42 62.3313 473.862C52.6733 470.062 43.2023 478.367 34.1774 498.542C27.8138 512.763 22.2416 527.689 17.6188 542.893C14.6408 552.686 10.6894 574.261 9.92692 584.874C9.89815 585.292 9.54808 585.613 9.13567 585.613Z" fill="#C8D3DD"/>
<path d="M47.1676 585.853C46.7264 585.853 46.3716 585.498 46.3716 585.057V507.001C46.3716 506.559 46.7264 506.204 47.1676 506.204C47.6088 506.204 47.9637 506.559 47.9637 507.001V585.057C47.9637 585.498 47.6088 585.853 47.1676 585.853Z" fill="#C8D3DD"/>
<path d="M51.9478 507.241C51.9478 504.597 49.8043 502.452 47.1668 502.452C44.5293 502.452 42.3857 504.597 42.3857 507.241C42.3857 509.884 44.5293 512.024 47.1668 512.024C49.8043 512.024 51.9478 509.884 51.9478 507.241Z" fill="#C8D3DD"/>
<path d="M69.7876 586.333C69.3464 586.333 68.9916 585.978 68.9916 585.536V539.228C68.9916 538.786 69.3464 538.431 69.7876 538.431C70.2288 538.431 70.5837 538.786 70.5837 539.228V585.536C70.5837 585.978 70.224 586.333 69.7876 586.333Z" fill="#C8D3DD"/>
<path d="M74.5688 539.463C74.5688 536.819 72.4253 534.675 69.7878 534.675C67.1455 534.675 65.002 536.819 65.002 539.463C65.002 542.106 67.1455 544.246 69.7878 544.246C72.4301 544.251 74.5688 542.106 74.5688 539.463Z" fill="#C8D3DD"/>
<path d="M58.3025 585.853C57.8613 585.853 57.5065 585.498 57.5065 585.057V523.87C57.5065 523.429 57.8613 523.073 58.3025 523.073C58.7437 523.073 59.0986 523.429 59.0986 523.87V585.057C59.0938 585.498 58.7389 585.853 58.3025 585.853Z" fill="#C8D3DD"/>
<path d="M63.084 524.11C63.084 521.466 60.9404 519.322 58.3029 519.322C55.6654 519.322 53.5171 521.466 53.5171 524.11C53.5171 526.754 55.6606 528.893 58.3029 528.893C60.9452 528.893 63.084 526.754 63.084 524.11Z" fill="#C8D3DD"/>
<path d="M259.734 568.595C258.708 563.423 255.955 557.56 254.622 553.688C252.09 546.314 249.285 539.05 246.216 531.916C240.72 519.149 234.693 498.969 220.695 494.219C207.1 489.604 196.977 505.36 191.524 515.877C186.518 525.53 182.034 535.5 178.087 545.709C178.648 545.633 179.234 545.642 179.814 545.748C190.733 547.787 199.921 556.015 206.428 564.599C212.274 572.304 216.643 581.808 216.321 591.577C231.504 591.514 254.454 588.693 259.586 575.485C260.329 573.585 260.247 571.176 259.734 568.595Z" fill="#1A3C5B"/>
<path d="M149.095 510.388C132.493 510.388 118.984 496.873 118.984 480.262C118.984 474.361 122.826 460.894 141.134 430.231C142.827 427.4 145.8 425.706 149.095 425.706C152.389 425.706 155.362 427.395 157.055 430.231C175.364 460.894 179.205 474.361 179.205 480.262C179.205 496.873 165.697 510.388 149.095 510.388ZM149.095 427.299C146.366 427.299 143.901 428.7 142.501 431.046C134.311 444.759 120.572 469.391 120.572 480.262C120.572 495.999 133.366 508.8 149.095 508.8C164.824 508.8 177.618 495.999 177.618 480.262C177.618 469.395 163.879 444.763 155.689 431.046C154.288 428.7 151.823 427.299 149.095 427.299Z" fill="#C8D3DD"/>
<path d="M149.099 473.349C143.215 473.349 138.108 469.156 136.952 463.379C136.866 462.947 137.144 462.53 137.576 462.443C138.007 462.357 138.424 462.635 138.511 463.067C139.518 468.105 143.968 471.761 149.099 471.761C154.225 471.761 158.68 468.105 159.687 463.067C159.774 462.635 160.191 462.357 160.622 462.443C161.054 462.53 161.332 462.947 161.246 463.379C160.09 469.156 154.983 473.349 149.099 473.349Z" fill="#C8D3DD"/>
<path d="M158.062 463.086C158.201 461.772 159.376 460.817 160.69 460.956C162.004 461.095 162.958 462.271 162.819 463.585C162.68 464.9 161.505 465.855 160.191 465.716C158.877 465.581 157.923 464.401 158.062 463.086Z" fill="#C8D3DD"/>
<path d="M140.136 463.086C139.997 461.772 138.822 460.817 137.508 460.956C136.194 461.095 135.24 462.271 135.379 463.585C135.518 464.9 136.693 465.855 138.007 465.716C139.32 465.581 140.275 464.401 140.136 463.086Z" fill="#C8D3DD"/>
<path d="M149.098 494.819C140.097 494.819 132.415 488.088 131.231 479.159C131.173 478.722 131.48 478.324 131.912 478.267C132.348 478.209 132.746 478.516 132.803 478.948C133.887 487.09 140.893 493.226 149.098 493.226C157.303 493.226 164.309 487.09 165.393 478.948C165.451 478.511 165.849 478.204 166.285 478.267C166.721 478.324 167.028 478.722 166.966 479.159C165.782 488.083 158.099 494.819 149.098 494.819Z" fill="#C8D3DD"/>
<path d="M163.758 478.981C163.859 477.662 165.01 476.678 166.329 476.784C167.648 476.885 168.631 478.036 168.525 479.356C168.424 480.675 167.274 481.659 165.955 481.553C164.641 481.452 163.658 480.301 163.758 478.981Z" fill="#C8D3DD"/>
<path d="M134.439 478.981C134.339 477.662 133.188 476.678 131.869 476.784C130.55 476.885 129.567 478.036 129.673 479.356C129.773 480.675 130.924 481.659 132.243 481.553C133.557 481.452 134.54 480.301 134.439 478.981Z" fill="#C8D3DD"/>
<path d="M149.104 543.445C148.663 543.445 148.308 543.09 148.308 542.649V450.348C148.308 449.907 148.663 449.552 149.104 449.552C149.545 449.552 149.9 449.907 149.9 450.348V542.649C149.9 543.09 149.545 543.445 149.104 543.445Z" fill="#C8D3DD"/>
<path d="M146.711 450.468C146.711 449.149 147.78 448.074 149.104 448.074C150.423 448.074 151.497 449.144 151.497 450.468C151.497 451.787 150.427 452.862 149.104 452.862C147.785 452.862 146.711 451.787 146.711 450.468Z" fill="#C8D3DD"/>
<path d="M148.352 537.841C145.355 530.836 142.41 525.631 135.912 520.022C133.668 518.084 131.366 516.112 128.499 514.893C123.526 512.782 117.93 513.876 113.964 516.889C106.349 522.67 101.851 530.899 98.4218 538.868C96.096 544.27 90.845 553.396 92.4659 559.858C98.5944 552.369 108.243 547.01 117.795 551.28C123.722 553.928 130.086 559.297 132.915 565.621C133.141 565.86 133.342 566.12 133.5 566.412C134.172 567.636 134.79 568.893 135.356 570.169C144.156 569.037 153.209 566.527 156.259 561.715C156.945 560.636 157.319 559.503 157.449 558.333C158.216 551.486 150.721 543.378 148.352 537.841Z" fill="#1A3C5B"/>
<path d="M139.345 570.86C138.976 570.86 138.66 570.577 138.631 570.202C137.988 562.646 140.232 554.931 144.942 548.483C146.246 546.698 148.917 544.788 152.164 545.259C152.557 545.316 152.83 545.681 152.773 546.074C152.715 546.468 152.351 546.741 151.957 546.684C149.344 546.3 147.171 547.873 146.102 549.332C141.594 555.502 139.451 562.867 140.06 570.082C140.093 570.481 139.801 570.826 139.403 570.86C139.384 570.86 139.365 570.86 139.345 570.86Z" fill="#11283C"/>
<path d="M127.506 574.612C127.113 574.612 126.792 574.29 126.787 573.897C126.701 560.904 131.189 548.967 139.758 539.367C140.756 538.249 142.54 537.112 144.098 536.608C145.47 536.167 146.995 536.215 148.63 536.757C149.009 536.882 149.21 537.29 149.086 537.669C148.961 538.048 148.553 538.249 148.174 538.124C146.817 537.673 145.628 537.625 144.544 537.976C143.23 538.403 141.672 539.386 140.837 540.322C132.508 549.653 128.149 561.259 128.23 573.887C128.225 574.285 127.904 574.612 127.506 574.612Z" fill="#11283C"/>
<path d="M116.098 573.758C116.084 573.758 116.065 573.758 116.05 573.758C115.652 573.734 115.355 573.388 115.379 572.995C116.352 558.093 122.466 544.078 133.055 532.468C135.366 529.934 139.514 527.185 143.6 527.785C143.993 527.842 144.266 528.207 144.209 528.6C144.151 528.994 143.787 529.267 143.394 529.21C140.094 528.73 136.354 530.99 134.119 533.441C123.752 544.808 117.767 558.52 116.813 573.091C116.789 573.465 116.472 573.758 116.098 573.758Z" fill="#11283C"/>
<path d="M180.231 420.175C182.832 420.175 184.94 418.065 184.94 415.463C184.94 412.861 182.832 410.752 180.231 410.752C177.63 410.752 175.522 412.861 175.522 415.463C175.522 418.065 177.63 420.175 180.231 420.175Z" fill="#C8D3DD"/>
<path d="M180.231 398.723C184.749 398.723 188.412 395.059 188.412 390.538C188.412 386.018 184.749 382.353 180.231 382.353C175.713 382.353 172.05 386.018 172.05 390.538C172.05 395.059 175.713 398.723 180.231 398.723Z" fill="#C8D3DD"/>
<path d="M440.327 601.201H291.309C289.835 601.201 288.637 600.846 288.637 600.41C288.637 599.973 289.835 599.618 291.309 599.618H440.327C441.801 599.618 443 599.973 443 600.41C443 600.846 441.801 601.201 440.327 601.201Z" fill="#ADCB53"/>
<path d="M233.321 602.161C232.885 602.161 232.53 601.806 232.53 601.369V550.464C232.53 550.028 232.885 549.673 233.321 549.673C233.757 549.673 234.112 550.028 234.112 550.464V601.369C234.112 601.806 233.757 602.161 233.321 602.161Z" fill="#ADCB53"/>
<path d="M236.299 550.613C236.299 548.967 234.966 547.634 233.321 547.634C231.676 547.634 230.343 548.967 230.343 550.613C230.343 552.259 231.676 553.593 233.321 553.593C234.966 553.593 236.299 552.264 236.299 550.613Z" fill="#ADCB53"/>
<path d="M199.273 602.161C198.837 602.161 198.482 601.806 198.482 601.369V580.211C198.482 579.774 198.837 579.419 199.273 579.419C199.71 579.419 200.064 579.774 200.064 580.211V601.369C200.064 601.806 199.71 602.161 199.273 602.161Z" fill="#ADCB53"/>
<path d="M202.251 580.36C202.251 578.714 200.918 577.38 199.273 577.38C197.628 577.38 196.295 578.714 196.295 580.36C196.295 582.005 197.628 583.339 199.273 583.339C200.918 583.339 202.251 582.01 202.251 580.36Z" fill="#ADCB53"/>
<path d="M248.667 602.641C248.231 602.641 247.876 602.286 247.876 601.849V571.143C247.876 570.706 248.231 570.351 248.667 570.351C249.104 570.351 249.458 570.706 249.458 571.143V601.849C249.458 602.286 249.104 602.641 248.667 602.641Z" fill="#ADCB53"/>
<path d="M207.427 599.762C206.991 599.762 206.636 599.407 206.636 598.97V568.264C206.636 567.828 206.991 567.473 207.427 567.473C207.863 567.473 208.218 567.828 208.218 568.264V598.97C208.218 599.407 207.863 599.762 207.427 599.762Z" fill="#ADCB53"/>
<path d="M218.806 554.912C219.003 554.734 219.19 554.542 219.367 554.331C220.182 553.338 220.125 551.856 219.199 550.925L217.305 549.03C211.934 543.656 203.139 543.656 197.768 549.03L195.874 550.925C194.949 551.851 194.891 553.333 195.706 554.331C195.879 554.542 196.047 554.763 196.2 554.984C197.485 556.817 199.552 557.623 201.173 559.167C203.322 561.216 204.247 564.483 206.947 565.952C210.27 567.76 212.164 565.242 213.699 562.425C214.696 560.597 215.473 558.645 216.658 556.927C217.238 556.078 218.072 555.579 218.806 554.912Z" fill="white"/>
<path d="M208.031 569.747C205.71 569.104 203.293 568.806 200.886 568.859C198.627 568.907 196.445 569.545 194.206 569.502C193.995 569.497 193.779 569.502 193.568 569.516C192.571 569.574 191.664 568.859 191.506 567.852L191.185 565.793C190.269 559.954 194.292 554.427 200.128 553.511L202.185 553.189C203.192 553.031 204.151 553.674 204.401 554.643C204.454 554.85 204.516 555.051 204.583 555.253C205.379 557.575 206.281 559.858 206.957 562.219C207.643 564.623 207.873 567.012 208.089 569.488" fill="#C8D3DD"/>
<path d="M207.925 569.742C208.808 569.775 209.901 569.094 210.774 568.878C211.886 568.605 213.032 568.446 214.179 568.413C216.097 568.351 218.029 568.619 219.852 569.219C221.223 569.67 223.261 569.732 223.558 567.852L223.88 565.793C224.796 559.954 220.772 554.427 214.936 553.511L212.879 553.189C211.872 553.031 210.913 553.674 210.664 554.643C210.611 554.849 210.548 555.051 210.481 555.253L207.532 563.85C207.23 564.747 206.928 565.63 206.813 566.566C206.698 567.501 206.774 568.494 207.201 569.339C207.283 569.502 207.379 569.66 207.523 569.771C207.666 569.881 207.758 569.809 207.925 569.742Z" fill="#C8D3DD"/>
<path d="M210.544 569.464C210.544 567.875 209.254 568.024 207.666 568.024C206.079 568.024 204.789 567.875 204.789 569.464C204.789 571.052 206.079 573.782 207.666 573.782C209.254 573.782 210.544 571.052 210.544 569.464Z" fill="#ADCB53"/>
<path d="M308.609 601.201C308.172 601.201 307.817 600.846 307.817 600.41V570.183C307.817 569.747 308.172 569.392 308.609 569.392C309.045 569.392 309.4 569.747 309.4 570.183V600.41C309.4 600.846 309.045 601.201 308.609 601.201Z" fill="#ADCB53"/>
<path d="M309.98 568.744C308.416 568.13 306.762 567.746 305.088 567.602C303.515 567.468 301.957 567.751 300.408 567.559C300.259 567.54 300.115 567.53 299.967 567.521C299.271 567.487 298.696 566.926 298.658 566.216L298.586 564.762C298.379 560.645 301.573 557.109 305.688 556.898L307.141 556.826C307.85 556.788 308.469 557.306 308.57 557.997C308.594 558.146 308.618 558.29 308.651 558.433C309.035 560.103 309.49 561.754 309.788 563.438C310.085 565.155 310.075 566.83 310.042 568.562" fill="white"/>
<path d="M309.103 568.384C309.716 568.336 310.416 567.775 311.006 567.554C311.754 567.276 312.536 567.074 313.327 566.954C314.651 566.753 316.008 566.782 317.322 567.05C318.31 567.252 319.724 567.127 319.777 565.798L319.835 564.344C319.993 560.228 316.756 556.725 312.642 556.567L311.189 556.51C310.479 556.481 309.87 557.004 309.774 557.695C309.755 557.843 309.726 557.987 309.697 558.131L308.354 564.325C308.22 564.973 308.081 565.606 308.076 566.268C308.072 566.93 308.206 567.607 308.57 568.159C308.637 568.264 308.719 568.365 308.829 568.432C308.935 568.499 308.992 568.447 309.103 568.384Z" fill="white"/>
<path d="M311.485 567.545C311.485 565.957 310.196 566.105 308.608 566.105C307.021 566.105 305.731 565.957 305.731 567.545C305.731 569.133 307.021 571.863 308.608 571.863C310.196 571.863 311.485 569.133 311.485 567.545Z" fill="#ADCB53"/>
<path d="M250.187 577.25C248.623 576.636 246.969 576.253 245.295 576.109C243.722 575.974 242.164 576.257 240.615 576.065C240.466 576.046 240.322 576.037 240.174 576.027C239.478 575.993 238.903 575.432 238.865 574.722L238.793 573.268C238.586 569.152 241.78 565.616 245.895 565.405L247.348 565.333C248.057 565.299 248.676 565.812 248.777 566.503C248.801 566.652 248.825 566.796 248.858 566.94C249.242 568.61 249.697 570.26 249.995 571.944C250.297 573.662 250.283 575.336 250.249 577.068" fill="white"/>
<path d="M249.314 576.891C249.928 576.843 250.628 576.281 251.218 576.061C251.966 575.782 252.747 575.581 253.539 575.461C254.862 575.259 256.219 575.288 257.533 575.557C258.521 575.758 259.936 575.634 259.989 574.305L260.046 572.851C260.204 568.734 256.967 565.232 252.853 565.074L251.4 565.016C250.69 564.987 250.081 565.51 249.985 566.201C249.966 566.35 249.937 566.494 249.909 566.638L248.566 572.832C248.432 573.479 248.292 574.113 248.288 574.775C248.283 575.437 248.417 576.113 248.782 576.665C248.849 576.771 248.93 576.871 249.041 576.939C249.146 577.006 249.204 576.953 249.314 576.891Z" fill="white"/>
<path d="M251.692 576.051C251.692 574.463 250.403 574.612 248.815 574.612C247.228 574.612 245.938 574.463 245.938 576.051C245.938 577.639 247.228 580.369 248.815 580.369C250.407 580.369 251.692 577.639 251.692 576.051Z" fill="#ADCB53"/>
<path d="M146.942 601.417C146.548 601.417 146.213 601.129 146.155 600.731C145.167 593.376 143.091 586.155 139.993 579.28C135.385 569.056 129.045 560.684 121.152 554.403C113.335 548.18 104.31 548.756 96.3932 555.977C87.6847 563.922 80.5443 580.043 77.2882 599.109C77.2163 599.541 76.8086 599.829 76.3723 599.757C75.9407 599.685 75.653 599.273 75.7249 598.841C79.0337 579.443 86.3611 562.982 95.3238 554.806C103.874 547.005 113.647 546.405 122.135 553.165C130.225 559.604 136.718 568.173 141.432 578.627C144.597 585.647 146.712 593.011 147.723 600.52C147.781 600.952 147.479 601.355 147.042 601.412C147.009 601.412 146.975 601.417 146.942 601.417Z" fill="#ADCB53"/>
<path d="M130.278 601.907C129.861 601.907 129.511 601.58 129.487 601.158C129.204 595.876 129.669 590.588 130.872 585.436C131.505 582.734 132.867 579.27 135.793 578.1C138.958 576.833 141.504 579.174 142.837 581.789C143.034 582.178 142.88 582.658 142.492 582.854C142.103 583.051 141.624 582.898 141.427 582.509C140.938 581.545 139.121 578.474 136.387 579.573C133.975 580.537 132.867 583.891 132.421 585.8C131.251 590.804 130.801 595.943 131.074 601.076C131.098 601.513 130.762 601.887 130.326 601.911C130.302 601.907 130.292 601.907 130.278 601.907Z" fill="#ADCB53"/>
<path d="M120.524 601.12C120.111 601.12 119.766 600.803 119.733 600.386C119.263 594.12 119.546 587.801 120.572 581.607C120.97 579.189 121.507 576.632 122.73 574.314C124.101 571.704 126.158 569.848 128.518 569.09C131.635 568.082 136.43 569.737 138.19 572.424C138.43 572.789 138.329 573.283 137.96 573.523C137.596 573.763 137.102 573.662 136.862 573.292C135.486 571.196 131.448 569.809 129.002 570.596C127.07 571.22 125.29 572.841 124.13 575.048C123.017 577.164 122.514 579.573 122.135 581.861C121.133 587.935 120.855 594.125 121.315 600.266C121.349 600.702 121.023 601.081 120.581 601.115C120.562 601.115 120.543 601.12 120.524 601.12Z" fill="#ADCB53"/>
<path d="M107.562 601.101C107.13 601.101 106.78 600.755 106.77 600.323C106.598 592.762 107.576 585.877 109.945 578.004L110.209 577.116C111.993 571.143 114.688 562.113 120.452 558.961C125.108 556.414 128.8 560.065 131.246 562.483C131.558 562.79 131.558 563.294 131.251 563.606C130.944 563.917 130.441 563.917 130.129 563.61C127.232 560.741 124.561 558.52 121.214 560.353C116.025 563.193 113.441 571.843 111.734 577.572L111.47 578.46C109.154 586.165 108.195 592.896 108.362 600.29C108.372 600.726 108.027 601.091 107.59 601.101C107.571 601.101 107.566 601.101 107.562 601.101Z" fill="#ADCB53"/>
<path d="M270.246 602.641H147.004C146.567 602.641 146.212 602.286 146.212 601.849C146.212 601.412 146.567 601.057 147.004 601.057H270.246C270.682 601.057 271.037 601.412 271.037 601.849C271.037 602.286 270.682 602.641 270.246 602.641Z" fill="#ADCB53"/>
<path d="M47.2593 584.577H0.26416V585.536H47.2593V584.577Z" fill="#C8D3DD"/>
<path d="M37.9083 591.054H13.9312V592.013H37.9083V591.054Z" fill="#C8D3DD"/>
<path d="M442.228 600.634C441.835 600.634 441.499 600.346 441.441 599.947C440.454 592.592 438.377 585.372 435.279 578.496C430.671 568.272 424.331 559.9 416.438 553.62C408.622 547.397 399.597 547.973 391.679 555.193C382.971 563.139 375.83 579.259 372.574 598.326C372.502 598.758 372.095 599.045 371.658 598.973C371.227 598.902 370.939 598.489 371.011 598.057C374.32 578.66 381.647 562.198 390.61 554.023C399.16 546.221 408.933 545.622 417.421 552.382C425.511 558.821 432.004 567.389 436.718 577.844C439.883 584.863 441.998 592.228 443.009 599.736C443.067 600.168 442.765 600.571 442.329 600.629C442.295 600.629 442.261 600.634 442.228 600.634Z" fill="#ADCB53"/>
<path d="M425.564 601.123C425.147 601.123 424.797 600.797 424.773 600.375C424.49 595.092 424.955 589.805 426.159 584.652C426.792 581.951 428.153 578.487 431.079 577.316C434.244 576.05 436.79 578.391 438.123 581.006C438.32 581.394 438.166 581.874 437.778 582.071C437.389 582.268 436.91 582.114 436.713 581.725C436.224 580.761 434.407 577.69 431.673 578.789C429.261 579.753 428.153 583.107 427.708 585.017C426.537 590.021 426.087 595.159 426.36 600.293C426.384 600.73 426.048 601.104 425.612 601.128C425.588 601.123 425.578 601.123 425.564 601.123Z" fill="#ADCB53"/>
<path d="M415.81 600.336C415.398 600.336 415.052 600.02 415.019 599.602C414.549 593.336 414.832 587.017 415.858 580.823C416.256 578.405 416.793 575.848 418.016 573.531C419.387 570.921 421.445 569.064 423.804 568.306C426.921 567.298 431.716 568.954 433.476 571.64C433.716 572.005 433.615 572.499 433.246 572.739C432.882 572.979 432.388 572.878 432.148 572.509C430.772 570.412 426.734 569.026 424.288 569.812C422.356 570.436 420.577 572.058 419.416 574.265C418.304 576.381 417.8 578.789 417.421 581.078C416.419 587.152 416.141 593.341 416.601 599.482C416.635 599.919 416.309 600.298 415.867 600.331C415.848 600.331 415.829 600.336 415.81 600.336Z" fill="#ADCB53"/>
<path d="M402.848 600.317C402.416 600.317 402.066 599.972 402.056 599.54C401.884 591.978 402.862 585.093 405.231 577.22L405.495 576.333C407.279 570.359 409.974 561.33 415.738 558.178C420.394 555.63 424.087 559.281 426.532 561.699C426.844 562.006 426.844 562.51 426.537 562.822C426.23 563.134 425.727 563.134 425.415 562.827C422.518 559.958 419.847 557.736 416.5 559.569C411.312 562.409 408.727 571.06 407.02 576.788L406.756 577.676C404.44 585.381 403.481 592.113 403.649 599.506C403.658 599.943 403.313 600.307 402.876 600.317C402.857 600.317 402.852 600.317 402.848 600.317Z" fill="#ADCB53"/>
</svg>
