<svg width="372" height="698" viewBox="0 0 372 698" fill="none" xmlns="http://www.w3.org/2000/svg">
<g clip-path="url(#clip0_610_162)">
<path d="M-98.9504 500.776C-68.7748 498.612 -39.3796 483.625 -19.1397 460.544C1.10011 437.462 11.6045 406.199 9.74347 376.166C8.98866 364.964 6.61473 353.847 8.87047 342.719C10.8102 333.578 15.6576 325.327 19.3411 316.673C32.9699 285.363 31.2273 248.138 14.4565 219.466C-6.59417 183.602 -58.9852 156.801 -101.737 168.896" stroke="#ADCB53" stroke-miterlimit="10"/>
<path d="M-45.2579 589.055C4.35044 586.103 50.5862 545.316 60.2302 496.136C64.9329 471.32 61.4045 445.662 66.5698 420.822C72.3889 393.398 88.6749 369.133 98.6793 342.88C115.798 297.943 113.37 246.615 92.2251 204.73C71.0798 162.844 31.5797 131.426 -13.856 120.02C-20.7659 122.237 -19.6941 124.151 -26.655 123.126C-42.6693 120.49 -59.7454 123.936 -73.9622 132.563" stroke="#ADCB53" stroke-miterlimit="10"/>
<path d="M12.1641 664.744C44.2291 672.332 78.3506 648.753 94.0829 618.723C109.815 588.693 111.703 554.174 113.264 520.947C114.56 492.95 111.628 461.002 118.956 433.847C125.957 407.983 143.168 383.67 154.127 359.221C185.218 290.14 191.103 208.012 157.434 142.564C123.765 77.1149 46.7009 34.3411 -26.2925 51.7325" stroke="#ADCB53" stroke-miterlimit="10"/>
</g>
<defs>
<clipPath id="clip0_610_162">
<rect width="506.782" height="479.979" fill="white" transform="translate(371.694 327.633) rotate(133.047)"/>
</clipPath>
</defs>
</svg>
