<svg xmlns="http://www.w3.org/2000/svg" xml:space="preserve" id="Layer_2" x="0" y="0" version="1.1" viewBox="0 0 464.88 283.46">
  <path d="M39.85 194.24c-.68-.68-1.02-1.65-1.02-2.92v-24.77c0-1.27.34-2.24 1.02-2.92.68-.68 1.65-1.02 2.92-1.02h9.35c3.61 0 6.72.66 9.33 1.97 2.61 1.31 4.61 3.19 6 5.63 1.39 2.44 2.08 5.34 2.08 8.7 0 3.4-.69 6.32-2.06 8.77-1.37 2.45-3.36 4.33-5.97 5.63-2.61 1.3-5.73 1.94-9.38 1.94h-9.35c-1.27.01-2.24-.33-2.92-1.01zm11.66-5.83c3.18 0 5.56-.78 7.15-2.34 1.59-1.56 2.38-3.94 2.38-7.15 0-3.21-.8-5.59-2.38-7.13-1.59-1.54-3.97-2.31-7.15-2.31h-4.17v18.94h4.17zM81 194.24c-.68-.68-1.02-1.65-1.02-2.92v-24.77c0-1.27.34-2.24 1.02-2.92.68-.68 1.65-1.02 2.92-1.02h16.02c1.33 0 2.33.28 3.01.83.68.56 1.02 1.36 1.02 2.41 0 2.22-1.34 3.33-4.03 3.33H88.27v6.2h10.74c2.69 0 4.03 1.1 4.03 3.29 0 1.05-.34 1.85-1.02 2.41-.68.56-1.68.83-3.01.83H88.27v6.76h11.67c2.69 0 4.03 1.11 4.03 3.33 0 1.05-.34 1.85-1.02 2.41-.68.56-1.68.83-3.01.83H83.92c-1.26.02-2.24-.32-2.92-1zM119.92 193.64c-2.45-1.36-4.35-3.3-5.69-5.83-1.34-2.53-2.01-5.49-2.01-8.89 0-3.36.67-6.31 2.01-8.84 1.34-2.53 3.24-4.47 5.69-5.83 2.45-1.36 5.32-2.04 8.59-2.04 3.92 0 7.36 1.03 10.32 3.1.52.37.9.77 1.13 1.2.23.43.35.99.35 1.67 0 .96-.27 1.77-.81 2.43-.54.66-1.2 1-1.97 1-.46 0-.88-.07-1.25-.21-.37-.14-.8-.36-1.3-.67-1.08-.65-2.1-1.11-3.06-1.39-.96-.28-1.94-.42-2.96-.42-2.75 0-4.79.83-6.13 2.48-1.34 1.65-2.01 4.16-2.01 7.52 0 3.4.67 5.92 2.01 7.57 1.34 1.65 3.39 2.48 6.13 2.48.93 0 1.82-.15 2.69-.44.86-.29 1.97-.75 3.33-1.37.65-.34 1.13-.57 1.44-.69.31-.12.68-.19 1.11-.19.77 0 1.43.33 1.97 1 .54.66.81 1.47.81 2.43 0 .65-.12 1.2-.35 1.64-.23.45-.61.86-1.13 1.23-2.96 2.07-6.4 3.1-10.32 3.1-3.28 0-6.14-.68-8.59-2.04zM181.1 191.74c0 1.02-.41 1.88-1.23 2.59-.82.71-1.75 1.06-2.8 1.06-.71 0-1.36-.19-1.94-.56-.59-.37-1.05-.93-1.39-1.67l-2.08-4.68h-15l-2.13 4.68c-.34.74-.81 1.3-1.41 1.67-.6.37-1.26.56-1.97.56-1.05 0-2-.35-2.85-1.06-.85-.71-1.27-1.57-1.27-2.59 0-.56.14-1.13.42-1.71l12.22-25.09c.4-.83 1-1.47 1.78-1.92.79-.45 1.66-.67 2.62-.67.93 0 1.79.22 2.59.67.8.45 1.4 1.09 1.81 1.92l12.22 25.09c.27.59.41 1.16.41 1.71zm-12.32-9.63-4.63-10.32-4.63 10.32h9.26zM218.32 192.21c0 .99-.41 1.81-1.23 2.48-.82.66-1.77 1-2.85 1-.74 0-1.44-.17-2.08-.51-.65-.34-1.2-.85-1.67-1.53l-6.02-8.8c-.43-.62-.89-1.07-1.37-1.37-.48-.29-1.04-.44-1.69-.44h-3.01v8.29c0 1.3-.37 2.32-1.11 3.08-.74.76-1.76 1.13-3.05 1.13-1.3 0-2.32-.38-3.08-1.13-.76-.76-1.13-1.78-1.13-3.08v-24.77c0-1.27.34-2.24 1.02-2.92.68-.68 1.65-1.02 2.92-1.02h11.62c3.95 0 6.92.86 8.91 2.57 1.99 1.71 2.99 4.19 2.99 7.43 0 2.47-.68 4.56-2.04 6.27-1.36 1.71-3.27 2.86-5.74 3.45 1.02.15 1.91.49 2.66 1.02.76.53 1.51 1.31 2.25 2.36l2.87 4.12c.55.84.83 1.63.83 2.37zm-10.02-16.44c.82-.59 1.23-1.54 1.23-2.87 0-1.36-.41-2.34-1.23-2.94-.82-.6-2.17-.9-4.05-.9h-5.93v7.59h5.93c1.88 0 3.23-.29 4.05-.88zM254.43 181.26c1.02 1.37 1.53 3.06 1.53 5.07 0 1.79-.47 3.36-1.41 4.7-.94 1.34-2.28 2.38-4.03 3.13-1.74.74-3.79 1.11-6.13 1.11h-12.31c-1.27 0-2.24-.34-2.92-1.02-.68-.68-1.02-1.65-1.02-2.92v-24.77c0-1.27.34-2.24 1.02-2.92.68-.68 1.65-1.02 2.92-1.02h11.85c3.43 0 6.15.76 8.17 2.29 2.02 1.53 3.03 3.59 3.03 6.18 0 1.67-.45 3.14-1.34 4.42s-2.15 2.21-3.75 2.8c1.91.6 3.37 1.58 4.39 2.95zm-18.01-5.81h6.07c1.6 0 2.78-.25 3.52-.74.74-.49 1.11-1.28 1.11-2.36 0-1.14-.37-1.97-1.11-2.5-.74-.52-1.91-.79-3.52-.79h-6.07v6.39zm10.53 12.57c.73-.54 1.09-1.43 1.09-2.66 0-1.23-.36-2.12-1.09-2.66-.72-.54-1.94-.81-3.63-.81h-6.9v6.94h6.9c1.7 0 2.91-.27 3.63-.81zM272.51 193.62c-2.45-1.37-4.34-3.32-5.67-5.83-1.33-2.52-1.99-5.47-1.99-8.87 0-3.39.66-6.35 1.99-8.87 1.33-2.51 3.22-4.45 5.67-5.81 2.45-1.36 5.35-2.04 8.68-2.04s6.23.68 8.68 2.04c2.45 1.36 4.34 3.3 5.65 5.81 1.31 2.52 1.97 5.47 1.97 8.87 0 3.4-.66 6.35-1.99 8.87-1.33 2.52-3.22 4.46-5.67 5.83-2.45 1.37-5.33 2.06-8.63 2.06-3.34 0-6.24-.69-8.69-2.06zm14.47-7.08c1.39-1.74 2.08-4.28 2.08-7.62 0-3.33-.7-5.86-2.11-7.59-1.4-1.73-3.33-2.59-5.76-2.59-2.47 0-4.4.86-5.79 2.57-1.39 1.71-2.08 4.25-2.08 7.62 0 3.36.69 5.91 2.08 7.64 1.39 1.73 3.32 2.59 5.79 2.59 2.47-.01 4.4-.88 5.79-2.62zM335.89 163.55c.76.77 1.13 1.78 1.13 3.01v24.77c0 1.27-.37 2.28-1.11 3.06-.74.77-1.7 1.16-2.87 1.16-1.39 0-2.44-.46-3.15-1.39l-14.07-17.55v14.72c0 1.27-.36 2.28-1.06 3.06-.71.77-1.67 1.16-2.87 1.16-1.17 0-2.13-.39-2.87-1.16-.74-.77-1.11-1.79-1.11-3.06v-24.77c0-1.23.37-2.24 1.11-3.01.74-.77 1.7-1.16 2.87-1.16 1.33 0 2.36.46 3.1 1.39l14.07 17.5v-14.72c0-1.27.36-2.28 1.09-3.03.73-.76 1.67-1.13 2.85-1.13s2.13.38 2.89 1.15zM349.46 194.41c-.76-.76-1.13-1.78-1.13-3.08v-24.77c0-1.27.38-2.28 1.13-3.03.76-.76 1.78-1.13 3.08-1.13 1.33 0 2.38.38 3.15 1.13.77.76 1.16 1.77 1.16 3.03v24.77c0 1.3-.39 2.32-1.16 3.08-.77.76-1.82 1.13-3.15 1.13-1.3 0-2.33-.38-3.08-1.13zM392 189.38c.66.53.99 1.36.99 2.5 0 1.17-.32 2.03-.97 2.57-.65.54-1.67.81-3.06.81h-18.52c-1.14 0-2.04-.34-2.71-1.02-.66-.68-1-1.53-1-2.55 0-1.02.36-2.02 1.07-3.01l14.26-19.4h-11.2c-1.39 0-2.41-.27-3.08-.81-.66-.54-1-1.37-1-2.48 0-1.17.33-2.03 1-2.57.66-.54 1.69-.81 3.08-.81h17.78c1.11 0 2 .33 2.66 1 .66.66 1 1.5 1 2.52 0 1.05-.36 2.07-1.07 3.06l-14.26 19.4h11.99c1.37.01 2.38.27 3.04.79zM403.09 194.24c-.68-.68-1.02-1.65-1.02-2.92v-24.77c0-1.27.34-2.24 1.02-2.92.68-.68 1.65-1.02 2.92-1.02h16.02c1.33 0 2.33.28 3.01.83.68.56 1.02 1.36 1.02 2.41 0 2.22-1.34 3.33-4.03 3.33h-11.67v6.2h10.74c2.69 0 4.03 1.1 4.03 3.29 0 1.05-.34 1.85-1.02 2.41-.68.56-1.68.83-3.01.83h-10.74v6.76h11.67c2.69 0 4.03 1.11 4.03 3.33 0 1.05-.34 1.85-1.02 2.41-.68.56-1.68.83-3.01.83h-16.02c-1.27.02-2.24-.32-2.92-1zM86.58 243.05c-2.11-.54-3.85-1.29-5.21-2.25-.52-.4-.9-.82-1.13-1.25s-.35-.99-.35-1.67c0-.93.28-1.73.83-2.41.56-.68 1.2-1.02 1.94-1.02.4 0 .79.06 1.16.19.37.12.83.36 1.39.69 1.26.71 2.52 1.22 3.77 1.53 1.25.31 2.66.46 4.24.46 1.82 0 3.2-.27 4.14-.81.94-.54 1.41-1.33 1.41-2.38 0-.71-.44-1.32-1.32-1.83-.88-.51-2.55-1.01-5.02-1.5-3.06-.65-5.45-1.42-7.18-2.32-1.73-.89-2.94-1.95-3.63-3.17s-1.04-2.69-1.04-4.42c0-1.97.59-3.77 1.76-5.37s2.78-2.86 4.84-3.77c2.05-.91 4.36-1.37 6.92-1.37 2.25 0 4.26.25 6.02.74 1.76.49 3.36 1.27 4.82 2.32.56.4.95.83 1.18 1.27.23.45.35 1 .35 1.64 0 .93-.27 1.73-.81 2.41-.54.68-1.18 1.02-1.92 1.02-.4 0-.77-.05-1.11-.16-.34-.11-.82-.35-1.44-.72a46.9 46.9 0 0 0-1.32-.72c-.73-.39-1.57-.69-2.55-.93-.97-.23-2.03-.35-3.17-.35-1.57 0-2.84.3-3.8.9-.96.6-1.44 1.4-1.44 2.38 0 .59.17 1.06.51 1.44.34.37.97.73 1.9 1.09.93.36 2.3.72 4.12 1.09 2.96.65 5.29 1.43 6.99 2.34 1.7.91 2.9 1.97 3.61 3.17s1.07 2.62 1.07 4.26c0 2.04-.57 3.84-1.71 5.39-1.14 1.56-2.74 2.76-4.79 3.61-2.05.85-4.44 1.27-7.15 1.27-2.47.02-4.76-.25-6.88-.79zM124.13 241.8c-2.45-1.37-4.34-3.32-5.67-5.83-1.33-2.52-1.99-5.47-1.99-8.87 0-3.39.66-6.35 1.99-8.87 1.33-2.51 3.22-4.45 5.67-5.81 2.45-1.36 5.35-2.04 8.68-2.04s6.23.68 8.68 2.04c2.45 1.36 4.34 3.3 5.65 5.81 1.31 2.52 1.97 5.47 1.97 8.87 0 3.4-.66 6.35-1.99 8.87-1.33 2.52-3.22 4.46-5.67 5.83-2.45 1.37-5.33 2.06-8.63 2.06-3.34 0-6.24-.68-8.69-2.06zm14.47-7.08c1.39-1.74 2.08-4.28 2.08-7.62 0-3.33-.7-5.86-2.11-7.59-1.4-1.73-3.33-2.59-5.76-2.59-2.47 0-4.4.86-5.79 2.57-1.39 1.71-2.08 4.25-2.08 7.62 0 3.36.69 5.91 2.08 7.64 1.39 1.73 3.32 2.59 5.79 2.59 2.47-.01 4.4-.88 5.79-2.62zM160.68 242.57c-.77-.77-1.16-1.79-1.16-3.06v-24.77c0-1.27.34-2.24 1.02-2.92.68-.68 1.65-1.02 2.92-1.02h15.56c1.39 0 2.41.27 3.06.81.65.54.97 1.4.97 2.57 0 1.14-.33 1.98-1 2.5-.66.53-1.67.79-3.03.79H167.9v6.02h10.19c1.36 0 2.37.28 3.03.83.66.56.99 1.4.99 2.55 0 1.14-.33 1.98-.99 2.5-.66.52-1.68.79-3.03.79H167.9v9.35c0 1.3-.38 2.32-1.13 3.08-.76.76-1.77 1.13-3.03 1.13-1.27 0-2.29-.38-3.06-1.15zM201.35 242.54c-.79-.76-1.18-1.77-1.18-3.03V217.7h-6.53c-1.36 0-2.37-.29-3.03-.86-.66-.57-1-1.44-1-2.62 0-1.17.33-2.04 1-2.59.66-.56 1.67-.83 3.03-.83h21.67c1.36 0 2.37.28 3.03.83.66.56 1 1.42 1 2.59s-.33 2.05-1 2.62c-.66.57-1.67.86-3.03.86h-6.53v21.81c0 1.27-.39 2.28-1.18 3.03-.79.76-1.83 1.13-3.13 1.13-1.29.01-2.33-.37-3.12-1.13zM269.83 211.18c.69-.46 1.46-.69 2.29-.69 1.02 0 1.91.32 2.66.97.76.65 1.13 1.53 1.13 2.64 0 .49-.12 1.11-.37 1.85l-9.31 25.19c-.31.86-.87 1.54-1.69 2.01-.82.48-1.72.72-2.71.72s-1.88-.24-2.69-.72c-.8-.48-1.36-1.15-1.67-2.01l-6.02-17.18-6.3 17.18c-.34.86-.91 1.54-1.71 2.01-.8.48-1.68.72-2.64.72-.99 0-1.88-.24-2.69-.72-.8-.48-1.36-1.15-1.67-2.01l-9.35-25.19c-.22-.62-.32-1.2-.32-1.76 0-1.14.41-2.04 1.23-2.71.82-.66 1.77-1 2.85-1 .86 0 1.66.22 2.38.67.73.45 1.24 1.12 1.55 2.01l6.34 18.24 6.71-18.24c.31-.86.81-1.53 1.51-1.99.69-.46 1.46-.69 2.29-.69s1.59.23 2.27.69c.68.46 1.17 1.14 1.48 2.04l6.3 18.61 6.62-18.66c.33-.86.83-1.52 1.53-1.98zM313.97 239.93c0 1.02-.41 1.88-1.23 2.59-.82.71-1.75 1.06-2.8 1.06-.71 0-1.36-.19-1.94-.56-.59-.37-1.05-.93-1.39-1.67l-2.08-4.68h-15l-2.13 4.68c-.34.74-.81 1.3-1.41 1.67-.6.37-1.26.56-1.97.56-1.05 0-2-.35-2.85-1.06-.85-.71-1.27-1.57-1.27-2.59 0-.56.14-1.13.42-1.71l12.22-25.09c.4-.83 1-1.47 1.78-1.92.79-.45 1.66-.67 2.62-.67.93 0 1.79.22 2.59.67.8.45 1.4 1.09 1.81 1.92l12.22 25.09c.27.58.41 1.15.41 1.71zm-12.32-9.63-4.63-10.32-4.63 10.32h9.26zM351.19 240.39c0 .99-.41 1.81-1.23 2.48-.82.66-1.77 1-2.85 1-.74 0-1.44-.17-2.08-.51-.65-.34-1.2-.85-1.67-1.53l-6.02-8.8c-.43-.62-.89-1.07-1.37-1.37-.48-.29-1.04-.44-1.69-.44h-3.01v8.29c0 1.3-.37 2.32-1.11 3.08-.74.76-1.76 1.13-3.05 1.13-1.3 0-2.32-.38-3.08-1.13-.76-.76-1.13-1.78-1.13-3.08v-24.77c0-1.27.34-2.24 1.02-2.92.68-.68 1.65-1.02 2.92-1.02h11.62c3.95 0 6.92.86 8.91 2.57 1.99 1.71 2.99 4.19 2.99 7.43 0 2.47-.68 4.56-2.04 6.27-1.36 1.71-3.27 2.86-5.74 3.45 1.02.15 1.91.49 2.66 1.02.76.53 1.51 1.31 2.25 2.36l2.87 4.12c.55.84.83 1.63.83 2.37zm-10.02-16.44c.82-.59 1.23-1.54 1.23-2.87 0-1.36-.41-2.34-1.23-2.94-.82-.6-2.17-.9-4.05-.9h-5.93v7.59h5.93c1.88 0 3.23-.29 4.05-.88zM362.02 242.43c-.68-.68-1.02-1.65-1.02-2.92v-24.77c0-1.27.34-2.24 1.02-2.92.68-.68 1.65-1.02 2.92-1.02h16.02c1.33 0 2.33.28 3.01.83.68.56 1.02 1.36 1.02 2.41 0 2.22-1.34 3.33-4.03 3.33h-11.67v6.2h10.74c2.69 0 4.03 1.1 4.03 3.29 0 1.05-.34 1.85-1.02 2.41-.68.56-1.68.83-3.01.83h-10.74v6.76h11.67c2.69 0 4.03 1.11 4.03 3.33 0 1.05-.34 1.85-1.02 2.41-.68.56-1.68.83-3.01.83h-16.02c-1.26.02-2.24-.32-2.92-1z" fill="#fff"/>
  <path d="M213.08 75.73v22.36l19.36 11.17 19.36-11.17V75.73l-19.36-11.17z" fill="#aecc53"/>
  <path d="m232.44 47.47-34.15 19.72v39.44l34.15 19.71 34.15-19.71V67.19l-34.15-19.72zm22.69 52.54-22.69 13.09-22.69-13.09v-26.2l22.69-13.09 22.69 13.09v26.2z" fill="#aecc53"/>
  <path d="M205.51 134.21h-28.34V39.6h28.34v5.27h-23.08v84.07h23.08zM287.72 134.21h-28.35v-5.27h23.09V44.87h-23.09V39.6h28.35z" fill="#fff"/>
</svg>
