<svg width="131" height="113" viewBox="0 0 131 113" fill="none" xmlns="http://www.w3.org/2000/svg">
<path d="M35.0302 112.505H14.6404C9.20652 112.505 4.79883 108.088 4.79883 102.681V64.9672L0.340671 57.4949C-0.113557 56.7225 -0.113557 55.7654 0.340671 54.9929L4.79883 47.5206V9.82316C4.78201 4.41623 9.20652 0 14.6404 0H35.047V4.88639H14.6404C11.8982 4.88639 9.67757 7.1029 9.67757 9.83996V48.2259C9.67757 48.6624 9.5598 49.099 9.32428 49.4684L5.26988 56.2523L9.32428 63.053C9.54298 63.4392 9.67757 63.859 9.67757 64.2956V102.681C9.67757 105.419 11.8982 107.635 14.6404 107.635H35.047V112.505H35.0302Z" fill="#AECC53"/>
<path d="M116.354 112.505H95.9473V107.618H116.354C119.096 107.618 121.317 105.402 121.317 102.665V64.2956C121.317 63.859 121.434 63.4224 121.67 63.053L125.724 56.2523L121.67 49.4517C121.451 49.0654 121.317 48.6457 121.317 48.2091V9.82316C121.317 7.08611 119.096 4.8696 116.354 4.8696H95.9473V0H116.354C121.788 0 126.195 4.41623 126.195 9.82316V47.5374L130.654 55.0097C131.108 55.7821 131.108 56.7393 130.654 57.5117L126.195 64.984V102.698C126.195 108.088 121.771 112.505 116.354 112.505Z" fill="#AECC53"/>
<path d="M93.1714 27.3369C93.0032 27.1522 92.835 26.9675 92.6836 26.7996L92.6499 26.8332C89.3357 23.7771 85.5 21.2751 81.3111 19.4784L81.3279 19.4448C81.1765 19.3777 81.0251 19.3441 80.8736 19.2937C76.1463 17.3291 70.9479 16.2376 65.514 16.2376C61.426 16.2376 55.5378 16.7414 51.5003 21.0736C46.7393 26.1951 46.0159 34.5238 49.7338 41.3413C54.0406 49.2334 60.6521 54.4724 68.3235 56.0844C69.5684 56.3531 70.8302 56.5546 72.1256 56.7561C75.3388 57.2598 78.367 57.7468 80.8736 59.1741C81.9672 59.7954 82.9934 60.635 83.9523 61.6257C83.1784 63.0194 82.9934 64.7321 83.6327 66.3106C84.7598 69.1316 87.9731 70.5085 90.7994 69.3834C93.6257 68.2584 95.0052 65.0512 93.878 62.2302C92.9191 59.8457 90.4629 58.5024 88.0235 58.8382C86.6104 57.243 85.0122 55.8997 83.313 54.9426C80.0157 53.0619 76.3987 52.491 72.8994 51.9368C71.705 51.7521 70.5105 51.5506 69.3497 51.3155C61.325 49.6196 56.5977 43.6921 54.0406 39.0072C51.8031 34.91 51.1806 28.5963 55.1004 24.3816C57.1697 22.1483 60.4839 21.1072 65.5308 21.1072C66.5739 21.1072 67.6001 21.1576 68.6095 21.2415C66.3215 23.1894 64.9589 26.0944 65.0093 29.184C65.0598 33.0797 67.1627 36.7403 71.2844 40.0819C77.7277 45.3209 82.3204 46.362 85.3991 46.362C86.6104 46.362 87.5861 46.2109 88.36 46.0765C91.9938 45.5056 95.1902 42.8861 96.5529 39.6117C99.2278 44.5653 100.742 50.2241 100.742 56.2355C100.742 66.3777 96.351 76.033 88.6796 82.7161C87.6702 83.606 87.5525 85.1341 88.4441 86.1584C88.932 86.7125 89.6049 86.998 90.2778 86.998C90.8498 86.998 91.4218 86.7965 91.8929 86.3935C100.624 78.7868 105.621 67.7882 105.621 56.2355C105.587 44.8843 100.809 34.6246 93.1714 27.3369ZM92.2798 36.7403C91.977 38.8729 89.8404 40.9047 87.3674 41.3077C85.4832 41.6099 81.5802 42.2312 74.3126 36.3205C71.3349 33.8857 69.8712 31.5349 69.8376 29.1337C69.804 26.9843 71.0657 25.0197 73.034 24.1297C74.9687 23.2733 77.0716 23.1726 79.0399 23.8275C82.9597 25.4563 86.5094 27.7903 89.5544 30.6449C91.691 33.0293 92.549 34.9436 92.2798 36.7403Z" fill="white"/>
<path d="M67.5328 69.2659C64.6729 68.6446 61.9811 68.0569 59.8782 67.083C53.8555 64.2955 49.9862 61.5081 48.0515 58.5696C47.0758 57.0583 46.2514 55.4799 45.5785 53.8343C46.8402 52.6757 47.5636 50.9461 47.3281 49.1158C46.958 46.1101 44.199 43.9607 41.1708 44.347C38.1426 44.7332 36.0061 47.4702 36.393 50.4927C36.6958 52.9275 38.5632 54.7746 40.8512 55.1944C41.6587 57.3102 42.7017 59.3252 43.9466 61.2562C47.1935 66.2266 53.4181 69.501 57.809 71.5328C60.3829 72.725 63.4784 73.3967 66.4561 74.0515C72.1087 75.2941 77.4585 76.4528 79.696 80.6507C80.5876 82.3299 80.7054 84.8318 79.9315 86.3767C77.7277 90.8265 71.3685 91.431 65.4467 91.431C46.0664 91.3974 30.2693 75.63 30.2693 56.2523C30.2693 45.959 34.778 36.203 42.6344 29.5199C43.6606 28.6467 43.7784 27.1018 42.9036 26.0775C42.0288 25.0533 40.481 24.9357 39.4548 25.8089C30.5049 33.4323 25.3906 44.5317 25.3906 56.2523C25.3906 78.3166 43.3746 96.2838 65.4972 96.2838C69.989 96.2838 80.5204 96.2838 84.3561 88.5092C85.8197 85.5707 85.6851 81.3895 84.0364 78.3334C80.7391 72.1541 73.7238 70.626 67.5328 69.2659Z" fill="white"/>
</svg>
