<svg width="98" height="80" viewBox="0 0 98 80" fill="none" xmlns="http://www.w3.org/2000/svg">
<path d="M43.5556 8.87246C38.9449 11.5342 35.2172 13.8509 32.3724 15.8226C29.5275 17.6956 26.6336 20.2095 23.6907 23.3641C20.9439 26.3216 18.8348 29.427 17.3634 32.6802C15.8919 35.9335 14.8619 40.1232 14.2733 45.2495H21.3363C27.4184 45.2495 32.1762 46.7776 35.6096 49.8336C39.1411 52.7911 40.9069 57.1781 40.9069 62.9945C40.9069 67.1349 39.3373 71.029 36.1982 74.6765C33.1572 78.2255 28.9389 80 23.5435 80C15.1071 80 9.07407 77.2397 5.44444 71.719C1.81481 66.0998 0 58.7554 0 49.6858C0 43.2779 1.37337 37.4615 4.12012 32.2366C6.86687 26.9131 10.2022 22.1811 14.1261 18.0407C18.1481 13.8016 22.4154 10.2033 26.9279 7.24584C31.4404 4.28835 35.2172 1.87307 38.2583 0L43.5556 8.87246ZM98 8.87246C93.3894 11.5342 89.6617 13.8509 86.8168 15.8226C83.972 17.6956 81.0781 20.2095 78.1351 23.3641C75.2903 26.4202 73.1321 29.5749 71.6607 32.8281C70.2873 35.9827 69.3063 40.1232 68.7177 45.2495H75.7808C81.8629 45.2495 86.6206 46.7776 90.0541 49.8336C93.5856 52.7911 95.3514 57.1781 95.3514 62.9945C95.3514 67.1349 93.7818 71.029 90.6426 74.6765C87.6016 78.2255 83.3834 80 77.988 80C69.5516 80 63.5185 77.2397 59.8889 71.719C56.2593 66.0998 54.4444 58.7554 54.4444 49.6858C54.4444 43.2779 55.8178 37.4615 58.5646 32.2366C61.3113 26.9131 64.6466 22.1811 68.5706 18.0407C72.5926 13.8016 76.8599 10.2033 81.3724 7.24584C85.8849 4.28835 89.6617 1.87307 92.7027 0L98 8.87246Z" fill="#AECC53"/>
</svg>
