<svg id="b13bb3a1-666b-492b-b2b3-eb52aa3c845b" data-name="Layer 1" xmlns="http://www.w3.org/2000/svg" width="25.51" height="21.83" viewBox="0 0 25.51 21.83"><polygon points="12.75 5.75 17.22 8.33 17.22 13.49 12.75 16.07 8.29 13.49 8.29 8.33 12.75 5.75" style="fill:#efefef"/><path d="M12.75,1.81,4.87,6.36v9.1L12.75,20l7.88-4.55V6.36ZM18,13.93l-5.24,3-5.23-3v-6l5.23-3,5.24,3Z" style="fill:#fff"/><polygon points="6.54 21.83 0 21.83 0 0 6.54 0 6.54 1.21 1.21 1.21 1.21 20.61 6.54 20.61 6.54 21.83" style="fill:#acc951"/><polygon points="25.51 21.83 18.97 21.83 18.97 20.61 24.29 20.61 24.29 1.21 18.97 1.21 18.97 0 25.51 0 25.51 21.83" style="fill:#acc951"/></svg>